/* XPM */
static char *Bark[] = {
/* columns rows colors chars-per-pixel */
"64 64 134 2 ",
"   c #1F130F",
".  c #220E0A",
"X  c #24130D",
"o  c #2A160E",
"O  c #2E180F",
"+  c #251713",
"@  c #2A1611",
"#  c #271811",
"$  c #2D1A13",
"%  c #2E1E19",
"&  c #331D15",
"*  c #381E15",
"=  c #321F19",
"-  c #362016",
";  c #3A2216",
":  c #35221B",
">  c #3B251C",
",  c #3D291E",
"<  c #332521",
"1  c #3A2720",
"2  c #3E2A22",
"3  c #412616",
"4  c #40261B",
"5  c #422A1D",
"6  c #4A2F1F",
"7  c #51311C",
"8  c #432D24",
"9  c #482E24",
"0  c #432E28",
"q  c #482F28",
"w  c #453126",
"e  c #4B3225",
"r  c #46322A",
"t  c #4B352B",
"y  c #4E392C",
"u  c #533520",
"i  c #593723",
"p  c #5C3B27",
"a  c #513729",
"s  c #533A2C",
"d  c #5A3D2D",
"f  c #4C3731",
"g  c #4D3932",
"h  c #543D33",
"j  c #593E32",
"k  c #513E39",
"l  c #57412D",
"z  c #5F422F",
"x  c #564136",
"c  c #5B4235",
"v  c #54413A",
"b  c #5C443A",
"n  c #5D483D",
"m  c #66432F",
"M  c #6A432D",
"N  c #624535",
"B  c #654836",
"V  c #61463A",
"C  c #644A3C",
"Z  c #6B4E3C",
"A  c #724B35",
"S  c #6D503E",
"D  c #73523D",
"F  c #594641",
"G  c #5E4941",
"H  c #604741",
"J  c #644D42",
"K  c #6A4F41",
"L  c #675146",
"P  c #6C5243",
"I  c #6C554B",
"U  c #735544",
"Y  c #765946",
"T  c #7C5A44",
"R  c #715649",
"E  c #755B4B",
"W  c #7A5D4B",
"Q  c #705750",
"!  c #745D52",
"~  c #7A5E51",
"^  c #7D614E",
"/  c #766053",
"(  c #7D6252",
")  c #7D6559",
"_  c #7E685E",
"`  c #825A44",
"'  c #815E48",
"]  c #83624E",
"[  c #826553",
"{  c #886650",
"}  c #866855",
"|  c #8C6B55",
" . c #81665A",
".. c #856A5B",
"X. c #8B6D5A",
"o. c #916B56",
"O. c #916F59",
"+. c #8E725E",
"@. c #92735D",
"#. c #98745C",
"$. c #95785E",
"%. c #836E65",
"&. c #896E61",
"*. c #867065",
"=. c #8E7362",
"-. c #8E7469",
";. c #937564",
":. c #997763",
">. c #957A65",
",. c #9B7B65",
"<. c #927769",
"1. c #94796A",
"2. c #9B7C6A",
"3. c #A17E69",
"4. c #9D816C",
"5. c #9B8175",
"6. c #98837B",
"7. c #A3826D",
"8. c #AB876F",
"9. c #A38572",
"0. c #A68A75",
"q. c #AA8A75",
"w. c #A5897A",
"e. c #AC8E7B",
"r. c #B2947C",
"t. c #B9967F",
"y. c #A38B82",
"u. c #AE9283",
"i. c #B49582",
"p. c #BB9A83",
"a. c #B0968B",
"s. c #BE9D88",
"d. c #C09D85",
"f. c #C2A08B",
/* pixels */
"X.B j h g t % X % r A A A ] ] #.$.9...n y s t w 8 t &.r.X.X.D e u 8 * f 2 0 h f q = = 4 q 8 q 9 d N A 3.K Z ..U ] =. .@.w.3.` U ",
"[ d b a h g : X # t A D { o.,.7.>.=.=.c x y g t 0 r ~ <.[ W C 5 > y y j 0 1 q 8 q 8 > * 8 q k h q j a I a d V s K ~ E o.&.~ X.] ",
"V C j 9 n n - X $ r 4.+.| :.3.{ ,.^ c s x x n y 0 > c ( C C k = ; e e g r : r g f f 5 ; b H J G j K b j 0 e y s c  . .T o.J j j ",
"h f j C h g $ % , L >.) } X.1.o.+.( l l s x x g 9 ; s E J H H g j x y s 9 0 0 f t t 0 9 j } ! I J J J b C C b x V j J p i q a j ",
"0 0 g H v t - X : R R R y.u.<.O.;.^ P a 9 8 r q > O 8 c x t r 2 e 8 w y 8 w 2 : : 2 w y L G F F J j b k j h j h 7 n c s 7 p k f ",
"g g v g h 8 : O > f j J K %._ W / C C e t q f 8 5 O > h t , < 2 : % > 2 > ; $ $ : > , r 2 2 f n H k h f r 2 , w , , 8 r 7 F k r ",
"% < < % : = O @ & 8 0 w f b k k j y K a t 9 : 8 8 * 4 8 w f v F v g r : > < = $ % $ : 1 2 2 2 l f q * = : % & @ o O : : $ % * % ",
"    + + # X @ O o + # # % : 2 0 x J I s t q q * 8 = ; , r g g f g r r 0 w 2 > : : : 1 1 < 2 2 2 8 8 1 2 $ % % $ $ $ @ X $ . . # ",
"+ + : # o = @ @ & X o # $ : 1 2 x b n y 8 5 8 1 2 ; 8 q q k k r r w 2 r t w > % $ % : - , 2 2 , 0 5 : ; * : = : % - : : : $ # % ",
"v r t 0 & > - & * * O @ % : < 1 e j c e 9 0 8 8 * * e 9 a k 0 = 2 , , 1 , 2 , - , > - , - ; 2 , , 0 ; > : : 8 2 w 1 r *.G f t r ",
"L d e C 0 & $ & * & & O : 2 > > 5 e c c s 0 8 q * = 4 8 q 8 * * - - - - ; w , , , 5 - , & & > , > ; > 0 0 8 g h J I ! =.^  .1. .",
"P e 9 b h w % $ = & ; > > 2 2 1 6 e c e 5 e r 1 & & 5 9 9 * * 4 - & ; - w s y t n n 5 - ; & w x j a n / ..I  . .*.-.) R ) 5.a.1.",
"( K s b h t : : - = , y n C n y V a e 4 ; ; ; 0 = @ 5 b j V V V a 6 w t c l l s z Z a 5 ; ; y P W Y ( ~  .U R | 1.2.W N  .1.w.( ",
"Y a j C v g % - O o - s s P C C V s e 8 ; * e 2 1 * 8 s  .[ X.&.( / P c P N P c Z Z l e 3 5 c U W T ] [ Y U C U ..[ W =.7.4.P ..",
"N j C H x g > : & : - s l R Y R P J j j y G f r r 0 0 c ;.} [ K ..1...^ / P c L n J y e Z P P R ^ | ] ] U W N c P U X.+.P B d d ",
"s q y C L J t 2 > > , s S U ^ ^ ~ &. .! ! k r w t 0 e K ..[ o.] +.,.>.X.;.) c x l 2 , w C c P ^ ^ @.D W } ;.B B i c Y c a s 8 w ",
"9 j G I G b f 8 2 2 , c ^ P S ^ / +.} } ^ / v r t 8 w P Y Y U | ;.} ^ X.;._ v r w : : , a e b W W +.S E .. .Z 6 3 B c e e e 5 4 ",
"q j H Q k t 2 2 2 2 , w C C ^ / S ( ^ I S I l l y 5 6 Y R X.| ` ' [ @.X.[ ( v 2 < , : 2 c c C =.X.W I Z ! I b 9 5 c y 6 ; > e e ",
"8 q H &.G 0 2 0 w ; - , u l U D Z Y S I n L v r t , e >.;.W Z Z W [ X.X.e.*.b % % % , 2 c c R ^ ^ C c n ~ L h q 5 e 6 ; > 8 s j ",
"q 8 j C N 0 1 < - & - , e l ^ / C / ^ Z c n v l s 5 e w.2.W e.O.A W S Y ( I g : % : > , c s V Y / S x l K V t * = & & ; 5 > y h ",
"q 8 j N a q 1 : : > - ; w a ^  .) ..| ..n / x l s e s u.q.X.s.#.M ` o.[ ^ L t @ % $ & , y s B W / P e y n a q & & & : ; ; 6 d y ",
"a 9 h j t f 1 2 : > - 5 d l ^ ] } =.;.@...^ C x s 5 i w.i.X.p.3.A A  .} R x 0 $ O X O - e d I U v n e h y 0 1 & = ; = > a e f s ",
"q q 8 8 t > = 2 > > , y g x N S ..4.>.5.0.S n x a e u ;.@.} p.8.` M | | P b e . X O & 5 j h x h t f r f f 8 $ $ & = 5 w a a y y ",
"8 q 5 8 8 2 = 2 > : - - > 5 w 6 P ..Y | >.B z l a 5 s Z Z D ,.@.} U U C d j > . . O * ; h y t w w r 1 0 1 q > = 8 0 0 w y 6 e 0 ",
"* 8 q 9 8 > : w , : : > > 5 5 3 a [ ;.>.1.P c s 6 ; 7 7 T q.7.+.X.` K B 9 5 = X . X * 4 y e y t f q 1 * & = * & : 8 8 8 q 9 0 8 ",
"h q j q 0 = : 2 2 , , > 5 e c C z R >.+.&.C c s ; ; m D X.f.s.0.W U W ] i 3 & X + = * 9 5 5 6 8 q 8 & o O * & & * * * * r q a 9 ",
"V k b k t : < 2 w 5 5 , 8 6 s c W [ W W ( E C c 3 3 B | ] o.t.d.} D W Y N N = . $ * & a e e 9 8 q q 8 8 8 9 * * 0 5 8 j V R &. .",
"I j h h t , > r r , ; > ; ; 5 e c ( =.N W [ P j 7 s m l p T O.@.7.W ] ] ] j = o . * 8 I :.@.Y P J j d a 9 8 9 a j b R ..=.W +.;.",
"R j h h f 2 < w r , - & , ; > e e P >.Y ( ( Y B c ^ 7 7 7 O.#.3.q.2.B ..! f % # + 2 ) 6.[ X.U U ] &.&.Z C V 8 e l l } 7.@.Y @.>.",
" .I h b h 2 r r , > - - , 6 ; a s C } S ;.[ Z B S Y T i m | t.3.W B j x f v < + < g y.1.2.=.| ` ;.2.;.B j V 8 8 l ( 4.4.4.| +.S ",
":.Q s b 0 * g r w , - - 6 s w 5 6 s S W ;.R U U | D Y ^ ] @.O.' B j J t 2 k < + + r y.2.;.o.o.' X.2.+.E J j y w , / | 4.@.@.{ ^ ",
"K 4 * j 9 : v g w , - - a l w , e d W ;.4.W X.} Y ^ [ 9.7.@.O.D { ] b v 2 g %   + k 2.,.( :.T { } 2.&.R j j 9 , > l q.8.| $.^ z ",
"u 5 = f 8 0 j f r = * 4 9 8 w w j N K 3.K Z ..R ] =...#.q.7.' D X.B j h y f = + & r Z M A ] [ ,.#.9...C a h r q 8 e &.r.X.X.S e ",
"4 t a j 8 : r 0 q q * * 8 t v x 9 j s K a j B s J ~ E o.&.W X.( [ d V a g g = . # y A ` { o.:.3.:.=.=.c j y k r 9 r ( <.[ W N 8 ",
"; t 0 h 0 > r g f f 8 * b H G F j K N h 8 a a a c [ } Y | J c x V K s q G b * X @ t 4.O.o.;.3.} ,.^ c s j v G g 0 ; b ( C C j = ",
"j c y s 9 0 0 f f f 9 9 c [ ! L J J J b C C b x G j J p i 9 t x y f j J h k $ % 1 J >.) { O.;.X...^ x l h j k y 9 ; s E J C H f ",
"q 0 9 y 8 e 2 : = q 8 t L G G F J j G h x h h h u n j s 7 p g g r 2 t J j r : o 1 R R I y.u.-.+.<.^ P a w 5 f w > O 8 x x r 0 2 ",
"> % > , , : $ # = 1 5 q r 2 g n H h j f w , , w > 8 8 r 7 n g t g k v f h 2 & $ : t j J L *.) W / Z Z w y t r 8 5 O 4 x t 2 < 0 ",
"v f w > : < = @ = $ = : 1 2 2 f y 0 = : - % & - X $ : & $ % % % % < < % : & $ O & 8 2 r t n v g x y Z t e w > 2 0 * , 2 0 r v F ",
"g r w 0 r 2 1 = * = 8 : , 2 2 2 2 8 1 2 $ % % @ @ % @ X $ X X +     + # $ X # O # # $ # % : 2 r x C I l e w 8 > 5 - : 2 f g g g ",
"r r 2 t r w , % % - : > : 2 2 2 8 2 * : : > : : & % : : : $ o $ + + < + # = # & o X o o # < 1 w x b C a 9 1 8 1 2 = 8 w t k k r ",
"2 , > , , 2 , : - , - , - , , , 2 8 > > : - 0 2 0 0 r *.J r f f F 2 f 2 & ; = * * = o @ % > < , r j j e q 8 8 q ; * e e e b 2 : ",
": - - - : , , ; 5 5 - ; - - ; , > = > 0 8 0 y y H I ! ;.( [ 1.[ P d t G 0 & % % ; - & O - 1 : : 5 e N j f 9 q q = * 3 8 8 8 1 * ",
"- O ; ; w l y l n n 5 ; - & e c j y V (  .I  ._ &.-.) I ) 5.a.1.K u 8 n j w @ $ & - ; > > 2 8 , 9 e j a 5 9 r : = O 5 9 9 * * > ",
"y 5 w e c l l s c Z a 5 - - s L W U ~ ~  .P R | ;.2.W C  .1.w.~ ( K h j k r = : - & 2 y b C b h N y 8 5 ; > ; 8 * @ 8 j c V V c ",
" ./ S n S n P c C L l e 3 6 c P ' T { } Y U C U } } W =.9.4.L | Y a j C j h = : $ o ; a s P B B C s w 6 * * r 8 1 * 8 s [ [ O.&.",
" .>...^ ^ P n L n C a e B L L Y ( o.' ] Y W B N U U | &.P B s d V j C C k g 1 : $ ; - y j R Y R P J j j a G f q q 0 q V -.X.[ K ",
"@.,.>...=.) c h s e 5 8 C C P W W @.D W } =.B B s c R N e s 9 e s 9 s H K J t 2 , > , j S R ^ W ( X.) ! ! k f r r 0 q K  .] X.] ",
";.| ^ ..;._ v r 2 : > , s e N W ( +.S W ....S 6 > B c e e a 5 ; 9 j n I G F f r 2 , , c ^ I P ^ E ;...[ ^ ) x r y w w S Y Y D | ",
"^ ] @.X.} ) x 2 2 < : 2 c c n =.X.E P L E L c w 5 c y 5 > ; e e q k J Q b r 2 2 2 , , 6 n Z E ^ S ( ^ R L I x r y 5 w W R X.| W ",
"W [ | X.e.*.b % $ % 2 2 c c R ^ ^ B V V / P h t 5 e 6 ; ; 8 h j 8 q G  .F w 2 2 w > & ; e l D S S Y P R n L x y e , e 1.;.W B S ",
"A W Z W ( I g & % : < , c s N Y ! P j h L C e - - & - ; 5 5 r h 9 8 n B c r 2 : > % - , e l ^ ( B / Y P c C x g y 5 e q.:.^ r.o.",
"M ` o.[ ^ L r & O $ O 4 y d B W Q I e a H f q & O & ; : ; 9 h s q 8 j V s w 2 : > , - - w s ^ } ) +.| ..n / x l s e a i.q.X.d.:.",
"A A ....I j 0 # O o & - e d I U F F e s f q 1 & : - * : a e y s y q g j t r 1 2 : - - 5 l l W ^ ) +.;.$...T L x s 5 s 0.i.X.i.3.",
"` M { X.P b 0 X X @ & 5 d x h x f r 0 f q q $ $ & : 8 w a a y y q 9 9 8 y , % 2 : , , l x x c S ..4.<.5.0.D C s t e e ;.@.{ p.8.",
"[ U D Z j j > . X O - ; g y t r q q 1 q > q 1 * 2 0 8 w y 6 e w 4 9 8 8 2 , - , > : - - > 5 6 6 S ..Y ..>.B z l a 5 p Z Z U ,.;.",
"X.` K N 6 5 * . o X * ; s e s y r t 1 * = = * & > 8 8 8 w 0 w , * 4 q q q 1 > q , - > - , 5 5 3 i [ ;.;.1.P c s 6 ; 6 7 ^ q.7.+.",
"W U W [ s 4 =   X & & e 5 > 5 8 q 8 * & @ * & & * * & > y e y y h f j f 9 $ = 2 , , , , 5 e c C c Y 1.=...C c d 3 3 m S O.f.p.9.",
"} U W U N m %   @ & & a e e w w 9 q 8 8 5 8 * * 8 8 8 s V R ..} c j v j f = > 0 w 5 , , 5 6 y c W ( W W ( E C c 3 3 B | ] O.t.f.",
"8.T ' [ ] j < + o & 8 U :.@.Y S J c s s 9 8 9 a j j R ..+.W +.;.I j j f f 1 : 0 r , ; ; , ; 5 w c ^ +.B / ( P d 6 i N p l D o.@.",
"q.2.C  .Q g < + + 2 ) y.} X.P T ] &.&.C C c 8 a h c ..9.$.D $.>.R x h j y 2 : 8 r , - - 5 ; > e e P 2.Y ( ^ W B N T 7 7 7 o.#.7.",
"W Z j j g F <   < f y.1.2.;.} T @.2.;.B c N 8 8 a  .:.7.4.| +.S  .L j c k 8 w 0 , > - - 5 8 4 r s B | S ;.} Z B P W T p M o.t.7.",
"M s J t 2 k <   + 2 2.2.1.X.o.' X.2.O.~ K j a q 5 / O.$.$.O.} W >.R g v w : g r 8 , = & 5 s e 5 6 s P W ;.R Y P | U U T W #.O.` ",
"} [ V y 2 g <   + F 3.:.] :.` { ] 2.-.P j j r > > l 0.0.| $.^ N K 5 ; j q 1 v g 0 2 ; ; a j e ; e d W ;.4.Y +.[ R W } 9.3.#.@.D "
};
