/* XPM */
static char *bookshelf[] = {
/* columns rows colors chars-per-pixel */
"64 64 189 2 ",
"   c #003700",
".  c #003D00",
"X  c #2E3F36",
"o  c #5F0000",
"O  c #640000",
"+  c #6C0000",
"@  c #740000",
"#  c #7C0000",
"$  c #7D1500",
"%  c #472708",
"&  c #462D0A",
"*  c #4D2C0A",
"=  c #532E0B",
"-  c #592F0C",
";  c #47310C",
":  c #49340D",
">  c #493A0E",
",  c #56310C",
"<  c #5A340D",
"1  c #5D390E",
"2  c #60370D",
"3  c #60390E",
"4  c #4F3221",
"5  c #483D2D",
"6  c #533422",
"7  c #543925",
"8  c #5B3A25",
"9  c #553D2A",
"0  c #5B3D2A",
"q  c #613B26",
"w  c #633E29",
"e  c #004400",
"r  c #004C00",
"t  c #005300",
"y  c #005B00",
"u  c #006300",
"i  c #006B00",
"p  c #007300",
"a  c #007B00",
"s  c #2E4137",
"d  c #31473D",
"f  c #314A3D",
"g  c #4C422E",
"h  c #54412D",
"j  c #5C412D",
"k  c #4D4332",
"l  c #524534",
"z  c #5B4432",
"x  c #554936",
"c  c #554739",
"v  c #564B3A",
"b  c #5B4D3C",
"n  c #57513D",
"m  c #5B513D",
"M  c #63432D",
"N  c #69442D",
"B  c #624733",
"V  c #684731",
"C  c #634936",
"Z  c #6A4B35",
"A  c #634C3B",
"S  c #6A4D39",
"D  c #66503F",
"F  c #6E513C",
"G  c #7E5439",
"H  c #334C42",
"J  c #345245",
"K  c #34544A",
"L  c #38544E",
"P  c #36594D",
"I  c #365652",
"U  c #365B54",
"Y  c #385C54",
"T  c #375C59",
"R  c #574F40",
"E  c #5B4F41",
"W  c #575140",
"Q  c #5D5241",
"!  c #645341",
"~  c #6D5441",
"^  c #6F5D44",
"/  c #625648",
"(  c #705643",
")  c #6F6249",
"_  c #75644C",
"`  c #78694F",
"'  c #7A694F",
"]  c #7A6B54",
"[  c #7F6D59",
"{  c #7F715A",
"}  c #840000",
"|  c #8B0000",
" . c #940000",
".. c #9D0000",
"X. c #821700",
"o. c #851800",
"O. c #8B1A00",
"+. c #911C00",
"@. c #A30000",
"#. c #AC0000",
"$. c #B30000",
"%. c #BC0000",
"&. c #972900",
"*. c #9B2B00",
"=. c #A32E00",
"-. c #A53200",
";. c #AA3400",
":. c #AF3B00",
">. c #B53B00",
",. c #B33D00",
"<. c #C40000",
"1. c #CC0000",
"2. c #D10000",
"3. c #D80000",
"4. c #B54100",
"5. c #BC4300",
"6. c #BF4800",
"7. c #BB5E00",
"8. c #BF6400",
"9. c #BD6C00",
"0. c #BE7000",
"q. c #84553B",
"w. c #89583D",
"e. c #C34500",
"r. c #C44B00",
"t. c #CA4C00",
"y. c #C65100",
"u. c #CC5200",
"i. c #D25300",
"p. c #C46400",
"a. c #C36B00",
"s. c #CB6D00",
"d. c #C37400",
"f. c #855C40",
"g. c #895B41",
"h. c #866243",
"j. c #896245",
"k. c #87664C",
"l. c #8A664B",
"z. c #806A4F",
"x. c #8D6A4D",
"c. c #95694B",
"v. c #926C4E",
"b. c #806D54",
"n. c #8C6B52",
"m. c #806E5A",
"M. c #936E52",
"N. c #817154",
"B. c #83735B",
"V. c #8A755E",
"C. c #85795F",
"Z. c #8A795F",
"A. c #947154",
"S. c #95735B",
"D. c #9B7759",
"F. c #A07452",
"G. c #A47D5A",
"H. c #857964",
"J. c #8A7C64",
"K. c #907D64",
"L. c #9F7D63",
"P. c #008300",
"I. c #CC8200",
"U. c #CC8B00",
"Y. c #94825D",
"T. c #988364",
"R. c #988964",
"E. c #908169",
"W. c #A08464",
"Q. c #A08964",
"!. c #A0846C",
"~. c #A38C6C",
"^. c #A78F73",
"/. c #A79573",
"(. c #AE9673",
"). c #AB9C73",
"_. c #AF977B",
"`. c #AF9C7B",
"'. c #B69E73",
"]. c #B69C7B",
"[. c #AFA27B",
"{. c #B6A37B",
"}. c #B69E82",
"|. c #AFA582",
" X c #B6A282",
".X c #BEA582",
"XX c #BAA886",
"oX c #BEA98A",
"OX c #C5B08C",
/* pixels */
"l v b c l l l l b E v v v v x k l v n n v v Q Q b n W Q b c v Q x v x k l l x v Q n l g v n x n x x v n v l l x l z b m D m m x ",
"] ] ' ] b.b.] ^ _ ' ' _ ] B.B.B.B.] ` { H.E.Z.] ] ] { H.H.] { H.] B.Z.H.H.B.B.J.J.J.Z.B.B.N.{ B.{ ] ] { N.] ' [ V.B.b.b.N.B.Z.E.",
"v b v l l v b Q Q Q Q b b Q m Q Q Q Q Q n Q n b R v v b v v l c Q n v l x c b Q c c R R v x c c v x v v c c c z l l x b x x b v ",
"= 2 < < , < < * * = * < < < * < * , < , 1 , < : , , < < , * , < < < - , < , , , = - = = 1 , 1 < = < 1 < , = , , , = = - = = = , ",
", : e e r y u i u i y r e r * < * < , = 2 * 2 * < , < , < * = < 2 2 = , < , = < = < < = = < 1 < = , , < , - , : 6 8 M N M 8 : * ",
"2 : e e t u i i u u y r r r : < , = = * < < < % , , < , < * < < 2 3 = < , = = < = < < * = , 1 < , , = , , - , : 6 8 N V w 8 : * ",
", : e e r y i i i u y t r r : < < * = * < 2 , * , = < , < : < < , 2 * < < < = < = < - % = = 1 2 , , = , < - , : 6 j V N M 8 & * ",
"* : e . r y i i i i y y r r : < < * T T T > , = , = < = , , < < = < = < < < * , < , = * < = 1 1 < < = , 1 - , : 7 M V M j 9 % * ",
"* : e e t u i u i i u y r t ; < < ; T T T & < = , , = * 1 * 1 , * < * < 2 - = , - * * * < * 3 2 < < * = 2 * < : h M S S z j & , ",
"* ; e e t y p p i i u y r r & = < & T T T & < < < , , , < * 1 < * < % < 2 , = = , < - = < * 2 < = < = < < % < & z C F F A z & < ",
", & e e r u p a p p i y t r : , < & T T T & , : 1 = , , 1 * 3 < & , % < < , * , * 2 - , < * < < < < = = < = < & b A F ~ A z & , ",
"< : e e r y i a p p i y t t ; < , % T T T : < % < = - - 2 * < < * , * < < = * * * - : o $ *.e.e.t.y.;.+.+ % , & b A ~ ~ A l & , ",
"= ; e e r y i i p p u y t r ; , < ; T T T ; < % < % = = < = < < = < , < < = * * = = ; O X.-.t.r.t.y.>.O.+ & , & A ! ~ ~ A c * = ",
"= * e e t y i i i i y y r t & , < & T T T % , = < % = = > 1.$.| | #.1.: = * & , < * ; O o.;.y.y.y.u.>.O.+ ; , & A ! ~ ~ A z : , ",
"= * e e t y i i i i y y r t ; < , ; T U T % * S.S.n.; = > <.@.| | #.<.: < < = < < & ; + O.;.y.u.u.i.:.O.+ : - % A ! ( ~ A z : = ",
", & e e r y i i p i y y r t ; < < ; I I U ; & S.M.k.: * : %...} } @.<.> < < < 1 < * : @ O.-.y.i.y.u.>.O.+ : < % b ~ ( ~ A z ; * ",
"< ; e e t y i i u u y t r r ; , , > P K P ; : n.M.v.> , : <.@.# # @.<.: < < < < , , > + O.;.y.u.i.i.>.+.+ : < & b E ( ( A z ; * ",
"= ; e e t y i i u u y t e r ; < , ; P K P : : v.A.x.& , : <.@.} } #.1.: < , * < , = : + O.;.y.u.i.i.>.O.+ : < & b A ~ ~ C z ; , ",
", & e r t u i i i u y t e e & < , % P J K > ; x.M.x.* 1 > 1.#.|  .#.2.: : * * < , * > + O.:.u.u.i.i.;.O.O : = & A A ~ S z h & , ",
"< ; r e t u i u u y t t r e : 1 , % P K J : ; l.v.k.& , : 1.#.}  .$.1.: , * % < = * ; + O.-.u.u.u.t.;.o.O : < & c A S C z h ; , ",
"< ; r e y u i u y y t t e e > 1 : : U K P & ; k.M.k.; = ; <.#.} | $.1.> < * & < = * ; + O.;.y.u.y.r.-.o.O : < : l C C j j h > , ",
", ; e e t y i i y t t r e e > < = : P K J ; ; k.n.l.: * & <.#.| | #.1.: < , % * < , ; + O.;.r.r.r.r.-.o.+ : < : h C C j j 8 > , ",
"* ; e r y u i i y t t r e e : < = * P K K ; ; k.A.l.; = & <.#.| | #.2.: < < * = = < : O O.-.r.r.r.r.-.O.+ & < : b V M j 8 7 ; < ",
", : e e t u i u y y y r . e : < = % K K K : ; k.n.l.& = : <.$. .| $.1.; , U.s.s.d.: ; O o.-.r.r.r.r.;.O.+ : < : C V j j j 7 ; 1 ",
", > r r y u i i u y r r . e & < , % P K K > : n.A.n.; = : <.#.| | $.3.: : U.a.a.0.; & O $ -.e.r.6.6.=.O.+ & , & A C Z M 0 7 * , ",
", > r e y u p i u y t t e e : = < & K I U : : V.D.S.: , ; <.#.| | #.2.: : U.a.8.0.& & O $ -.6.6.6.6.-.O.+ & , & z C Z V 0 7 ; , ",
"< : e r t i p p i y t t e r : , , & U U T ; * S.L.S.: , ; %.#.| | @.1.: : U.a.a.0.& & O o.=.6.6.4.6.;.O.+ * < & z B S Z j 7 ; < ",
"< & r r y u p i u u t r e e : , , & T T T & : S.D.S.; = ; <.@.} | @.<.: ; U.p.a.d.& : O o.-.6.r.4.r.;.O.+ ; < & h B S Z j 7 : < ",
", * r r y u i i i y t r e e : - = : T T T ; : K.L.K.: = * %.@.} | @.<.: : U.s.s.d.: : + o.-.r.r.4.6.;.O.+ : < * z A S S j 9 : , ",
"Q b v v v c l k k 5 5 l c E b v v x v b Q Q Q / / E E b n Q ! b b Q Q D Q / E E x b E b v v v n v v Q Q W W Q Q l v x v n v v v ",
"B.B.B.J.K.K.J.B.J.H.{ H.B.H.B.B.H.B.{ B.{ [ { B.B.B.] ' ` ` ] b._ _ z.m.m.] _ ^ ] Z.J.C.{ B.{ C.] { J.C.{ { { B.H.B.B.B.H.H.J.J.",
"_._. XoXOXoX}./.!.D.T.R./._.].}.}.}.`.}. X X XoX X X.XoX.X(.~.T.W.T.~.^.W.W.~.]..XXX X/./.[.XX|.{.~.T.R.{.XX).T.T.R././././././.",
"T.~.(.].}.{. X X'.'.{.{.].{..X.X(.].].].(.^.~.R.R.Q.~./.).]. X X].R.Z.~.{._.R.R.oX X`./.`.XXOXOXoX`.~./. XoX X}.~.~.R.!./.}. X_.",
"B.b.] ] ] B.B.Z.J.J.J.Z.Z.Z.B.b.' _ _ _ b.m.m.[ B.C.J.K.J.C.B.B.H.Z.{ B.C.{ { Z.B.{ { { C.H.C.C.] ] ] ] _ _ ' { H.{ ] _ m.H.H.B.",
"m v l k l l x c l l k l x n b n A b v c c z x c b Q Q n v v b v m ! Q Q Q n n Q Q Q ! E n b b v Q v v E Q Q Q Q v Q ! Q Q Q ! c ",
", = , < , < , = 3 < < < < , , < < * < < < 3 < = * , = , , < , : = - < = , < , 3 , , , < 1 1 , = < 2 = = 2 < , , = = < * 2 = < = ",
", = - < 1 - , = < < < < < = * < < * < 3 : z B S A z 9 : , < < , = = < = = < , 1 - = < < 2 < = = 2 : . . r y u u i i u t e e > * ",
"< < - 2 , < , = < < < , , - * < < = < 1 ; z B S S B z : , < < , * = 2 * * < , , - = , , - < = = < :     r y i i i p i t e e ; = ",
"< , = , 2 , < , < < 3 < = , = < < , , < : z B S S A 0 & * , < * = * 2 - : , , , < * = < = - = * 2 * . . r y i i p p u y r e : = ",
"< 2 = < , , 2 , < , 3 < = = < = = < = < ; z C S S z z & * 1 < * - % , 1 = < < < 2 = : Y I Y * * < : . . r y u i i p i y t e : < ",
"- = < - = , 2 - , 2 < < = = < < < = = 2 : 9 z S F C B ; = < , < < , = 2 , , < < : , ; T I K : * < : .   e y i u i i u y r t > < ",
"* - < , = , - = - < < < , = < = = , , < : z B F F C z : , < , < 2 < = - , < 1 , = , ; U L K : , < : . . e y u u u u y t e t : < ",
"% , < , , = * , = < < 2 < = < - % < 2 < ; 9 C S F A z : , < < < < < < = * , 1 , * = & U L K > , < : e . e t u u u u t r e r : * ",
"% 1 , - 1 - = : O X.*.e.5.>.>.=.X.O : , ; z B F F S z > , < , : , < , , = , < * * , % Y U U * 1 , ; e . r r y y u y t e e e : * ",
"= , , = - < , : O $ &.>.e.,.4.-.o.O & < : 0 z S F C z > = < < , , , < < = = < * , < & U I Y * < * ; e e e r y y u y r e . e : , ",
"= = , , * = 1 * o $ *.5.e.5.4.*.o.O & < > 9 B S F C z : & <.@.| } #.<.: - = < - = 1 : Y Y Y : 1 * % e e r y u u u y t e . e ; , ",
"- = < , * , < * O $ =.e.e.5.4.*.X.O & 2 : 0 0 S S C z > & <.@.} } @.<.; = * l.A.v.: : Y Y Y : 1 = ; e e r y u u y y t r . e ; , ",
"= , < < = , , ; O X.=.e.e.5.4.*.X.O : 2 : 9 z Z S B h : & <.@.} } ..%.; = & j.x.j.: : L I Y : < < : e e r y u u y y r e . e ; < ",
"- * = , , 1 < & O X.=.e.>.e.5.*.$ O > < ; j j M V M j ; & %...} # ..$.; - : q.w.g.: : J L P * , < & r e t y u u y y r e e e : = ",
", * = < , , 1 * O o.=.5.e.5.5.=.$ O : , ; 9 M V B j 8 ; & %...# # ..$.& , > q.w.g.; : f H J ; 1 < & e r t y u y y y t e . . ; * ",
", * = < , , < : + O.=.e.e.e.e.=.o.O ; , > 7 M N N 0 7 ; & %. .# #  .$.& < > q.q.G & ; f H J : , < % e r y u i u y y e e . . & , ",
", , , , , , < ; + O.;.t.t.e.t.-.o.O : < > 7 0 N N 0 6 > ; $. .# #  .#.& , : q.w.G ; * H H J : , < & r r t u i y y y r e . . : , ",
"= , < < , < < & O O.=.e.e.e.5.=.$ O : < : q w N N q 6 : : $. .# #  .$.; = & w.j.g.; : f d f : , < ; e r y u u y y y r r e . & = ",
", < < , , < , % O X.=.6.>.5.>.&.$ o ; , : 6 q N w 8 4 > : $. .# @  .$.: = & c.F.v.; ; d s d > < < : r r t u i u y y t r e e & = ",
", , , , < , , & O X.=.5.5.5.,.*.$ o * = : 6 8 q q 8 4 : ; #. .# # ..%.: * & c.G.D.; & d X s : 1 < ; r r y u p u u u t e e e & * ",
", * I.8.7.9.: : O X.*.5.5.5.,.*.$ O ; , & 4 8 M w w 6 : & $. .# # @.<.; = & v.T.A.; % d X s : < , & t t y i p i i u t e . e : = ",
"< : d.p.8.9.; & + o.=.6.5.4.4.*.$ O : , & 7 0 N V V 9 ; & %.@.} } #.1.& , & A.G.v.> : J J J > , % : r r u i a p u u y e e e : = ",
"< : I.p.p.a.; ; + O.=.5.,.4.4.&.X.O : < ; 7 j V Z M 0 : & %.@.} } @.<.; < & x.D.x.: ; J J J : < * ; e r y i p i i i y e . . * = ",
"< : I.s.p.9.; : O o.=.4.:.4.,.*.X.O & 1 : 7 h Z F V j : ; %.@.} } @.<.: < ; x.F.h.: ; J K P ; < * : e r y i a p i i y e . . * , ",
", * I.p.p.9.; ; + o.=.4.:.,.,.*.$ O & 1 > 9 z F F B h : ; %.@.} } ..%.: , > v.v.h.; & J J U : < , : r y u p P.a i p y r e . ; < ",
", : I.p.p.9.: * + O.=.5.4.,.4.*.$ O & , : h z F F B h : : %.@.} } ..%.: < > c.c.w.: * K K P : < = : t y u p P.a i p u t e e * < ",
"Q Q ! / Q Q v v / Q v v x v x c l k l g h x m m l l h l x v b c Q m b v b v v x Q b Q Q v b n D c x c v Q Q b x b E Q ! E c v m ",
"C.Z.J.J.J.{ B.C.B.b.] ] z.' b.b.B.] ] ] N.b.N.Y.Z.B.N.N.] _ ^ ^ B.b.' ` ' B.B.J.] m.B.Z.] ] ] B._ ) _ ] B.H.N._ b.B.H.[ b.b.] [ ",
"Q v k l n / n k g l b Q v z c v Q x c m Q x g l n m Q m v z l c c c c b b m b b v h 5 5 c c c x v v c z x v b v v b b b v b b c "
};
