/* XPM */
static char *Coal[] = {
/* columns rows colors chars-per-pixel */
"64 64 18 1 ",
"  c gray23",
". c #3E3E3E",
"X c gray26",
"o c gray27",
"O c #4B4B4B",
"+ c #4E4E4E",
"@ c #535353",
"# c #555555",
"$ c #5A5A5A",
"% c #5D5D5D",
"& c #606060",
"* c #676767",
"= c #6A6A6A",
"- c #6C6C6C",
"; c gray44",
": c gray46",
"> c gray48",
", c gray50",
/* pixels */
":-&@+@@@+#@+O@%+++++OXoX. .oO+##$@@####@@+OOO++o+$oOOoOO+++@++%>",
"&$@@+++@@@@+O+#@OOOoo..XXXoO+O+&##@@+++##+OOOOooX.oO+oOO+O++OO%-",
"+@+OO+++++@+++++OOOoXXXXXXo+OO+##@+OO+@#@+OO+ooXooOOO++++++ooo@&",
"#+OOO+OO+O+++O+OoOooXoooOOoOOO+##+OOoOO++OoOOoXoOO+O++@+++OoOO+#",
"@+OooOOOOO++OOo@O+OooOoOOoOoO@$@@OOOOOOOOOOooOOOOOOO+@@#+OOOOO@@",
"++OOOOOO+@@++O++##OOO%OOooooOO&;+OoOOOO+++ooXoOOoOO+@+++OOOOO@@#",
"++OOoOO+@@+OOOO@#@++OOOooXXoO+#&:ooOOO++++OoOO+++OO++@++++@@+@+@",
"OOOoooO@++OOO+OOOO+OOOoOOoO+@@@$-ooOO++@@+O++++@OOO+O$O+O++#+@++",
"+#&&.OO++OOoO*&+@@#OOoOoOOO+@+++%oOOOOO@@++@+++++@#,*$@+O++#@O+O",
"+O@&%oo+@OOo$%+o+++&%+oOoOO+++OO+OOOOOO+@@@++++@###%@@++oO+++O+O",
"+Oo+#%@O+Ooo#+oO++O@%&OOOOoOO++OOooOOOO@@@@+OO@##@%&+@+OOO+@+OO+",
"OoXXO@*=@Oo++oO+@+oo@#@oOooOOOOoOoOoOO++++@+O@@@@++$#OOOo+@+OOOO",
"ooOOOO$-;O+@OO+@@Ooo++@OOOOOO+OooOOXoOOO+@+++@@+OOo+@%*OoO@++Ooo",
"+++OoO@$+O+oOo++@OOO+O++@OOoOOooOOOoooOo@#+++++O++OoO#=-OO+++OOO",
"###@+OO#OO@o+++@@@+OO+@@@OoOOO+oOOo@+oOOO++@+OO+@+oXo+$=o++@+O++",
"####+OO++++++@+#@@+O#+++OOoOOOOO+OO+$$#+++@@+OO++++oOo+$O+@++@@#",
"##@+O+OOO++@+@@#@@+O#$++oooOOO+@@O+oO@&&++@@@OO+O+++oO@OO$$+++@@",
"++++Ooo#+++@@+@#@@+O+$$ooXoO++@#++OOOO@&+@@@OOOOOooooooO+%#+O+++",
"Oo+oOOO+@#+++@@#@++O+#=OoooO@@@+oOO+Oo+%+@@@++OOOoOoXooO%$@OO++O",
"oo+OOooo+#O++@@@@OOO+#*:O++#@@OoXoOOOo+#+@++O++OOOOo+#%O%#+O$&+o",
"ooOOOooo+#OO+@+@+OOOO@&:OO+#+OoXXo+OOO+++++#O+OOoOOO+@$%$@++$%+O",
"oO+OoXooO@O+@@+OOOoooo#*&O+##OOXXoOO+OO++@++oOOOoOoO+@%&@O%++#+o",
"O+++OXOOO+####OoOOooXX+#XoOO$oo.XXo+O+OOO++OOOOoOO++#$#O#$&$O+OO",
"+@#OOXOO+@%##@OOOOoooX.XoOOOO+oX.oo+++OOO+Oo+Oo+XoOOoXOO+@###ooO",
"@@@OoOOO+@@#%$OoOoooOoXXO+OoOOo..Xo++@O++OO$&@oooooOXOOOoOOo##++",
"#@+OooO++@+@+@@%%@OoooXoOO+O+Oo..oO@+OOO+O+$+++Oo.XoooOooooO@&+#",
"@+oooOO+@@+OoOO*+O+++ooO+O+%ooX.XO+#+++OOo$+O+OooooooooOOOoO@&:#",
"+OoOOO+@#@OOOO@%++@#+OOOOOO#&..Xo@##@+OooO#+++OXooOOoOOOOOOO+$=:",
"%ooO++@@@+%=-@++++@@+OO+++o+&#OO@@$#@OooO#&&+OooOoOXXOOOOO@oO@%;",
"&oOOO++@@#%*=**%@OO+OOoO++Oo+=&#@@@@OoooO+@&%@OO+OOoO+OO+@#@+@O#",
"oo+++@++OO@@###@&*+oooO+++++#$:#+++++oO+O+@@#*=++++++++Oo+O+O@Oo",
"O+@@+@++O+OO++++#%XooXOO+++@#$*,+O@@OO+++@@@+$-*O+++@+OOoXoo+$%@",
"$@####@@@+OOO++o+#XOOOOO+++@+@%>:=&@+@@@@##+O@%++++OOXoX. .o++#@",
"##@@+++##+OO++oXXXoOOoOO+OO+OO$-&$@@+++@@#@+O+#@OOOoo..X.XXO+++&",
"##+OO+@@@OOO+oXXoOOOO+O++++ooO+*@@++O+++++++++++OOOoXXXXXXoOOO+#",
"#+OOoOO++OoOOooooO+O++@+++OooO+@#+OoOOOOOO@OOO+OooOoXoooOOOOOO+#",
"@+OOOOOOOOooOOoO+OO++@@@@OOoOO@#@+OooOOOOO++OOO+O+OoXOOOoOOoO@#+",
"+OooOOOO++OoXoO+oOO++@++OOO+O+@@+++o+OOO+@@+OOO+$#+OO%oOoooOOO*-",
";OOOO++@@+OoOO++OOO+++++OO+#@@@++O+OOoO+@++OO++@#++++OOoooXoOO#*",
"-oooOO+@++O+++O@OOO++$++O@+#+@++OOOoXoO@@+OOO+OOO+++OooOOoo+@@@$",
"%Oo+OOO@@+++@++++@#,*%@+O++@@O+O+@&&XoO+++OoO*&++@#OoOOoo+++@+@+",
"OOOOOOO+@@@@O++@#@#%@+++OO+@+O+O+O@&%oO++OOo%%Oo++@%&+oOoOO+++OO",
"OOoOOO+++@#+O+@##@%&O@++oO+@+OO++Oo+@$++@Ooo$OoO++O@%&oOOOOoO+OO",
"ooOoO+++@+@O++@@@++$#OOOO+++OOOOOoooO@*=@Oo++oOO@+Oo@$+OOooOO+oo",
"OoOooOOO+@+++@@++Oo+@&*Oo++@+oOooOoOo+$--O@@oOO@@OoO++#OOOoOOOoo",
"OOOoooOo@#++++++@+Ooo#=;OO+++OOO+O++oO@%+O+oOO+@++oOOO++@OOOOOOo",
"OOo@+oOOO++@@OOO++XXo+$=o+@++O++####@OO#OO+oO+@@@++O+++@+OoOOO+o",
"+OO+$$#O++@@+oO++++oOo+$O+++@@@@####+OOOO+@++++##@++#O@+OOOOOOO+",
"@+OOO@%&@+@@+OO++++OoO@OO%$+O+@@#@@@+OOOO+@+@@@#@@+O#$++oXOOO++@",
"+OoOOO@%+@@@+OOOOoooooOoO$#+O++++OO+OOo#O++@++@##@+O+$#OoXooO+@@",
"oO++Oo+%+@@@+++OOOooXoOO%$#OO+OOOoOoOoO+@#O++@@#@++O+#-Oooo+@@@+",
"XoOOOo+#+@O+O++OOoOOO#$O%#+O%&OOoo+OOooo@#OO+@@@@OOO+@*:OO+#@@+o",
"XXO+OO+++@+@OOOOoOOO+@$&%@++$$@oOoOOOoXo+@o++@+@+OoOO@&:OO@@+Oo.",
"ooO++OO++@++OOOOOOoO+@%&@O%++#OooO+OOXooO@++@@+OOOOooo$*&o+#$OOX",
".XoOO+O+OOOOOoooOo++#$@O@$&$O+oOO+++oooO++#@##OooOXooX+#XoOO#oXX",
"XXO+++OOO+OO+OO+XoOOooOO+@###OOO+@#+OoOO+@%##@+O+OoooX..o+OO++o.",
" Xo+O@++OOO$&+oooXoOXoOooO+o##O+@@@OooO++@@#%$Oo+oooOoXXOOOo+Oo.",
".oO@+OOO+O+$@++OO.XooOOoOooO+*+@#@+OoOO++@+@+@#&%@OooXooO++O+Oo.",
"XO@@++OOOo$+O+OoooooooOOoOOO@&:#@+OooOO+#@+OOoO&+++OOooO+O+%OXX.",
"o+#@@OOOoo#+++OoooOOoOOOOOoO+$=:OOooOO+@#@OOOO@%++##++OO+Oo#%..X",
"@###@OOoo#*&+OoooOooooOOOO+oO@%;&ooOO+@@@O%==@+@++@@+Oo++Oo+&#OO",
"@@@@+oXoO+@&&#OO+OOoO+O++@#@+@O@&oOOO++@@#&*==&%#oO+OOOO+++o@*&@",
"@O@+OoOO++@@@**++OO+@+OOO++++@+ooO+++@@+OO+@####&*+ooOo+++++@$;$",
"OO@@+O+++@@@+$-*++++@OOOoXoo+#%#o++@+++++++OO@+O#%XooXO++++@#$=,"
};
