/* XPM */
static char *Dirt[] = {
/* columns rows colors chars-per-pixel */
"64 64 87 1 ",
"  c #4F3311",
". c #523614",
"X c #563816",
"o c #5B3A15",
"O c #563B1A",
"+ c #5C3D1A",
"@ c #613E15",
"# c #603F19",
"$ c #5F401D",
"% c #644117",
"& c #6E4516",
"* c #63421C",
"= c #6A461B",
"- c #6D491E",
"; c #704614",
": c #744916",
"> c #794C16",
", c #734B1C",
"< c #7A4E1B",
"1 c #7C511D",
"2 c #5E4324",
"3 c #644521",
"4 c #684721",
"5 c #664926",
"6 c #6B4A24",
"7 c #674A28",
"8 c #6C4D29",
"9 c #724D23",
"0 c #784F20",
"q c #714F2A",
"w c #6D502E",
"e c #765125",
"r c #7C5324",
"t c #74522B",
"y c #7B562A",
"u c #7D592C",
"i c #715431",
"p c #785731",
"a c #7C5A33",
"s c #84541D",
"d c #88571D",
"f c #8A581E",
"g c #905C1E",
"h c #825623",
"j c #885720",
"k c #855925",
"l c #8B5B24",
"z c #815728",
"x c #835B2B",
"c c #8A5E2B",
"v c #905E24",
"b c #835E32",
"n c #885E30",
"m c #8E612D",
"M c #946125",
"N c #986427",
"B c #93642D",
"V c #9A662A",
"C c #97682F",
"Z c #9C692E",
"A c #856035",
"S c #8C6333",
"D c #876238",
"F c #8C663A",
"G c #8F693C",
"H c #926632",
"J c #956935",
"K c #9A6B35",
"L c #946B3A",
"P c #9A6E3B",
"I c #9E713D",
"U c #A16F36",
"Y c #A3743C",
"T c #AA773D",
"R c #AA793E",
"E c #956D40",
"W c #9C7242",
"Q c #A27643",
"! c #A57945",
"~ c #AB7B44",
"^ c #A77B48",
"/ c #AB7E4A",
"( c #B07D43",
") c #AF8046",
"_ c #AF814C",
"` c #B78243",
"' c #B58349",
/* pixels */
"WaaaGap257882txcBx+y1rlh$1fff>>:;ss>>:h=<kr+r$lmS33KmAR~!YLpDW!W",
"__^WP8batHYHyxn66yemmlr=Xdlgg>;>>>>ss::<%$*-l6q*33eYe8FI!II8iW/_",
"/WD!~aa~DKYUSu3yyk9lMk1$.s1fd&o>>&ssdd#*=*,NBryxmHxKAtGJIIF7p!_W",
"EDiaFFD~aPKPttO494%yhr1-odosd>o::.sddd@,=rkBmklBUKJJKAJHAtADaEEE",
"DaiDFFnP8KFHeqe3-O.o*rr<o= >d1o%:.ds>=@o..+*99BBHCmuHbPPAaWFEEaG",
"EawWWPLt8JKmuxmBCmy*X*jh*%X-d1oo% Xo X&lr<*o.O9ryBHKJSIYAAIFDawp",
"Ep28pDDFnt83xUJmBZr*,,jr,o-=%oX%dd1s=<sllvl=*-yqxxmJHSIPAuJAAawD",
"PGFAt~(YYLttJBJmBmr=ees11X1s:%%,llMjfjvMll,9kBlrkycSue5pSSI~)'pW",
"IJLF5JIYYYx6xJBmmm-,krykrosMM=%rlMvlllMjkr,lVBCBB6$$358uDGLAtw8G",
"IFJJ8PPJHPStScxxxmyhBlj1=XhMM*+jlljjljjhkrrVBBclmJmx3uJYJxtuwtu6",
"F8yb5SmFHuycBme*8kzllkr-**lZl<orcllr<*,<-*-BBmxyymmHSumJSuLYILJ8",
"m8AKxSFut3DKKKmyllzyxlkro*1B9-*++*-h*Orhr**kxllxkBJmSSeAe3SKIIS8",
"3tJSmHJu5eHHKKmyBJkrlmlr+*rB6*%zky9yo*BZMe9yee$O6mmmummPBAuteAt$",
"AcxxSKBmqtmHSHm*ymkexlx6$-*l9*exzr9*.hZZMykkkhe$ummxtumHmum9em68",
"yuxnSHBmyxBHmxH4lx9$yBBk6ryk94qmBmr*O9lBlxx6*ee3xBSm6953*3*5$ymu",
"uxyucyxxkmuxmmxyy93OkBBmlkxB3k*xBmr*344mmlykymlyy43uy*eymmyy2x6S",
"kxr33494ylyHBy*yymx6kxlBkmmmeS*mmmy-43+cmmrxySBxemymy9rmBBJmmy8B",
"xx9**9r39clxxxqBmmxxumB8uxmm8B233y*Oqe5cHxrkecmSemmmk9*mBKNrelku",
"$6rx9Oz4+*339xrKmmxx6ey*SmBm6xe4uSuummy=$6cqxxxcykxmx6*-rrBq-xe+",
"rlBc9 rlz****m*eyexy2xm2JmHxxKYx8yxHHJSytmB8yxxzxye*$O*9=*l+O9e*",
"vCZB*OhcNcl*+c9ry-q8yKm3xHHITYTYx88KHJyx3yxu*6yCBy4$*6hk<$*-erzr",
"clBk+=lNVh-*o69qe6xmIUY38KJR`RRJu83SxS88bJJKxqBHBB**lllr9*-hhrjh",
"kk<=X9lVBr*%**3re44SHKJ88KuIRRYL8a5SAStxbJTJtyxccm**xVlrhrlrr<rr",
"90-o.<lNVk-hcclcy43txxby8w5SJYLI3i3355a5yKYS4qzxk6+rrllkrsh<=%=r",
"%hl:o,kkll<rcBBcx34ymJA58AAADa582aatatFqqKPSxJKz4**o+#-r<,*ooXX$",
"=jM<@<srsr++kBc-$*uSAAAeHaSytLAayWIWQL!x8KKHSHKlyylBk*XoXoo%oXXo",
"%1jd==orjv,*ck944*mJJmwqL))WAGWEPLPP!EIA5aHSHHBS4yBBllh,,r=1d=%%",
"osdd<o@llkz=#9+3t4xJCAu5b)!'G77pEQW/~Qyt576xSHmm=*cvBk9+,j11s11d",
".<sdsoo1hkh0o4#4*3BHJSq5tIW!LaiaaEW!!W8DJPLJx49q33969j-odddss1&<",
"o%ss>oo<krr-99zyxyKA8252aILGE^Wa7wEiww2yLYIYHxxur4+#,B<=1&>s>&@@",
"@oo  .o<drl*90xcmy5t86uwptwAGiiiwi!WFaa7LYYPtSuxxz9*#*#%@Xooooo@",
":@@::@o,h9l+43xmm28mYYIRIAaGG7waaiaaAFa7PPJL5nyxxx4vclkr%%oo o@:",
";ss1:,s=<kr+r*mmS**YmSY~!QLiDW^WEaaaEai278882txxHz+yrrkh$1fff1>;",
">>>s1,,1*o*6l66*3*tYw8GIRWWwiW____/EEwaatHYHuxc68zevMlr-Xfffg1;>",
">;ssffo*=*,NByrymSxKAyGJIIG7iW_W/WEW!aa/DKUISu3yyk9lmk<%.h1ff;o>",
": sddd%>=rjBmkmBUKKHPxJSAwDFaELEEDwaFFF~uPKPteO46=*zk1e-odosd>o:",
";.ss>=$o..+*9emCCCmuJAJIAuWFFLAGDAiDFFDLwJHHw8e4-O.O=9r1o= <d1o@",
"%.oo X&l1<*X.O9ryBJJJSIYAAIFFawpFa8WWILt7JKSummBBmz*o*jh%%X&s1o@",
"dds>=>slllM**6rekxmKHSKIAaLDAatAWp58yDAHmt83xIJmJZr*,6jr,o-=%o.%",
"fvMfdhMMMj,ekBlrxtmmx88tSSI~)'pWEFFbt!`IYGteCBHmBmr=e<h11X1h>@%:",
"lMvlllvjk1,MNBCmme2$34wyAJLDtw8SILLF5LPYYYx6AKBmml4,lrrkrorvM=%r",
"llkjvjjhkreVBmmlmBmx3aPYSbtyweu5ILHJ8PKJLLmtxmxkcMyzBljr-XdMv%ok",
"Mll11*,e-=-MBmxzymmHmymJSyKYPKK8F8yb8SSSJutmBmy*8kzllk<-$*lZl,*r",
"+*4z=Xehr**lklxxyBCmSGtxt5mIIIS8SqxLxHSut3SPKKmyxlzrckkr+=rMr-*o",
"kr,rO$BVme,yee$O6mmmumSKHxueeSt23tJFmHJx4tHHKKByJCkrlBlr+*rv6**y",
"xr9*.kZZMyyhxke$umHxexmHmxA8tm88ncxxSJHx8tmHcBm3yBkexlz6+6=c9$9l",
"Bmy*+9lBmxk6*ee3xBBS684333343txxyyxxHHBByxBHcxH3mkq$ymBz9rrk949l",
"mmy4*44clMyxemmye4*yy*eymmue*x6muxyxcyxxkmyxHcxyy6*OxBNBxzxB4x3x",
"lmy4=3+xmBekymmxrcycyqyBBCCBmy6mxly3*-e4xlyBmy4eymu4xxxmklBmeB4m",
"5y3Oqe4mmxykemmHtcBcz0*ccZCeemkxxy9$*9y$6clxxueCmmxxxmC9uxSm6S23",
"uSyummx*24xqxxxmyzxcc6*4rrB93xeO$6ekeOr-$*33rkeCmmxx4ey$SmHm8xe3",
"euxHHJHyemH8yxuucz03+o*94*l++,e*rlBme.rky**$*m*eyrxu2xm2KmHxuKYx",
"u86KHJyu4ucu*8xCBy4#*-zk9**-erkymBZB*XhBNBk*$k6yy4w6uJm3xHHITYTU",
"u83SxS8txLHKxeBmHB#4cllr<+-hhhjrkBMl+*lVNy-*+6e9e6xmUYY3tJHR`TRJ",
"8a5DDntabJYJeyxmcc*%kBlszhlr1<rrkk<=X9lNVr*=**3ey46BBJJw8KuI(!RL",
"5t3556p6yPYS48yxz9+rrlkk1rs1-*=r<0-O.<lNNk=rlmmmy*$txAxuw83SJYJI",
"2aatbtFt8PPSxJKk4#++##-r0,=oo o@*rl,o,kkll<rlCBlx*4ySJu58nAbAu77",
"pIIWYLYb8PKHmHKxrzcBk%Xoooo@oo.o=dv1*<s<rr$$kmm4$3uHmSAySaSawIAa",
"LLPWQPWb3uHSHJBB6yBBclh,,0-<d&@@%<jd==+<jM,*lke433xJJSwtJ)~!DFWL",
"L!W~^Qpt585bSHSc4*lcBl,+,k<ss<>sosdd<o@llhh=$9+*y3mJJuu5b)!'F78a",
"aEW!QW8bJILKz6893#999j-ojddsss@s.>ddsoo1hjyrO-$**2BHKS85tWE^Lata",
"8iDiiw5pLTPPHxlyy4+*-B,-1=<ss;@@o@ss<oo<jrr-91yexyKx8353aWLEE^Wa",
"wi!WFap5LYYPtnuxcz93#%@#@XXoooo@@oo  .X<jrl*9exmmy8t86pwuw7aEwii",
"aiaabFa8PLJL5Syxzx4cvckh#@@o o@::@@::*o9rrl+3*kmA-8AYIYQYDaDEwwa"
};
