/* XPM */
static char *GemOv1[] = {
/* columns rows colors chars-per-pixel */
"64 64 67 1 ",
"  c #6A6A6A",
". c #6C6C6C",
"X c #6D6D6D",
"o c gray43",
"O c gray45",
"+ c gray46",
"@ c #767676",
"# c gray47",
"$ c gray48",
"% c #7C7C7C",
"& c #7D7C7D",
"* c #808080",
"= c #818282",
"- c #838383",
"; c #848484",
": c gray53",
"> c #888888",
", c #8B8B8B",
"< c gray55",
"1 c #8E8E8E",
"2 c gray56",
"3 c gray57",
"4 c gray58",
"5 c gray59",
"6 c #989898",
"7 c gray61",
"8 c gray62",
"9 c #A0A0A0",
"0 c #A2A2A2",
"q c #A5A5A5",
"w c gray66",
"e c #A9A9A9",
"r c gray67",
"t c #ACACAC",
"y c #AFAFAF",
"u c gray69",
"i c gray70",
"p c #B7B7B7",
"a c #B9B9B9",
"s c #BBBBBB",
"d c #BCBCBC",
"f c gray75",
"g c #C0C0C0",
"h c #C3C3C3",
"j c gray77",
"k c #CACACA",
"l c #CBCBCB",
"z c #D1D0D0",
"x c LightGray",
"c c gray83",
"v c gray84",
"b c #D8D8D8",
"n c gray85",
"m c #DCDCDB",
"M c gainsboro",
"N c #DDDDDD",
"B c #DFDFDF",
"V c gray88",
"C c #E6E6E6",
"Z c gray91",
"A c gray92",
"S c #ECECEB",
"D c #ECECEC",
"F c gray93",
"G c #EFEFEF",
"H c #F8F8F8",
"J c #FBFBFB",
/* pixels */
"@@@@@@@@@@@@@@@@@@@@@@@@@@@@@@@@@@@@@@@@@@@@@@@@@@@@@@@@@@@@@@@@",
"@O   XXXX X X XX XXXX X X XXX  X XX X XX XXXX X X XX XXXX X   O@",
"@ =@$@@@@@@O@O@@@O@O@@O@@O@@@@O@@@O@@O@@@O@O@@O@@O@@@O@@@@@$@% @",
"@ @:::::::::::::::::::::::::::::>::::::::::::::::::::::::::::$X@",
"@X$:::>:::::::::::::::::::::::::::::::::::::::::::::::>>:::::%X@",
"@X@:::$$$$$$$$$$$$$$$$$$$$$$$$$$$$$$$$$$$$$$$$$$$$$$$$$$%%=::$X@",
"@X@::$3:>>:::::::::::::::>:::::::::::>:::::::::::>:::::>::%::@X@",
"@ @::$:566665655665665665556565655665555665665665556565662$::@.@",
"@ @:>$>666666666666666666665666566666666666666666666666661$::@.@",
"@XO:>$>6651>1>>1>11>>1>1>1>1>1>1>11>1>>1>11>>11>><<<<>466<$::@.@",
"@X@::$:56185866665556565666566556556566665565555666666166:$::+.@",
"@X@::$:66>5eeeeeeeeeeeeeeeeeeeeeeeeeeeeeeeeeeeeeeeeee7166:$::+.@",
"@X@::$:6518eeeeeeeeeeeeeeeeeeeeeeeeeeeeeeeeeeeeeeeeee9<65:$::+.@",
"@ @::$:56>6eeq868868688888868868688886686888868878qee7<66:$::+.@",
"@XO::$:6616ee8tqteeeeeeeeeeqeeeeeeeeeeeeeeeeeeetwq8we5:66:$::+.@",
"@ @::$:66>6ee6qadaaaaaaaaaaadaaaaaaaaaaaaaaaaaaaar8ee6<65:$::+.@",
"@X@::$:5615ee8taaddaaadadaddaadaaddaaddaaddadasaau9ee5<66:$::+.@",
"@ @::$:56>6ee6edaattutttttttttttttrrttrttrrrrrpdar8ee6>66:$::@.@",
"@X@::$:5615ee8eaataagdddaadddddddddddddadddddpuaaw7ee6<66:$::+.@",
"@XO::$:66>6ee8qaatallllllllllllllllllllllllllfrsaw7ee6>66:$::+.@",
"@XO::$:5615ee6eadudlllllllllllllllllllllllllljuaae7ee6<65:$::+.@",
"@ @::$:66>6ee8eaatdlllgdggjjjggdgggggggggglllgrdae7ee5<66:$::+.@",
"@X@::$:5615ee8eaatdllgznvnnvnnvvvvvvvzvbncglldrdaw7ee5<66:$::+.@",
"@ @::$:66>5ee8eddtdlldnBBnBBBBBnnMBBMBMMBnglldtade7ee6>65:$::+.@",
"@X@::$:5615ee8eadtdllgvBnnBBnBBBBBBMMMBMBbflldrdaw7ee6<66:$::+.@",
"@XO::$:56>5ee6qaatdllgvBBBBnBBnBMmBBBBBMMvgllsrdaw7ee6>65:$::+.@",
"@X@::$:66>6ee8eaatdllgvnBVDCZZDZZDZZDDBMMvgllsradw7ee6<66:#::+.@",
"@ @::$:6615ee8eadtdllgzBBBDDDDGGDDDDDDBBBvgllsrdaw7ee5<66:$::+.@",
"@ O::$:5615ee8eaatallgvBnBZDGDDDDGGDDDBBMvdlldrdaw7ee5<65:$::+.@",
"@X@::$:66>6eq8eadtdllgvnnBZDDGGGDGDGDZMBBcglldradw7ee6>66:$::+.@",
"@ @::$:66>6ee8qaatdllgvBBBCGGDJJJJDGDDBMMvglldrdaw7ee5:66:$::+.@",
"@X@::$:5615ee8eadtdllgvBBnZGGDJJJJDGDCBMBvglldrdaw7ee6<65:$::+.@",
"@.@::$:66,6ee7eadrsllgvBMMZGDGJJJJGDGZBBMvdlldtdae8ee5166:$::+.@",
"@.O::#:66,6ee7wdprsllfcMBBDDDGJJJJGDDGBMMvgllatade7ee6:66:$::@.@",
"@.+::$:56,6we7wpdrsllgcMMMZDGDGGDDGDGZMMBvglldrdaw7ee6166:$::@.@",
"@.+::$:66,6ee7rpdrsllgbMMBZGGGDGGDGGDCMBBvglldraaw7ee6>66:$::@.@",
"@.@::$:66,6we7wddudllgvMMMDDGGDGGGGGGDBBMvdlldtaae7ee5:65:$::@ @",
"@.@::$:56,6we7waardllgvMBBDGZZDZZZZCZDBBBvglldtdae7ee5165:$::OX@",
"@.O::$:66<5we7eadrsllgbMMBBBMMBMBMBMMBMBMbglldtdae8ee5<66:$::@.@",
"@.@::%:66:6ee7wddrsllfvMBMBBBMMMMBMMBBMMBnglldtaae7ee6:65:$::@.@",
"@.@::$:66,6we7wpprdllgbMMMBMMMMBMBMMBBMBMnglldtaaw7ee6166:$::@ @",
"@.@::$:66,5we7wdaudllgznbbvvvbcbvvvvvvvbbzglldtdaw7ee6>65:$::OX@",
"@.@::$;66,6ee7wadudllljghggfgdgggdggggggjdlllgtdae8ee6>66:$::@.@",
"@.O::$:66,6ee7waprdlllllllllllllllllllllllllljuaae8ee5166:$::@.@",
"@.O::$:56<6we7epdtplllllllllllllllllllllllllljudae8ee5<65:$::@ @",
"@.@::$:66<6we7wddrpghfdsdddssdddadddddddddgjgptaae8ee6:65:$::OX@",
"@.@::$:56<6ee7wsapruurrrrurryrrrttttttttttuuutpdar6ee5:66:$::@.@",
"@.O::$:66:6ee7rpdadaddpdpdddpddpdadaaaddaaadadaaap8ee5165:$::@.@",
"@.@::$:66:6we7wpdpdpdsdpdpdspdsddsdpdpdspdpdpddpau9ee5<66>$::+.@",
"@.O::$:56<6ee9qrurwwwwwwwwwwwwwwwwwwwwwwwwwwwwriuq8ee6:66:$::@.@",
"@.@::$:66<6weq978777777777777777777777777777777988qee8:66:$::@.@",
"@.@::#:66<6weewwrwwwwwrwwrwwwrwwwwwrwwwwwrrwwrwweeeee0166:$::@.@",
"@.O::$:66<6weweewwrwwwwwwrwwrwwwwwwrwwwwwwrwwwwweeeee0155:$::@ @",
"@.@::$:66<66976646666666664666666666666666666666658003166:$::OX@",
"@.O::$:66421<<:<,,,,<<:<<,,,:<<<,<:<,,,,<<:<<,<::1>111466:$::@.@",
"@.@::$:666666666666666666666666666666666666666666666666663$::@.@",
"+.@::%:666666666666666666666666666666666666666666666666663%::@.@",
"+.+::*::2::::;::::;:;:::::;::;::::::;:;:::;:;::::;::::<21:%::#.@",
"@.+::;%%%%%$$$#$$$$$$$$$#$$$$$$$#%#%%##%$$$$$$$$#%#%#%$%%%=::$.@",
"@.#::::::::::::::::::::::::::::::::::::::::::::::::::::::::::-.@",
"@.@::::::::::::::::::::::::::::::::::::::::::::::::::::::::::%o#",
"@.%$%$@@@O@@++O@++++++++++++++++++++++++++++++++O++++++++#%*%@.+",
"++............................................................++",
"++++@@@@@@@@@@@@@@@@@@@@@@@@@@@@@@@@@@@+@@@@@@@@@@@@@@@@@+@@@@@+"
};
