/* XPM */
static char *GemOv4[] = {
/* columns rows colors chars-per-pixel */
"64 64 163 2 ",
"   c gray77",
".  c #C5C4C4",
"X  c #C4C5C4",
"o  c #C5C5C4",
"O  c #C4C4C5",
"+  c #C5C4C5",
"@  c #C4C5C5",
"#  c #C5C5C5",
"$  c #C6C5C5",
"%  c #C5C6C5",
"&  c #C5C5C6",
"*  c #C5C6C6",
"=  c #CACACA",
"-  c #CBCACA",
";  c #CACBCA",
":  c #CBCBCA",
">  c #CACACB",
",  c #CBCACB",
"<  c #CACBCB",
"1  c #CBCBCB",
"2  c #CDCDCD",
"3  c #CECECE",
"4  c #CFCFCE",
"5  c gray81",
"6  c #D0CFCF",
"7  c #CFCFD0",
"8  c gray82",
"9  c #D1D2D1",
"0  c #D1D1D2",
"q  c #D2D2D2",
"w  c #D3D2D2",
"e  c #D2D3D2",
"r  c #D3D3D2",
"t  c #D3D2D3",
"y  c #D2D3D3",
"u  c LightGray",
"i  c #D4D3D3",
"p  c #D3D4D3",
"a  c #D4D4D3",
"s  c #D3D3D4",
"d  c #D4D3D4",
"f  c #D3D4D4",
"g  c gray83",
"h  c #D5D4D4",
"j  c #D4D5D4",
"k  c #D4D4D5",
"l  c gray84",
"z  c #D6D6D7",
"x  c #D8D8D8",
"c  c #D9D8D8",
"v  c #D8D9D8",
"b  c #D9D9D8",
"n  c #D8D8D9",
"m  c #D9D8D9",
"M  c #D8D9D9",
"N  c gray85",
"B  c #DADADA",
"V  c #DBDADA",
"C  c #DADBDA",
"Z  c #DBDBDA",
"A  c #DBDADB",
"S  c #DADBDB",
"D  c gray86",
"F  c #DCDBDB",
"G  c #DBDCDB",
"H  c #DBDBDC",
"J  c #DCDBDC",
"K  c #DBDCDC",
"L  c gainsboro",
"P  c #DDDCDC",
"I  c #DCDDDC",
"U  c #DDDDDC",
"Y  c #DCDCDD",
"T  c #DDDCDD",
"R  c #DCDDDD",
"E  c #DDDDDD",
"W  c #DEDDDD",
"Q  c #DDDEDD",
"!  c #DEDEDD",
"~  c #DDDDDE",
"^  c #DEDDDE",
"/  c #DDDEDE",
"(  c gray87",
")  c #DFDFDF",
"_  c #DFE0DF",
"`  c #E1E1E1",
"'  c #E2E1E1",
"]  c #E1E2E1",
"[  c #E2E2E1",
"{  c #E1E1E2",
"}  c #E2E1E2",
"|  c #E1E2E2",
" . c #E2E2E2",
".. c #E4E4E4",
"X. c #E5E4E4",
"o. c #E4E5E4",
"O. c #E4E4E5",
"+. c #E5E4E5",
"@. c #E4E5E5",
"#. c gray90",
"$. c #E6E5E5",
"%. c #E5E6E5",
"&. c #E6E6E5",
"*. c #E5E5E6",
"=. c #E6E5E6",
"-. c #E5E6E6",
";. c #E6E6E6",
":. c gray91",
">. c #E9E8E8",
",. c #E9E9E9",
"<. c #EAE9E9",
"1. c #E9EAE9",
"2. c #EAEAE9",
"3. c #E9EAEA",
"4. c #ECECEC",
"5. c #EDECEC",
"6. c #ECEDEC",
"7. c #EDEDEC",
"8. c #ECECED",
"9. c #EDECED",
"0. c #ECEDED",
"q. c gray93",
"w. c #EEEDED",
"e. c #EEEEEE",
"r. c #EFEEEE",
"t. c #EEEFEE",
"y. c #EFEFEE",
"u. c #EEEEEF",
"i. c #EFEEEF",
"p. c gray94",
"a. c #F1F0F0",
"s. c #F0F0F1",
"d. c #F3F3F3",
"f. c #F4F3F3",
"g. c #F3F4F3",
"h. c #F4F4F3",
"j. c #F3F3F4",
"k. c #F3F4F4",
"l. c #F6F5F6",
"z. c #F5F6F6",
"x. c #F6F6F6",
"c. c #F8F8F8",
"v. c #F9F8F8",
"b. c #F8F9F8",
"n. c #F9F9F8",
"m. c #F8F8F9",
"M. c #F9F8F9",
"N. c #F8F9F9",
"B. c #F9F9F9",
"V. c #FCFBFB",
"C. c #FCFCFB",
"Z. c #FBFBFC",
"A. c #FCFBFC",
"S. c gray99",
"D. c #FDFCFC",
"F. c #FEFEFE",
"G. c #FFFEFE",
"H. c #FEFFFE",
"J. c #FFFFFE",
"K. c #FEFEFF",
"L. c #FEFFFF",
"P. c white",
"I. c None",
/* pixels */
"& & X & X X & &     & & X & & X & & & & . X &   .           & & & & &   X & & X &       . . & & & & &   &   X   X & X X X & & 3 ",
"& 4 3 3 w N G L E G N E F w 3 6 3 6 i L L F F E H E T w 7 3 7 3 6 6 6 3 w N L L K E G E N w 7 4 4 4 w G G E F E E N L i 3 6 v 4 ",
"& 3 N N z z I.I.I.I.I.I.I.= a N x d - I.I.I.I.I.I.I.= w N n x z a N c x w = I.I.I.I.I.I.I.< z N N p = I.I.I.I.I.I.I.z a z ] N 3 ",
"X 3 N ] E a 3 I.I.I.I.I.I.= z E E z = I.I.I.I.I.I.I.f E ] E x I.I.f E ] E z I.I.I.I.I.I.I.< w E E z = I.I.I.I.I.I.= a E %.L z w ",
". w f E %.E d = I.I.I.I.I.= z E E d = I.I.I.I.I.I.f T X.{ x I.I.I.I.z E %.T w I.I.I.I.I.I.= w E E a = I.I.I.I.I.= s E %.E z N E ",
"& F z i E %.T d = I.I.I.I.= p E E z = I.I.I.I.I.a E %.] N I.I.I.I.I.I.w E %.L z I.I.I.I.I.= f E E z = I.I.I.I.= s K %.] N N 4.E ",
"X L I.3 s G %.F z = I.I.I.= f E E d < I.I.I.I.d E %.] N I.I.I.I.I.I.I.I.d E %.L w I.I.I.I.= z E E z = I.I.I.= z E %.] N w I.p.E ",
". F I.I.= z E %.E w = I.I.= z E E d < I.I.I.d T %.] x I.I.I.I.I.I.I.I.I.I.i E %.E z I.I.I., w E E w = I.I.= d E %.] x w I.I.4.L ",
"& N I.I.I.= z E %.E d = I.= i E E d = I.I.z E %.] N I.I.I.I.I.I.I.I.I.I.I.I.z E %.T d I.I.= z T E p = I.= d T %.{ N w I.I.I.4.E ",
"& E I.I.I.I.= f T %.T d = z E %.%.E z I.w L %.] N I.I.I.I.I.I.I.I.I.I.I.I.I.I.p E %.E z I.d E %.%.E z < s E %.] x w I.I.I.I.4.E ",
"& F I.I.I.I.I.= d E %.E z N %.5.4.%.L z E %.E N I.I.I.I.I.I.I.I.I.I.I.I.I.I.I.I.d E %.E s E %.4.4.%.N d E %.E N w I.I.I.I.I.4.E ",
"X L I.I.I.I.I.I.= d E %.E X.4.f.d.5.%.E %.E d I.I.I.I.I.I.I.I.I.I.I.I.I.I.I.I.I.I.i E %.E %.4.z.f.4.%.E %.E w w I.I.I.I.I.I.4.E ",
"X F I.I.I.I.I.I.I.= z E %.4.f.M.M.h.4.%.E a I.I.I.I.I.I.I.I.I.I.I.I.I.I.I.I.I.I.I.I.w E %.5.z.M.m.k.4.%.E d 6 I.I.I.I.I.I.I.4.E ",
". w = - = = = = = z N %.5.d.M.S.S.V.z.6.%.L z = = = = < = = = = = = = = = 1 = = = p T %.4.j.M.S.A.M.z.4.%.E d = = = = = 3 1 N a ",
"& 6 z w z p w z p E &.4.z.M.S.S.S.S.M.f.4.%.E a z p z p z p w z z a a z a z w a z E %.5.j.M.S.S.S.S.m.d.4.%.E p z i w z z f N w ",
"& 3 N E E E E E E %.4.g.M.S.S.S.S.S.S.M.f.4.%.E L E E E E E E E L E E E E E E E L %.4.d.m.A.S.S.S.S.V.m.f.4.%.E E E E E E ] x 3 ",
"& 4 v E E E E E L %.4.f.M.Z.S.S.S.S.C.v.g.4.%.E E E E L E E E E E E E E E E E E T %.5.d.M.S.S.S.S.S.S.M.d.5.%.E E E E E E E N 3 ",
"& 4 p z a z z w z E %.4.d.M.S.S.S.S.v.z.y.1.] N w z a z a p w z a a z f z w z d d E %.4.g.C.S.S.S.S.M.M.p.:.] x d d a z z w z 3 ",
"X w = 1 = = = = = a T %.6.d.v.C.S.M.h.d.1._ x 3 = 1 = < = = 1 = = = = 1 = = < = < d T %.4.k.m.V.C.M.k.d.1.] N 3 - - = 1 = = N w ",
"X L I.I.I.I.I.I.I.I.i T %.6.d.v.Z.z.4.1.] N 3 I.I.I.I.I.I.I.I.I.I.I.I.I.I.I.I.I.I.= d E %.4.d.v.M.g.4.1.] N I.I.I.I.I.I.I.I.4.E ",
"& K I.I.I.I.I.I.I.z L %.] %.4.f.f.4.%.] X.T d = I.I.I.I.I.I.I.I.I.I.I.I.I.I.I.I.= f E %.] %.4.z.d.4.%.] %.E z I.I.I.I.I.I.I.4.E ",
"X E I.I.I.I.I.I.i T %.] N E %.4.4.%.N N E %.E d = I.I.I.I.I.I.I.I.I.I.I.I.I.I.= d E %.] N K %.4.4.%.E N E %.E d I.I.I.I.I.I.4.E ",
"  T I.I.I.I.I.a T %.] N I.z E %.%.E z 3 d E %.E w = I.I.I.I.I.I.I.I.I.I.I.I.< d T %.{ x w f E %.%.E z I.d E %.E z I.I.I.I.I.d.N ",
"& N I.I.I.I.a E %.] N I.I.= f E E z , I.= d E %.L z = I.I.I.I.I.I.I.I.I.I.= d E %.] n w I.= w E E z = I.I.a E %.E a I.I.I.I.4.E ",
"& L I.I.I.f E %.] N I.I.I.= z E E i = I.I.= a E %.E w = I.I.I.I.I.I.I.I.= z F %.] n w I.I.= z E L z 1 I.I.I.w L %.E d I.I.I.4.E ",
"X L I.I.s E %.] x I.I.I.I.= p E E z = I.I.I.= z E %.L z = I.I.I.I.I.I.= d E %.] n w I.I.I.= f E E a = I.I.I.I.z E %.E i I.I.4.E ",
"  E = d T X.] N I.I.I.I.I.= a E L z 1 I.I.I.I.1 a E %.E i = I.I.I.I.= z T %.{ x w I.I.I.I.< z E E a = I.I.I.I.I.i E %.E w = y.E ",
"& w w E %.] N I.I.I.I.I.I.= z E E a 1 I.I.I.I.I.= p E %.K z = I.I.= d E %.] N w I.I.I.I.I.= w E E z 1 I.I.I.I.I.I.i E %.E w T E ",
"  3 N ] ] c I.I.I.I.I.I.I.< w E E a = I.I.I.I.I.I.= z L %.E d = = s T %.{ x 6 I.I.I.I.I.I.1 p E E z = I.I.I.I.I.I.I.i K %.E d w ",
"& 3 x L x I.I.I.I.I.I.I.I.= z E E a 1 I.I.I.I.I.I.I.= f E %.E d w T %.E x w I.I.I.I.I.I.I.= f E E i = I.I.I.I.I.I.I.I.z E ] N 7 ",
"& 4 N z I.I.I.I.I.I.I.I.I.= z E E p = I.I.I.I.I.I.I.I.= i E %.T E %.E w w I.I.I.I.I.I.I.I.= z E E w = I.I.I.I.I.I.I.I.I.d ] N 3 ",
"& 4 f I.I.I.I.I.I.I.I.I.I.< i E E z = I.I.I.I.I.I.I.I.I.= i E %.%.E z = I.I.I.I.I.I.I.I.I.< f E E z = I.I.I.I.I.I.I.I.I.I.f N 3 ",
"& 7 d I.I.I.I.I.I.I.I.I.I.= f E E w = I.I.I.I.I.I.I.I.I.= s T %.%.E d = I.I.I.I.I.I.I.I.I.= z L E a = I.I.I.I.I.I.I.I.I.I.i N 6 ",
"& 3 N s I.I.I.I.I.I.I.I.I.= z E E z = I.I.I.I.I.I.I.I.= i T %.] E %.E d < I.I.I.I.I.I.I.I.= a E E p 1 I.I.I.I.I.I.I.I.I.z _ N 3 ",
"& 3 x E d I.I.I.I.I.I.I.I.= w E E z = I.I.I.I.I.I.I.< d E %.] v d E %.E i = I.I.I.I.I.I.I.= z E L z 1 I.I.I.I.I.I.I.I.p E ] N 6 ",
"& 4 x ] E s I.I.I.I.I.I.I.= z E E f < I.I.I.I.I.I.= d T X.] c w = d E %.E z = I.I.I.I.I.I.1 i E E a 1 I.I.I.I.I.I.I.z L %.L z w ",
"& w p E %.E d I.I.I.I.I.I.= z E E w = I.I.I.I.I.= w E %.] N w I.I.= i L %.T d = I.I.I.I.I.= a E E a - I.I.I.I.I.I.i E %.E w N E ",
". N = z E %.E f I.I.I.I.I.- i E E z = I.I.I.I.= z E X.] z w I.I.I.I.= z E %.E d = I.I.I.I.= z E E z 1 I.I.I.I.I.d T %.] N 3 4.E ",
"& N I.I.f E %.E i I.I.I.I.= z E L z = I.I.I.< s E X.] x w I.I.I.I.I.I.= s E %.E z = I.I.I.= w E E f = I.I.I.I.w E %.] N I.I.4.E ",
"& E I.I.I.w E %.E z I.I.I.= d E E a 1 I.I.= s T ;.{ x s I.I.I.I.I.I.I.I.= i E %.E i = I.I.= z E E s = I.I.I.z E %.] N I.I.I.y.E ",
"X F I.I.I.I.z L %.T i I.I.= d ~ E a = I.= s E %.] N w I.I.I.I.I.I.I.I.I.I.= z E %.T s = I.= d E E w - I.I.d E %.] x I.I.I.I.y.E ",
"& L I.I.I.I.I.i T %.E d I.f E %.%.E s = d E %.] z w I.I.I.I.I.I.I.I.I.I.I.I.= w E %.E a = z E %.%.E z I.a E %.] N I.I.I.I.I.y.T ",
"X E I.I.I.I.I.I.z E %.E a E %.5.4.%.N z E %.E v w I.I.I.I.I.I.I.I.I.I.I.I.I.I.= d E %.E z N %.4.4.%.T i E %.E z I.I.I.I.I.I.4.E ",
"  F I.I.I.I.I.I.I.d E %.E %.4.f.d.4.%.E %.E w w I.I.I.I.I.I.I.I.I.I.I.I.I.I.I.I.= s E %.E %.4.k.z.4.%.E %.E z I.I.I.I.I.I.I.4.T ",
"  E I.I.I.I.I.I.I.I.d E %.4.z.M.v.z.4.%.E d 3 I.I.I.I.I.I.I.I.I.I.I.I.I.I.I.I.I.I.= z E %.4.z.M.m.f.4.%.E z I.I.I.I.I.I.I.I.4.E ",
"  w = = = - = = = a E %.4.h.M.S.M.M.f.4.%.T z = 1 1 = = - = = - = = = = = 1 = = = z N %.4.d.M.S.A.M.z.4.%.E d = = 1 = = , , F d ",
"& 3 d a z d z i z E %.4.z.v.S.S.S.S.m.f.4.%.E w z w w z z w z a z a a z a z p a w K %.4.h.c.S.S.S.S.z.f.4.%.E z z w a a z d x 7 ",
"& 6 N E L E E E E %.4.h.M.M.S.S.S.S.A.m.z.4.%.E E E E E E E E E E E E E E E E E E %.4.h.M.S.S.S.S.S.S.M.d.4.%.E E E E E L ] N 3 ",
"& 3 v E E E E E E %.4.z.c.S.S.S.S.S.S.M.z.6.%.E E L E E E E E E E E E L E E E E E %.4.d.M.S.S.S.S.S.S.V.f.4.;.E E E E E E E N 4 ",
"& 6 a a z d i z i E %.4.d.c.S.S.S.S.S.z.y.1.] N a z z a a z a a z a p z z w z d z E %.4.g.Z.S.S.S.S.M.z.p.1.] N d z w z z w f 4 ",
"X w - 1 < < = = = a N o.4.z.M.S.A.M.j.p.1.] N 6 = = = = = 1 = = = = = = = = = < = z E %.4.h.M.C.V.v.z.d.:.E N 3 = = = < = 1 N p ",
"& E I.I.I.I.I.I.I.= z E %.4.z.M.m.j.4.4.' N I.I.I.I.I.I.I.I.I.I.I.I.I.I.I.I.I.I.I.I.z E &.4.f.M.M.f.4.:.] n 3 I.I.I.I.I.I.I.4.E ",
"X F I.I.I.I.I.I.= s E X.] %.4.d.d.5.%.{ %.E s I.I.I.I.I.I.I.I.I.I.I.I.I.I.I.I.I.I.w E %.] %.4.f.d.4.X.] %.T z = I.I.I.I.I.I.4.E ",
"X L I.I.I.I.I.= z T %.] N T %.4.5.%.T x E %.E d I.I.I.I.I.I.I.I.I.I.I.I.I.I.I.I.z L %.] N L %.4.4.%.T N T %.E d = I.I.I.I.I.4.E ",
". E I.I.I.I.= d K %.] x w z E %.%.E z I.s E %.E f I.I.I.I.I.I.I.I.I.I.I.I.I.I.d E %.] x I.z E %.%.E s 3 d E %.E a = I.I.I.I.p.E ",
"  N I.I.I.1 f E %.] n w I.< d E E i = I.I.d E %.E f I.I.I.I.I.I.I.I.I.I.I.I.d E %.] N I.I.= z E E z = I.= d E %.L z = I.I.I.y.E ",
"& N I.I.= s T %.] x w I.I.= z E E p = I.I.I.a E %.E z I.I.I.I.I.I.I.I.I.I.i E %.] N I.I.I.= w E E w = I.I.= i L %.E a = I.I.u.E ",
"& E I.= d E X.] x 6 I.I.I.= p E L z = I.I.I.I.z H %.G i I.I.I.I.I.I.I.I.a E %.] N I.I.I.I.- z E E z = I.I.I.= z T %.E w = I.4.H ",
"& G z i E %.] N w I.I.I.I.= p E E a 1 I.I.I.I.I.s E %.T z I.I.I.I.I.I.w T %.] x I.I.I.I.I.= z E E z 1 I.I.I.I.= w E %.E z N 4.E ",
"  p d E %.] x w I.I.I.I.I.= z E E a 1 I.I.I.I.I.I.p E %.E a I.I.I.I.z L %.] N I.I.I.I.I.I.- i E E f = I.I.I.I.I.= z E %.E f E E ",
"& 6 N %.L n 3 I.I.I.I.I.I.= z E E f = I.I.I.I.I.I.I.a E %.E d I.I.s E %.T x I.I.I.I.I.I.I.- d E E p = I.I.I.I.I.I.= d E %.T w w ",
"X 3 ] E z T I.I.I.I.I.I.I.= w ] E f = I.I.I.I.I.I.I.= w E ] ] s f ] ] E d 3 I.I.I.I.I.I.I.- z ] E z = I.I.I.I.I.I.I.N z T ] N 4 ",
"& N c i N u.4.4.4.d.4.u.4.N x N n w K 4.4.p.4.p.y.4.4.E a N x z N N N a T 4.4.p.4.p.4.4.4.L N N x z N y.4.p.4.4.y.4.4.E f x N 3 ",
"3 4 7 w E E E E K G E E E s 3 7 w 3 p L L E K E E H E E p 7 3 w 3 3 7 w F T T E E E E L E w 3 6 3 3 w E E E E T E E N E p 3 3 w "
};
