/* XPM */
static char *GlassFacete[] = {
/* columns rows colors chars-per-pixel */
"64 64 24 1 ",
"  c #848484",
". c #8E8E8E",
"X c gray59",
"o c #9A9A9A",
"O c gray62",
"+ c gray63",
"@ c gray65",
"# c #AAAAAA",
"$ c #AFAFAF",
"% c gray69",
"& c #B7B7B7",
"* c gray73",
"= c gray75",
"- c gray76",
"; c gray78",
": c #C8C8C8",
"> c #CECECE",
", c #D0D0D0",
"< c gray83",
"1 c #DADADA",
"2 c #DFDFDF",
"3 c gray88",
"4 c #E4E4E4",
"5 c gray95",
/* pixels */
"5433333333223333333333223333233333333333223333233333333333333335",
"4+O++++++++++++++++++++++++++++++++++++++++++++++++++++++++++O+4",
"2O>111121111111<<121111211<111111111111111<11<11<11<1<<111<<1>O3",
"3+11,,<11<>,,,>,;><1,>,<,:>>,,,,::<<,>,,<<,>>>:>>,,,>:>:<<>;>1+3",
"3+11,>>,,<>;:-;:;;:<<,;>>;-=;:::--;>::>>>:>:::::::::;-=-;>>;-1+2",
"3+11,>>,<<>;:-::;;:,<,;>>:-=;;::;-;:::::>:::::::::::;-=-;:>:-<+3",
"3+11<,>,,1,::=;;---><,::>>;--;::;-;;:;:>:>:::>::::::;-===;:::<+3",
"3+11,,>>>1,::==;;-->,<:;:>;=-;::;;-;;;;:::>:>:>:::::;-=*=;>>,<+3",
"2+11<,,,>,<,;===;;==:,,;;>>>-;:::-=*;;;::;:>>>::;;;::;=*&*;:><+3",
"3+11<<,>,,<,;-==;;--:,,:;:>:;;;::;=-;;;;>::::>>::;-::;==**-;,1+3",
"3+11<1<,>,,,:;-=-;;=;:,>:>::;-;:::;;---;>::;:>:>>;-:>:--*%*;,1+3",
"3+1<<<,,>:,,>;---;;;=-,,>>:;;;-;;:::=*;-:>;-;>:>:;;:>:--=&%-,1+3",
"3+1,<<<,:;:>>:;-=-:-*->,>>::;;=;-;::-=-=:>:-;;:>>:;::>;--*&*>1O3",
"3+1,,,<,>;;;>:--=-;;--::>:>:;;===-::-=*=-::;-;:>>:;;>::;;=**:1+3",
"3+1,;:>>>;=-::;--------;>>::;-=&=-;;:=&*=;::--;::>:;;:>:-===;1+3",
"3+1,-;>>>-==:;;-----;-*->,:;--*&*=-;:;%*&->>--:;>>>-;:::-=;-;<+3",
"3+1>;;:>;;-===;==*=---*=;::>:-&&*==;;;-%**=:;=-;:>>;-;::::--;1+3",
"3+<>;-;:;;-=&=;-*&=-==**;:>::-&&*==-;;-&*&=;;;--:>>:;;:>::--;<+3",
"3+<:;-&-;;-*%&==*%*-=***=;:>:;*%&**--;;-&&*-;:-=;>:>;;;>>::;:<+3",
"3+<:--&=---=&%%=*&%*=*&*=;:::;-%%**=-;;-&&*=;:-=-::>:;;>>:::>1+3",
"3+<-==&*=====%#**&$%==&&*=-;;;=&&&**=-;;**&&-::=-:>>>;;::>>:><+3",
"3+<=&*=%%&*==&$#*&##&=**&&=;;;-=*%%&*=-;=**%*;:;-;:>>:;;>>::>1+3",
"3+<-%&*$%%%***&+$&$+#&=*&%*--;;-*%%***=;-=&&*-;;;-;>,>:;:>>>,1+3",
"3+<=%%=%%&%%%&%o+$%+O$=*&$*--;;;=%%&***-;=&*&*:;;-;:,>>-;>>>,1+3",
"3+<=%&&&$++$%&%OO#$+O#**%%*--;;;-*%$%*==;;*%&==;::;;>>>:;:>>,1+3",
"3+<*&%%%$@+@$%&+Xo@#o+%=*&&=-;:;--&#%&*=-;-&%*=;:;;;>>>:::>>,1+3",
"3+<=&%&%$#+O+$%$O.O$@o$**&$%=-;:;-&$$%*--;-=&&-;;;;;>>>::>>>,1+3",
"3+<*%%%%$$+O+#%&$..##o+&==%&=;;:;;=$#$*=-;;-&&-;;::;>>>:>:>>>1+3",
"3+<-%%%%%$@+O@@&%o +$Oo&*==*-;:::;-&$$&*=;;-**--;:>:>,,::>>>>1+2",
"3+<-&%$%%$#@+OO$&#.O$$+#*==**--:::;=%&&*=-;;-=-=;::>,,,>::>>,1+2",
"3+<-&%$&*%%#+OO$*&@O#%%@%===&*=;>::;=&**=;;;;;==::>>,,,,>>,,<1+3",
"3+1-&$$**&%#OOO#&*%OO#$#&-;-&*;;:>:;-**&=--;:;-=:>>,,<,<>:,,<1+3",
"3+<;=*$%**&$$@Oo&=&#+#*%$&-;=*--;:>>=*===-;::::-:>::,<<<,,:,11+3",
"3+<:==*%***&%#@+%*=&@#*%%*-;-=--;>,>;-;=--;:>::->>,,,<1<<,:>11+3",
"3+<:---&===*&&$$#*;=$#=&**=-;;--;>,,>:;;;;;:::>;:>,<,<1<<,>:<1+3",
"3+<;;-;&*=-=**&&#&;:*%**==*=;;==-:>,,>::;;-;>>,>:><<<<<111,>,1+3",
"3+1;--;===---=*%$*-:;=&=--*=;:--;;,,,,:>>;;;:>>>::<<<<11111,<1+3",
"3+<--;;;==-;-==%*=-;:;&=--==;:;;;;>,<<>,,>:;;>>,:>,<<<<1111<11+3",
"3+<;;:::;=;;;--*===:>>-=;:;--;;;;-;,<1<,,,,:::>>,>><21<1121111+3",
"3+<-:::>;--;;;;-==-:>::=-::-=;:;--;,11<,,<,>:>><<,>,12<1<12221+3",
"3+<:;;:>:;;;::;;--=-:>>:::>>:::>>:>><<1<,,<<>:<,<<,,111<132221+3",
"3+1>-;;>>:;;::;;;-;;:>>>::>>>:>:>>>:,<1,>,<1>,,<<<<,<12<<22231+3",
"3+1,--;::>::;::>:::::>>>::>,>>:>>,>:><1<,<11,,<<<<<<,12<122231+3",
"3+1,:;::>>>:;::>>::::>>,>:>,,>:>>>,>><<<<,<<1<><,11<,,12212242+3",
"3+1<:::::>>>;::>:>:::>,,>>>,<,::>>>>>>,21,,<2<>,<<1<,,12212242O3",
"3+<,>::;>>>:;;>:>:>::,,,,>:,<,,::>>>>>>11,>12<><,<1<,,<2112232+3",
"3+1,>>:;:,>>;::::>>::,,<<,>><<,,>:>>>>>111,,<1,>,,,<1<>1122231+3",
"3+<:>:;;::>>::;:>>>:>,,<,,>><<1,>::>>>>:111>111><<,<1<>1222222+3",
"3+1:;:>:>:>:::>>:>,,:>,<<<,,,<1<>:::>>>:,11,,<<>>>><<<<,122132+2",
"3+<>::>>>>>::>>>>>,>>>,<<1<,,<<<,::>>>>:,1<<,,1,>:,<1<<<,11221+2",
"3+1:>>>>>,,,>::,,,>,,,><1<1>>,<<<>::>>>>><11<<1<>>>,<11<<1<122+3",
"3+<>:>>::,,,>>:>,,::,<>,121,>>111,>::>>,:,<11,,1,>:,<<<<,,<111+3",
"3+<>:>:>>,,,>>;>,,>><<,<111<,><1<<,:;>>,>><11,<<<,>>,<<<<,,<11+3",
"3+1>;>>>:,<,,,:>,,>:,<<<<22<<,,<1<,>;>>>>>,<1<<1,,:>,<<<<,,,11+3",
"3+1,-:,,>,<<<,,>>,,>>,1<11111,>,<<<>:>,>,,>,<1<<<,,>>,<<,,>><1+3",
"3+1,-:<,,,,1<<,>><,,:,1<11211,>><1,>::,><,:>111,,,,>>>,,,,>:,1+3",
"2+2<>,<<,,<1<<<>>,<<>><2<,122<1<<11<>:,>,,>>,11,,>>;::>,<<>:>1+3",
"2+1<,,,<<,,111,>:><<,,<21<11111<<<1<,>>,>,>>><1,<>>;;:>,,,,:><+3",
"3+1<,,,<1<,<11<<>>,<<<,1111121<<,,<<<,>>,,>>>,1<<<:;;;::,,,>,<+3",
"3+1<<<,,<1<<1112,>,<1<,<111<2211<><11,:>>>>>:,,1<<>;--;;>,,,,1+3",
"3+111<<,121112221,<1121,121122111<<11<,<,<<,,,<121<,:>:>,<<<11+2",
"3O>11121121111212111111111111112111111111111111111111<1<11111>O3",
"4+O+++++++++++O++++++++++++++++++++++++++++++++++++++++++++++O+3",
"5432333322333333333333333322333333333333333333333332333332332345"
};
