/* XPM */
static char *Gold1[] = {
/* columns rows colors chars-per-pixel */
"64 64 140 2 ",
"   c #3B2A04",
".  c #412F03",
"X  c #463105",
"o  c #543D05",
"O  c #583D06",
"+  c #5D4406",
"@  c #654706",
"#  c #674907",
"$  c #684907",
"%  c #6A4709",
"&  c #6A4C09",
"*  c #724E06",
"=  c #724F0A",
"-  c #6F5107",
";  c #745207",
":  c #7A5407",
">  c #7D5A07",
",  c #755309",
"<  c #7B5409",
"1  c #7E590A",
"2  c #835D05",
"3  c #8A5E07",
"4  c #815708",
"5  c #845C08",
"6  c #8B5E09",
"7  c #876205",
"8  c #8C6306",
"9  c #8F6C03",
"0  c #8B6309",
"q  c #926407",
"w  c #9C6607",
"e  c #956B06",
"r  c #9B6C06",
"t  c #936509",
"y  c #996609",
"u  c #946809",
"i  c #9A6C09",
"p  c #9C7105",
"a  c #9C7109",
"s  c #A16F07",
"d  c #A16F0C",
"f  c #A47305",
"g  c #A97603",
"h  c #A77D03",
"j  c #AD7C04",
"k  c #A37209",
"l  c #AA7209",
"z  c #AC7B09",
"x  c #B07707",
"c  c #B37D06",
"v  c #B97D07",
"b  c #B07709",
"n  c #B47C0A",
"m  c #BB7D0A",
"M  c #BE7C10",
"N  c #C27E06",
"B  c #AD8205",
"V  c #B48205",
"C  c #BB8306",
"Z  c #BD8904",
"A  c #BB8309",
"S  c #C28507",
"D  c #C48A05",
"F  c #C98C06",
"G  c #C38608",
"H  c #CE830F",
"J  c #C58A08",
"K  c #CB8B09",
"L  c #D48E06",
"P  c #D28E08",
"I  c #C59104",
"U  c #CD9205",
"Y  c #CE9E06",
"T  c #D39305",
"R  c #DA9505",
"E  c #D49B05",
"W  c #DC9B06",
"Q  c #D79308",
"!  c #D99409",
"~  c #E78B08",
"^  c #E49705",
"/  c #E29B06",
"(  c #EF9E03",
")  c #E19908",
"_  c #E99E08",
"`  c #CBA107",
"'  c #DEA406",
"]  c #D1A903",
"[  c #D6B704",
"{  c #DCB405",
"}  c #D3BC04",
"|  c #DBBC05",
" . c #E3A205",
".. c #EBA405",
"X. c #E4AA04",
"o. c #EBAA05",
"O. c #E6A30D",
"+. c #F3A506",
"@. c #F5AB06",
"#. c #FAAC06",
"$. c #E6B505",
"%. c #EBB305",
"&. c #E5BE04",
"*. c #ECBC05",
"=. c #F2B205",
"-. c #F9B305",
";. c #F4BC05",
":. c #FCBD05",
">. c #D1C603",
",. c #D9C703",
"<. c #D5CB04",
"1. c #DFCB06",
"2. c #DDD404",
"3. c #DCD903",
"4. c #E5C303",
"5. c #ECC304",
"6. c #E4CB05",
"7. c #EBCB04",
"8. c #F5C305",
"9. c #FCC305",
"0. c #F3CB05",
"q. c #FDCA04",
"w. c #E4D305",
"e. c #EBD605",
"r. c #E4DB05",
"t. c #EDDB05",
"y. c #F3D204",
"u. c #FCD304",
"i. c #F2DB04",
"p. c #FEDC04",
"a. c #E7E202",
"s. c #ECE404",
"d. c #EEEA04",
"f. c #F3E504",
"g. c #FCE305",
"h. c #F2ED03",
"j. c #FDEC03",
"k. c #F5F302",
"l. c #F9F503",
"z. c #FDFC01",
/* pixels */
"z.z.z.z.z.z.z.z.z.z.z.z.z.z.U 9.p.W #...A A > o f s i <   6 = H N 4 t = M z H H 2 v _ e R D  .p.p.o.z.z.q.z.z.z.z.z.z.z.z.z.z.z.",
"z.z.z.z.z.z.z.z.z.z.z.z.z.u.P l.z.R #.#.V K 8 + z m 6 & X < % % = 1 = = n t u 0 @ n W 2 P L R -.-.E z.z.j.i.z.z.z.z.z.z.z.z.z.z.",
"z.z.z.z.z.z.z.z.z.z.j.z.l.l.@.h.y.F =.+.A L P a O.n 4 1 , y % 4 d t d = 5 O = 7 @ j D 7 R ....9.-.' l.l.z.z.z.z.z.z.z.z.z.z.z.z.",
"z.z.z.z.z.z.z.l.z.k.k.y.k.k.Z f.7.C N F e K G t n ; & 0 , < % , & O & & 5 < 1 a a F A 2 R %.W e.*.0.k.k.f.k.k.z.z.z.z.z.z.z.z.z.",
"z.z.z.z.z.l.l.z.l.z.z.l.k.k.J y.t.F ! / J P K 8 q : 4 d i 0 l l u # ; : t t 0 k z J s 2 / *.U f.i.0.l.k.k.k.z.l.z.k.z.z.z.z.z.z.",
"z.z.z.z.z.z.l.l.k.k.0.f.h.d.z O.*.V T ' v P A 8 6 2 u t 7 , i y 0 5 0 : 5 t y t y V r 2  .) c %.=.! s.h.k.k.k.k.k.k.z.z.z.z.z.z.",
"z.z.z.z.z.z.k.k.k.k.0.f.h.d.Z X.w.R F D 7 C A 6 q > w 6 , : 6 G n A l ; , 0 1 u i J n 8 R Z u X.y.V 4.s.i.h.k.k.k.k.k.k.z.z.z.z.",
"z.z.z.z.k.k.k.k.h.k.l.h.s.s.U *.y.Z J W l S K v 3 e i k q 5 i W n w ~ n k a i 0 k ! c n W o.P s.f.i 4.h.y.d.h.d.k.k.k.z.z.z.z.z.",
"z.z.z.z.z.k.k.k.k.d.i.a.3.3.D ' 6.D U F 8 z f f i q i k 8 - > 6 o X * 2 8 5 q G z C q k Y ) p | r.2 ' t.a.a.a.k.k.d.z.z.k.z.z.z.",
"z.z.z.l.k.l.h.k.d.j.f.4.t.s.T 5.e...A J k V A v ! S c v N k A A > e K G G c v Q k c c p ! @.C 7.g...f.j.a.7.l.d.d.k.k.k.k.z.z.z.",
"z.g.z.k.k.k.h.h.a.7.z.5.7.j...6.w...+. .C S C p C c j z v C W _ F U R P ! P S J c c J S R ..^ w.i.o.2.r.%.z.s.e.k.y.y.l.k.j.z.z.",
"q.j.z.f.k.h.i.7.a.a.5.f.2.} V ' { C U ' C c e f A 8 > e 8 7 2 0 l r A i C c 8 c e f C C c j E | <.{ >.>.f.*.&.a.h.i.f.l.i.z.z.z.",
"z.z.l.k.k.h.a.d.s.j.t.,.j.7.C ;.-.P F R c R T ` / T / / Q Q ! W ..@.#.U / ' F ) F D / E R W *.e.7.C o.l.<.&.s.a.s.d.h.h.k.k.z.z.",
"z.z.l.k.k.a.5.8...f.r.2.*.l.V Z -.o.'  .f ..@.W %.C / *.%.+.W E :.-.;.E W K F K U A @.F F W R o.8 2 l.4.] g.f.r.s.f.h.k.h.z.u.z.",
"o.J ! ;.8.' V f 9 ..X.| I B 9.B E E E %.T  .A u U 8 j F ! ..W W R Q C C U A E C C +...V T %. ...T q.f j j o.W I R Z p V A @.T U ",
"g.:.:.5.i.=.e.t.r.g.g.>.e.B $.j.;.=.@.e.[ t.0.| t.^ =.f.t.9.:.p.p.l.0.7.i.$.6.i.6.t.w.{ ;.:.F ( j.8 g 9.W 6.4.' $.X.O.y.s.f.j.q.",
"p.:.9.e.h.@.^ r.| 0.e.[ y.=.=.;.j.$.B 7.<.f.p.r.a.0.%.i.5.:.9.g.9.l.f.f.0...X.%.' 4.6.W ;.g q j.( D 9.-.{ w.t.1.i.w.%.t.7.q.z.p.",
"W W ..! K j 8 T u V  .T %.E R ` B 9.B U | X.o.e f C X.*.;.R F o.U U @.V V p Z E I W ..j j f q.T ....%.T A ..@.S C R V T Z V T R ",
"T ' ..%.*./ C %. .@...f / ' o.-.Z V l.*.3.r.f...5.5.f.k.k.l.z.z.z.u.z.h.k.d.s.f.r.f.j.] 4.l.2 q ..E E D D =.V U F D P E E ;.-.:.",
"W ! ! ! / / L / ` T R c W U K -.;.Z 7.j.>.t.j.a.d.d.d.h.k.l.l.z.z.z.k.k.k.h.f.s.r.a.*.<.l.o.C 7.y.%./ R R / S F ) F ' ) K #.+.+.",
"8 2 7 8 e > 9 A f i c C  .K c [ ' V [ 2.f.8.a.a.7.t.h.k.f.l.j.q.z.z.l.p.l.f.i.h.a.&.&.f.>.>.{ <.| E B c A Z l e V 8 c C i A r s ",
"_ / C v z z n A p C S C  .+...w.w...f.7.*.z.7.a.h.h.k.k.l.z.g.z.z.z.j.k.l.y.y.k.t.f.z.%.w.w.X.i.w.^ ..R C D c n J S P ! Q Q U J ",
"C A s N v n S Q v A V f K A +.t.5.T s.t.4.h.j.d.k.k.l.l.z.z.z.z.z.z.l.k.k.k.k.h.a.k.7.a.j.f...g.0.V @.R k v c s L A x G G F u 2 ",
"7 > - 8 l e q i k f z 8 F U D 1.X.D 2.3.a.i.d.k.k.k.k.l.l.z.z.z.z.z.z.z.z.k.h.k.k.d.a.a.a.' 2 r.| p ) Y r e C j J 0 2 t 2 * X o ",
"! i 5 t k r i 3 v K S s W J Z i.$.U d.s.h.k.k.h.l.k.k.z.z.z.z.z.z.z.z.l.z.l.k.l.h.k.d.e.f.5.p s.t.T o.W c c ! k t u i k n ~ y c ",
"G 6 : , 3 i > 6 3 C S 3 F F R w.X.C s.h.f.y.h.k.k.l.k.z.z.z.z.z.z.z.z.z.k.k.k.k.d.k.d.f.d.4.V y. .e Z ! 8 c J e u 2 0 : , l A n ",
"y i , 7 t u 4 q 7 A P v  .T V *...h h.h.d.y.l.l.z.k.z.z.z.z.z.z.z.z.z.z.z.z.k.k.k.k.k.k.h.s.R =.%.V )  .7 r A q q y t 2 , 0 4 t ",
"l l 0 i d 1 : t t F P D / ! K t.0.I h.k.l.l.l.l.l.k.z.z.z.z.z.z.z.z.z.z.z.z.k.z.z.l.k.k.k.k.8.t.f.U *./ 2 s J z k 0 q t : , @ u ",
", # 1 < 0 & , z u S J e D N c 7.s.Z l.k.y.l.l.z.z.l.z.z.z.z.z.z.z.z.z.z.z.l.z.k.l.l.l.f.k.k.0.*.t.W %.! 2 G F i d 1 < 5 & @ O & ",
"5 % y = 5 4 m O.a K Q C @.@.J y.j.@.l.l.l.j.l.z.z.z.z.z.z.z.z.z.z.z.z.z.z.z.z.z.z.z.z.l.z.z.' -.9. ...W 2 J z # 5 = O 5 : d t a ",
"% % < X # 6 M z + 7 F V #.#.R z.l.U u.z.z.z.z.z.z.z.z.z.z.z.z.z.z.z.z.z.z.z.z.z.z.z.p.j.l.z.R -.-.R L Q > W b @ 6 t t n < = 1 = ",
"H = 6   < i w k o 7 C A ..#./ p.:.U z.z.z.z.z.z.z.z.z.z.z.z.z.z.z.z.z.z.z.z.z.z.z.z.z.u.z.z.o.p.p./ D Q i _ A 4 P K z n = t 1 M ",
"M 4 y = n z K L 2 A  .e R D  .p.p.o.z.z.q.z.z.z.z.z.z.z.z.z.z.z.z.z.z.z.z.z.z.z.z.z.z.z.z.z.U 9.p.' #.+.A C 2 o l y k :   6 , H ",
"= 1 = = n t t 6 @ x ) 2 T L R #.-.E z.z.l.p.z.z.z.z.z.z.z.z.z.z.z.z.z.z.z.z.z.z.z.z.z.z.z.u.P l.l.! #.#.c K 8 + z v 5 $ X < = % ",
"d t d < 4 O * 2 @ j J 2 R ..O.q.#.X.l.z.z.l.z.z.z.z.z.z.z.z.z.z.z.z.z.z.z.z.z.z.z.z.j.z.l.l.@.h.u.I =.@.C ! K a O.n 2 4 = y % 4 ",
"& o % % 5 < 1 p i K G 2 R %.W e.;.7.k.k.f.k.l.l.z.z.z.z.z.z.z.z.z.z.z.z.z.z.z.z.k.l.l.q.k.k.Z f.7.n N G e F J t n ; & 0 : < % = ",
"u & = = t 0 0 k z J k 2  .*.T f.t.8.k.k.h.k.z.z.l.z.l.z.z.z.z.z.z.z.z.z.z.k.z.k.l.l.l.k.k.k.I 0.t.K ! / J T K 8 t : < k i 0 l l ",
"0 5 0 < 5 u i q t n r 2 / W c %.=.! s.h.h.k.k.k.k.k.z.l.z.z.z.z.z.z.z.z.z.z.l.l.l.k.y.h.d.d.B ..*.n T ' v P C 3 q 4 u t 5 , a y ",
"n G b , : 0 2 u e J c 8 ! D e X.e.V 4.d.s.h.k.h.k.k.l.l.z.z.z.z.z.z.z.z.l.z.l.k.k.k.0.f.d.s.C X.w.! F J 8 C A 6 0 4 i 6 , , 6 G ",
"z y ~ z k i i q k R v c W o.K t.f.i 5.h.e.d.k.h.l.k.k.z.z.z.z.z.z.z.z.l.z.k.k.k.h.k.k.k.s.d.T &.i.Z J / s S K v 2 i i k t 0 y ! ",
"o . ; 3 8 5 q G z v u r ` ^ i ,.r.2 ' a.a.a.s.l.h.h.l.z.l.z.z.z.z.z.z.z.z.k.h.k.h.d.i.a.3.2.D ' 1.D T F 8 z f l i q e k q - > 8 ",
"5 u K G D x C P l c V p R @.v 0.p...f.j.a.7.l.a.h.h.k.k.k.z.z.z.z.z.z.l.l.l.k.k.h.j.h.4.r.s.T 5.t.+.A F k V A v ! S n v N s A A ",
"J U Q P Q P S G c c D Z R ..W w.f.X.2.r.%.z.f.e.j.e.y.l.k.g.z.z.z.p.z.k.k.k.h.h.a.7.z.5.7.g...w.w...+./ C D V p S j z z v C W _ ",
"k r A i C V 0 V i f C A V V T | ,.{ >.} f.&.&.a.h.t.f.l.i.z.z.z.q.j.z.f.k.h.t.7.a.a.5.i.2.[ V ' { c U ' c c i f C 8 2 e 8 7 2 8 ",
"..@.#.K ) ' F / F S / E R W *.y.7.V o.l.<.*.a.r.a.d.h.k.k.l.z.z.z.z.k.k.k.d.d.d.h.j.a.<.j.7.Z ;.;.F F W j R T Y ) L W / E ! E W ",
":.-.;.E W T D K I V @.F D E R o.q 3 l.4.] j.f.r.f.s.h.k.k.l.u.z.z.l.z.k.k.d.5.5...f.r.2.;.l.V Z -.o.'  .l ..@.' %.S ) *.o.+.W T ",
"R ! C Z U C ! C D @...C T =. ...T q.f h h ..W I E Z i A A @.T U o.K R ;.*. .Z k 9 ..X.{ U B 9.B ` R R %.T  .V e T 8 c J R O.W W ",
"p.l.0.7.t.$.6.i.6.e.w.{ -.9.F ( j.q g 9.W 6.4.' $...X.0.f.d.l.9.g.9.:.*.t.=.7.s.w.g.f.,.7.B { j.:.%.=.y.[ e.0.| t.^ =.f.e.q.:.p.",
"9.l.f.f.0... .%.' 4.6./ 8.g 8 j.+.F 9.-.{ w.t.1.i.w.$.i.7.0.z.p.p.9.9.e.h.=.^ t.| 0.e.[ y.=.=.:.j.$.B 7.<.g.p.w.a.0.%.i.5.:.9.g.",
"U T @.V V p Z E I W o.c j f q.T .. .%.T C ..+.Z v R V U A C T R W / ..R F j 8 P e V  .T $.T R ` B 9.B U | X.o.9 p Z ' ;.;.R F ..",
"z.u.z.h.k.d.s.f.3.f.f.] 5.l.2 q ..R W S D @.C U F F P W E ;.-.:.T W ..%.*.) C %./ @.+.f  .' o.-.Z V k.*.2.e.f...5.5.s.k.k.l.z.z.",
"z.l.l.k.k.h.d.s.a.s.&.<.l.o.V 7.e.*.W R E / D F ) F ' ) K #.#...W ! R ! / R T ) Y T E c W F P =.;.Z 7.j.>.a.j.d.h.d.d.k.k.l.z.z.",
"z.z.z.i.l.f.i.h.a.&.&.f.} >.{ <.| T B V C C f e V 8 c S i C r l 0 2 7 8 e > 8 A f i c v ' K C { ' V [ 3.t.5.a.a.0.t.k.k.d.z.j.9.",
"z.z.h.l.l.y.y.h.e.f.z.%.r.2.o.i.w./ ..R C G c c G S P ! P T F J O.) C C z j c Z p V D Z  .+...w.w.o.g.7.5.z.7.a.h.d.k.k.k.z.g.z.",
"z.z.z.l.l.k.k.d.a.l.7.a.j.f...g.8.A @.R f A C k P A x G D P e 2 C A s N v c S T n C c k J A +.t.5.T s.r.5.h.j.d.k.k.l.l.l.z.z.z.",
"z.z.l.l.z.l.d.k.k.d.a.a.a. .2 r.,.e ) Y r u v z J 8 5 8 2 * . o 8 > & 8 l i q i l f j 8 F U D 6.X.S 2.3.t.t.d.k.k.k.k.z.l.z.z.z.",
"z.z.z.k.z.k.k.z.h.h.d.0.d.4.p f.t.U o.W n C ! f u u a k b ~ t n ! i 5 t k i i 2 n K S s ) F Z i.*.U f.s.h.k.h.k.k.k.k.z.z.z.z.z.",
"z.z.z.z.l.k.k.k.h.k.h.f.d.5.V e.X.e A ! 0 j J i u 5 0 , = b A n G 5 > : 5 i < q 8 v C 3 J F R w.X.Z s.h.f.y.k.k.k.l.k.z.z.l.z.z.",
"z.z.z.z.l.z.k.k.k.l.k.h.h.s.R @.%.c )  .7 r v u t i t 5 < t 1 0 y d , 5 t u 5 q 8 A P v ' T c *. .h h.h.f.y.k.l.k.z.z.l.z.z.z.z.",
"z.z.z.z.z.l.k.z.z.l.k.k.k.k.8.t.f.T *./ 2 r J z i 0 t t < = & u l l 0 i k < : q q J Q G / R F t.0.I h.h.l.l.l.z.z.k.z.z.z.z.z.z.",
"z.z.z.z.z.z.z.l.z.l.k.f.k.k.7.;.e.W %.! 7 A F i k > : 5 % % O & , @ : : 0 & ; n u J F e G S V 0.f.D k.k.u.k.k.k.z.z.z.z.z.z.z.z.",
"z.z.z.z.z.z.z.z.z.l.z.z.z.l.X.=.9...+.E 2 J z @ 5 , O 5 < d 0 d 5 % y , 4 4 n O.a K Q C +.=.J y.h.@.z.l.l.l.z.z.z.z.z.z.z.z.z.z.",
"z.z.z.z.z.z.z.z.z.z.g.j.z.z.E -.-.R L T 2 W c @ 6 u t n , = 1 = % % < X # 6 m z + 7 K V #.#.! l.j.U u.z.z.z.z.z.z.z.z.z.z.z.z.z.",
"z.z.z.z.z.z.z.z.z.z.z.q.z.z...p.p./ D R e _ A 4 P H z b = t 1 N H , 6   : d r l o 2 A A +.#.' p.9.U z.z.z.z.z.z.z.z.z.z.z.z.z.z."
};
