/* XPM */
static char *Gold0[] = {
/* columns rows colors chars-per-pixel */
"64 64 205 2 ",
"   c #5D3816",
".  c #5E3D1A",
"X  c #623E1C",
"o  c #65401B",
"O  c #6B441E",
"+  c #6E4C1E",
"@  c #78521F",
"#  c #6F4620",
"$  c #6A4821",
"%  c #744C23",
"&  c #7A4D24",
"*  c #765124",
"=  c #7B5325",
"-  c #7D5C27",
";  c #7E5429",
":  c #8B5427",
">  c #8D5926",
",  c #83572B",
"<  c #855C2B",
"1  c #8A5C2D",
"2  c #915D26",
"3  c #935B29",
"4  c #875D31",
"5  c #8B5E30",
"6  c #8A6226",
"7  c #85602A",
"8  c #8A6628",
"9  c #8D642E",
"0  c #93642D",
"q  c #9A6228",
"w  c #956B2D",
"e  c #9A6A2E",
"r  c #95702C",
"t  c #9B732E",
"y  c #8D6433",
"u  c #8F6A31",
"i  c #8C663A",
"p  c #8D6A3E",
"a  c #936533",
"s  c #9B6432",
"d  c #956B35",
"f  c #9A6B34",
"g  c #92673A",
"h  c #946B3B",
"j  c #9B6E3C",
"k  c #977036",
"l  c #9C7334",
"z  c #977936",
"x  c #9F7936",
"c  c #977138",
"v  c #9C733C",
"b  c #9E793B",
"n  c #A3792E",
"m  c #A16733",
"M  c #A26D33",
"N  c #A16E39",
"B  c #A17434",
"V  c #A97736",
"C  c #A37B35",
"Z  c #AB7C34",
"A  c #A3733D",
"S  c #A9753D",
"D  c #A47B3B",
"F  c #AA7C3D",
"G  c #8F6A41",
"H  c #946D41",
"J  c #996F41",
"K  c #967144",
"L  c #9C7343",
"P  c #9F7944",
"I  c #9B7649",
"U  c #9C7A4B",
"Y  c #A37543",
"T  c #A97643",
"R  c #A47A44",
"E  c #AB7C44",
"W  c #A27749",
"Q  c #A47C4A",
"!  c #AA7D4A",
"~  c #B27F4C",
"^  c #A27E51",
"/  c #A5812F",
"(  c #B28327",
")  c #B3862E",
"_  c #A78234",
"`  c #AC8435",
"'  c #A6833B",
"]  c #AB833C",
"[  c #AD8A3B",
"{  c #B18137",
"}  c #B38932",
"|  c #BA8F33",
" . c #B3853D",
".. c #B38C3C",
"X. c #B5913D",
"o. c #BB933C",
"O. c #BD9A3F",
"+. c #C0953B",
"@. c #C19A3E",
"#. c #C9A03D",
"$. c #A68243",
"%. c #AC8444",
"&. c #AD8A44",
"*. c #A6814C",
"=. c #AD844B",
"-. c #AE8A4A",
";. c #B38545",
":. c #B38B44",
">. c #BA8D43",
",. c #B2854A",
"<. c #B9834B",
"1. c #B48C4B",
"2. c #BB8C4B",
"3. c #AD904D",
"4. c #B59243",
"5. c #BB9543",
"6. c #BD9B45",
"7. c #B5934C",
"8. c #BA944B",
"9. c #B79A4E",
"0. c #BC9B4B",
"q. c #A68353",
"w. c #AC8352",
"e. c #AD8954",
"r. c #B38652",
"t. c #B58954",
"y. c #BA8C53",
"u. c #B78B58",
"i. c #B98E5B",
"p. c #AD9154",
"a. c #B79352",
"s. c #BB9554",
"d. c #BC9B53",
"f. c #BB935B",
"g. c #B89C5A",
"h. c #BFA047",
"j. c #BEA14E",
"k. c #BEA153",
"l. c #BEA25B",
"z. c #B98F60",
"x. c #BB9162",
"c. c #C28C4F",
"v. c #C19344",
"b. c #C29D44",
"n. c #C1944B",
"m. c #C29C4B",
"M. c #C38E53",
"N. c #C29353",
"B. c #C19F55",
"V. c #C99459",
"C. c #C19E59",
"Z. c #C5A246",
"A. c #CAA345",
"S. c #CFA945",
"D. c #C4A34C",
"F. c #CAA54B",
"G. c #CDAC4E",
"H. c #D0A846",
"J. c #D4AD4D",
"K. c #D3B24D",
"L. c #D8B04F",
"P. c #C2A353",
"I. c #CAA652",
"U. c #C6A956",
"Y. c #CBAB54",
"T. c #C2A35A",
"R. c #C5AA5C",
"E. c #CAAE5B",
"W. c #CEB154",
"Q. c #CCB25B",
"!. c #D3B254",
"~. c #D9B656",
"^. c #D9B855",
"/. c #D3B55C",
"(. c #D5BB5D",
"). c #DBBC5B",
"_. c #C1A761",
"`. c #C5AD63",
"'. c #C8AB60",
"]. c #CBB263",
"[. c #CEB866",
"{. c #C6B168",
"}. c #CCB768",
"|. c #D1B764",
" X c #D5BB64",
".X c #D9BE61",
"XX c #D3BD69",
"oX c #D2BE72",
"OX c #DDC15B",
"+X c #D6C065",
"@X c #DBC364",
"#X c #D5C16C",
"$X c #DAC46C",
"%X c #DCC96C",
"&X c #D6C576",
"*X c #D9C571",
"=X c #DCCB74",
"-X c #DBCD7E",
";X c #E1C762",
":X c #E1C963",
">X c #E0CD78",
",X c #E3D47D",
"<X c #E6D884",
"1X c #E5D98B",
"2X c #E6DE93",
/* pixels */
"j a 5 : : 3 m S T ;.&.7.F c y d f M { b.K.b._ 8 6 r / ` ` ) O.#.#.C > s ! f.i.i.u.w.Q j j T Q ! ! ! T ~ y.V.M.<.T T T T Y Y I Y ",
"j h g 5 s s m J A A S F D j d a f M { +.b.X.x 9 9 l _ [ ..o.#.K.G.X.A E y.f.y.y.,.! Y L L Q Q =.Q E ! t.y.M.c.<.T N N Y Y Y Y Y ",
"j J h Y Y Y N Y N j j A S A A h f f Z ` Z C d 9 y l _ [ X.6.W.OXOXG.v.n.N.s.t.1.=.E P P L Q Q $.Q R ! w.,.,.~ ,.E Y j A A Y Y Y ",
"j j H Y ! ! W Y Y Y T T E F T v l l V D ] E R P b $.$.&.X.6.W.OX@X^.Y.m.C.a.t.&.%.$.Q P Q Q Q P Y I Y Y L A A E ! Y j N D A A Y ",
"J L J Y ! ! ! T R E =.=.,.%.E F T F  .%.%.1.1.=.-.-.;.:.4.0.S.K.).~.!.I.C.s.1.=.%.R *.Q P L L L v v h p y a d j L v j v A A Y L ",
"W W Y Y Y W W ! ! =.,.,.1.,.<.;.;.;.2.2.8.N.N.N.s.8.9.9.0.D.F.!.(./.E.m.8.7.&.%.D Q Q P L K v v g p y y 5 9 y a i p h v L L L L ",
"! W W Y Y Y Y R ! =.=.-.=.=.,.;.;.2.2.8.c.v.n.8.8.N.d.T.l.Q.G.G.G.F.m.0.:.%.E F E b P L b g g u u y y a a a a y y y i g h L L Y ",
"W W Y J j j L R =.w.1.=.,.1.1.;.;.;.:.;.2.2.s.8.0.T._.{.`.U.D.Z.6.5.X.:.[ ] ' F C b v c d d u u 9 u d f d f d y y 4 y d h g j L ",
"K H p p h J v Y R =.=.=.=.%.-.%.%.%.%.:.a.a.f.d.k.l.`.`.U.h.O.| } ) [ X.[ ' $.$.F x l f d d k k d d d j f l j j p d d d a g J K ",
"H i y i p h J L W Q *.-.-.=.=.%.%.%.%.-.g.g.T.d.k.g.l.k.X.( ( ( ) } [ 4.4.' &.' D l l l k k k k c v b b v f j c v v A j h h H J ",
"H i p p p H K L L U Q *.=.=.%.%.&.-.:.1.a.f.g.9.9.9.j.j.6.o.O.O.6.h.j.9.7.&.] [ _ x l l b v v v b P R v c A A R R R Y v j h h J ",
"H G G p p H K L L L I *.-.1.1.-.&.-.:.%.&.%.$.:.:.9.l.l.R.W.Q.(.#X+X`.j.4.&.] _ C t t l x x x b v b b c v B A T E R W b j J L K ",
"H K G G H K K K K L K Q =.a.1.1.;.7.:.:.$.F S %.8.R.oX&X*X%X=X,X1X-X}.k.4.4.[ [ _ x t z D D C B x x x b B B S E E R L L K K L I ",
"K K K I K K K J L L L R e.g.d.d.9.s.d.s.7.$.E %.0.Q.&X&X=X%X,X1X1X-X].j.4.X.[ ' ` _ ' [ $.[ D C C D D B B A D E E R A L j K L I ",
"U U U I K J H H J I =.=.t.a.a.a.9.d.C.d.9.1.1.8.B.Q.XXXX*X*X=X<X=X#Xj.h.h.j.h.X.4.4.7.7.9.-.` ' ' ' ] %.Z C S R A A A L J I I I ",
"^ ^ ^ U I L h g J Y *.%.-.&.&.%.;.8.9.s.9.5.;.[ 4.0.I.I.[.#X*X%X(.Q.Z.h.9.j.j.9.9.d.l.P.k.0.[ [  . .;.] F F A D R D Y Q Y W W ^ ",
"q.q.^ w.^ W L h h v P Q $.' ] ] ] :.8.5.7.7.' C B D ' &.9.l.U.W.G.G.Z.@.5.m.D.D.D.0.P.D.d.5.X. . .[ { ;.F F S S E E ! ! Q Q Q Q ",
"q.q.q.u.r.w.T L h h c z b $.$...1.d.8.0.P.d.$.f 0 a 9 9 r z ' X.h.Z.@.o.} X.m.D.0.5.6.0.D.6.4.{ {  . . . . . .;.,.t.,.=.Q ! Q ^ ",
"q.~ z.u.r.! Q L v c c b R &.&.-.:.9.7.0.E.l.-.b j a < = + + - z ` X.} } ) +.F.b.6.o.O.5.0.5.X. .}  . ... .;.;.;.2.,.,.! ! ! ! ! ",
"^ u.^ ~ ! E E W Q $.$.$.&.3.-.-.1.4.7.P.`.`.s.E s a 4 % . . $ - 8 r n n Z o.A.b.O.| 6.6.D.P.0.5.v.v.>.>.>.>.2.2.;.,.! ! ! ^ ! ! ",
"! W ! T ! T Y ! *.-.a.9.7.3.a.7.1...:.0.E.{.k.%.s a 1 % o . X o O @ 6 r B ` o.5.6.6.F.I.I.I.B.m.n.v.v.v.c.>.;.;.E E ! ! ^ ! ! W ",
"W T Y Y Y J Y T *.-.-.-.-.-.-.7.9.8.0.P.E.}.R.1.f 1 1 < - # O X   o @ < y d B 5.b.Y.Y.Q.Y.Y.I.F.F.m.n.n.n.n.2.<.;.E ! ! ~ ! Y T ",
"W T Y Y J W J W Y P P P P $.%.9.k.P.P.h.j.j.P.8.D l c $.b 7 % O # # = < 5 5 f [ 0.Q.Q.(.Y.H.G.G.W.Y.E.I.F.m.s.s.y.1.,.;.E ~ T T ",
"T W L L Y J J J J h h g p v E 7.k.Y.Q.I.0.6.6.0.7.-.9.U.l.$.8 = % & < 1 5 y j E >.Y.Q./.H.F.J.!. X XXX/.Y.I.T.T.C.s.1.;.<.E ~ ! ",
"W W J W I L J J H J h y y j $.7.0.0.9.&.D C ` 6.j.D.Y. X+Xk.$.c h : : 1 5 f Y E ;.m.!. XL.J.L.).$X*X$XXX|.|.].}.'.T.7.;.%.;.=.! ",
"g J J W W U L j K J h a 9 d l x x x l d u 9 d x 4.0.I./.+XE.k.9.t.Y q 2 1 a Y E ;.n.I. X.X~.L.).;X$XXX$XXX}.].E.E.C.7.;.E E Y L ",
"H H I ^ e.e.$.W W b j a a s 0 0 9 a 7 , = ; < 0 l D :.6.j.j.P.Q.Q.7.Z q 3 q M A Z ;.0.Y.E.W.J.^.)..X/.Q.].U.P.m.B.C.9.:.F P J H ",
"I W ! ~ s.s.y.;.%.Q L j j f 0 0 a a y , , ; , 1 9 0 d B ' x ' 9.E.Y.5.V M m f e e C ..m.m.F.F.J.~.W.Q.Y.U.P.6.6.m.C.d.1.%.R K G ",
"g.7.:.:.N.N.c.2.,.! Y Y Y N M M Y A h 1 4 5 a a a a s f d 0 d ' 6.F.m.+...F C B M Z X.Z.h.X.X.6.b.Z.Y.W.W.Y.D.Z.0.0.j.4.-.$.*.*.",
"E.0. . .;.2.2.y.t.,.! Q R A M S S j a a y j j N f s f s 9 1 1 a C 4.v.6.>.] B e f Z 5.D.h.6.X.[ [ 5.G.).@XOX!.G.F.h.9.9.3.$.3.p.",
"J.5.A B S =.y.i.i.t.=.! W T S S S N s j v E E E Y S N N a a a a j F :.5. .B w 0 e B :.6.j.h.9.&.%.` 6.(.:XOXK.A.b.X.[ [ [ ' j.k.",
"@.` 0 a Y r.i.i.i.t.=.! T T T T S A j A ! y.t.! Y A Y j h h a h a d x t e 2 1 3 a B [ 4.4.4.7.3.F B ..W.OXK.@... .[ _ _ / ` O.S.",
"@.Z 3 j ! i.f.f.u.r.Q L Y Y R =.E T T E <.M.c.~ T T Y Y L J N h j h h s a 3 s N N B ] ..%.B R D D M  .Z.G.b.` t r l n / / ` O.S.",
"J.X.B T ,.f.y.y.,.=.W v v W ! *.Q ! ! t.y.M.c.<.T Y A Y Y T Y Y j h a a a s m N A A R E Y c h a d f Z O.b.X.C 8 8 l ` [ X.| A.K.",
"OXS.n.n.g.N.t.,.=.! R b I W Q $.R Q ! w.,.~ ;.;.E Y N A A T Y b Y j h J Y T Y Y j j j B A A A d f M Z Z C C f u d k ' [ X.6.K.OX",
";X).I.m.C.a.t.%.%.R Q Q W Q Q Q Y Y Y I L A Y ! T Y v A A A A A j J J Y ! T Y Y Y Y T E ;.T F A v l Z ] ' E R L P D $.&.4.6.W.OX",
"^.~.~.P.C.s.1.%.%.$.*.Q P P L L v v h i y a a j L L h b A A L L W J L Y W ~ ! W Q E =.,.,.%.;.S F S ] %.%.,.1.-.-.-.-.7.4.6.F.K.",
".X/.E.m.0.1.:.%.D R Q P K v v h g h g y 9 9 y a y h h j L Y L Y W W Y L Y Y ! W ! =.,.=.,.=.,.;.;.;.2.2.n.N.N.N.8.8.7.9.9.D.F.!.",
"Y.F.m.0.:.&.%.$.E A L b v h u u y u y a a a y i y 4 y p h J L W Q Q T Y Y Y Y W ! =.-.,.=.&.,.;.2.2.2.8.2.v.2.2.n.d.d.l.U.E.G.S.",
"6.6.....%.' F D C b v c j g u u u 9 d d d d a y y y y d h h H L I Y L J j N Y W =.=.w.-.=.,.1.1.;.;.;.;.2.8.8.8.8.T._.{.`.Y.D.Z.",
"} } X.X.[ ' $.$.' x l l d d k k d d d c l f j j h d d d a g H J J H g g h J J Y R =.=.=.=.=.=.%.%.[ %.-.a.f.g.d.T.R.`.`.U.D.o.| ",
"} } [ &.&.' &.] D l l f k c k k k b L v c j j c v v A j h h H J H G i i p H J L W *.*.=.-.=.%.%.%.$.-.1.g.C.g.d.d.d.d.d.4.} ( ( ",
"h.h.j.6.4.&.] [ C x l l v b v v b b P v l A A R R R Y v j h K H G G i i p h J L P I Q *.=.-.=.&.%.-.-.1.a.s.d.d.9.9.9.d.6.o.o.o.",
" X[.`.k.4.-.` ' _ t t l x x b l v b b b v B A R E R R L j h L L J G G G p J K I L L I *.=.1.,.:.&.-.:.:.%.$.%.;.:.9.T.E.U.W.Q.(.",
"1X-X}.k.4.4.' ` C C t x C D C b b b b b l B S E E R Y L J J J I H H G G K K K K K K L W =.8.1.1.:.:.1.:.%.C R %.8.R.#X&X*X+X>X,X",
"2X-XQ.k.4.4.[ [ [ ' ] ' &.$.D C C D C B B V D T E Y L b J J I I K K K K K K K H L L I $.1.g.g.s.9.s.d.s.7.%.E %.0.].&X&X=X%X,X<X",
"<X#Xj.h.0.j.0.6.4.&.9.9.9.&.] ' ] F F ] S C D T Y A v L L I I I U U U I K K G H J I %.=.1.a.a.7.8.d.d.d.9.1.,.5.B.E.+X+X*X*X>X=X",
"+XQ.Z.h.6.j.h.9.0.0.k.P.k.8. .[ [  . .;.] F D S D Y R T W W W ^ ^ ^ ^ U U K h h J I *.=.=.-.%.&.;.9.0.d.8.7.:.;.4.0.k.U.[.#X%X@X",
"W.K.h.O.o.m.D.D.j.0.P.D.d.8...[  . . . .F F F F T E ! =.! W Q ^ ^ ^ q.q.Q W J h c v P $.R F ] ' ] 1.5.8.5.7.' C C F ' &.9.l.U.G.",
"Z.Z.O.O.} o.m.Z.h.5.6.0.D.5.o.[  .|  . . .E F ;.,.2.=.! ^ ! ^ ! w.q.u.e.r.=.T J h p k v b $.%.%.1.0.8.0.T.d.$.d a 9 9 y u z ' [ ",
"} o.| } ) +.F.Z.6.o.5.5.6.5.:. . . .+. . . .;.<.2.,.,.! ^ ! ! ! w.r.r.u.r.=.! Y K c l b ' -.&.&.4.8.8.k.R.l.-.v d a 1 & + + - r ",
"8 r t x Z o.A.b.O.| 5.b.D.P.b.5. .o.c. .c.>.>.2.<.,.! ! ! ! ! ~ ~ ~ r.! ! ! W T Q $.$.$.&.3.3.-.-.:.7.k.].`.s.E f a 4 % X . $ * ",
"+ @ 6 w l ` >.v.6.b.D.F.I.I.D.0.m.n.v.v.5.2.2.;.E E ! ! ! ! ! W ^ ^ ! Y T T Y W $.-.7.9.7.7.7.9.7.[ :.0.E.].d.&.s a 1 % o . X X ",
"  o & < y 0 C 4.D.U.Y.E.E.Y.I.F.F.n.n.n.n.5.2.,.E ~ E ! ! ! T Y W ! T Y J J Y ! =.*.3.-.-.-.-.7.9.7.0.P.E.}.U.7.f 1 < - - + $ o ",
"O O = 4 y 5 f ] 6.Q.|.(.J.F.G.G.!.I.E.I.F.m.8.y.2.1.,.,.~ E T Y W Y W J Y W L Y L W U P P R =.8.P.F.P.h.0.k.P.8.F j v $.b 7 + + ",
"% = < 1 5 y j %.2.Y.!./.G.A.J./. XXXXX|.Y.I.R.T.T.s.1.,.,.,.,.E T Y Y Y J L J L v h h p g j %.7.B.U.Q.P.0.6.6.0.7.:.a.U.l.' 9 = ",
"a 1 3 1 0 h A E ;.m.E.(.~.J.J.).$X$X$XXX|.|.].].'.T.7.;.%.&.=.Q Y J I W I J H H j H h y i j $.7.0.0.6.&.' C [ 4.D.P.Y. X#Xk.&.b ",
"1.T 3 2 1 a A ;.;.n.I. X.X~.L.~.@X$X$X#XXX}.].E.R.C.7.&.E E W K H J J W ^ W L J L L h a 9 0 c C x z l d 9 9 w C :.0.F.(.+XQ.0.9.",
"E.7.V 3 3 3 s A S  .5.Y.Q.J.L.^.).).(.Q.'.U.P.B.B.C.9.;.E D z G G H W ^ e.-.! R W L j d d 0 0 a y d 5 ; ; ; < 9 l D &.6.j.j.k.Q.",
" XI.v.Z M M f e M C ..m.D.D.F.J.!.!.Q.Y.Y.P.0.6.m.B.d.7.$.Q K G H W ! ,.f.f.2.;.%.R L j j f 0 q a a y < ; ; , 1 1 0 f x _ _ $.&.",
"D.F.Z.5. .] C B M ` X.D.6.4.X.X.Z.D.G.W.W.Y.F.b.b.0.d.7.-.$.*.q.p.9.:.;.8.N.2.2.,.E R Y Y N s M Y N h 4 4 5 a s 3 a f f u a h v ",
"` 4.5.5.>.` B w e V 5.D.D.6.X.X.[ 4.G.+X@X+X!.S.F.m.0.7.&.&.3.l.U.m... .,.2.2.y.t.,.! Q R S N V A N a a y j j j j f f f y < < 9 ",
"b F :.5. .C w 0 e B :.b.h.6.j.&.] ` 6.OX:XOXK.A.b.X.[ [ ' [ 6.J.Y.5.A B T ,.y.i.u.t.,.! T T S S S N s j j E T E N T N N a a a a ",
"a v %.[ C 3 : : 3 0 _ [ 6.9.l.l.-.l [ W.OXK.#.O.5.X./ n C ` O.H.@.] f a A ! i.x.z.u.r.! W T T T S A f A T t.,.! Y T Y h a a a 1 "
};
