/* XPM */
static char *Grass[] = {
/* columns rows colors chars-per-pixel */
"64 64 38 1 ",
"  c #0E750E",
". c #0E7C0E",
"X c #176617",
"o c #166C16",
"O c #186B18",
"+ c #157515",
"@ c #147C14",
"# c #187218",
"$ c #187B18",
"% c #068F06",
"& c #0E840E",
"* c #0C8C0C",
"= c #069406",
"- c #059C05",
"; c #0C940C",
": c #0C9C0C",
"> c #138413",
", c #138B13",
"< c #188318",
"1 c #188B18",
"2 c #119311",
"3 c #119B11",
"4 c #05A405",
"5 c #04AC04",
"6 c #0BA30B",
"7 c #0AAB0A",
"8 c #04B404",
"9 c #04BC04",
"0 c #09B309",
"q c #09BA09",
"w c #11A311",
"e c #10AA10",
"r c #04C404",
"t c #02CB02",
"y c #09C309",
"u c #02D202",
"i c #01DC01",
"p c #00E200",
/* pixels */
">#>*ui73@$>:9t423<@65u7*w#+6rr8;6$>6u94w2$279552,<2:98=.3@1-898@",
"9*7*ru9r477-5r5r96;64t8ru;-788r49*76r88iq67754qur7q685-4r*7745t4",
"7=:&qr80=q:;684806*:-q4qq;;:659=5;-;q57r77-w4-59007244=-7;6;-79-",
"6&*+3067&72+&7-66-.127-67*,>2-0*6&,>:660::2,*;67663>;;%;6&;>;=0*",
"2+$X@22;>3$#o2*2;,#$$2*3w@$$@>;&2+$#<,;w*,<$$@2:22>#>@ &2@1<@>;@",
"$$*-#+>1#@*4$1>@$>>6><@<,O27$#$X@O,;$#<2$$2-@#>1$$*4>#O+,#eu##$o",
">9987,@;>=9962<2;7880,#,3:98->$+>;5-8>$w&5957>>;24r96>@.36ip=>#>",
"5u9589:t8-587rqtt955q5-8t674656=7:4;qq:t9994547rt89879q5t9uu-8-t",
"4r8465-94-45;qq9r84-7644q::3;-5*6*;>676q458;::789787:7r-r8tr*749",
"-94;;6*5-%-6267706;,2,*;7;221>;.;@@+>*;7:6:>,*-77-6;*-q;85qq&;;7",
"*8:;,2&6**=:>2:;w;;;1>>&3>7y@+@O$>*-+@,2,2:;>>2;:;6;@26*6676+,&6",
"@;&>11$3&.**><233:-6;>>>3-tt;,#&>9856>@3*;56;@12;;;>>>2>;;3>O$+;",
"O@+@ue+2>@,*7;*;6;::456;q8rr-8;t5u8788*q6;665633;;2,5;,@2,@@-*$$",
">+,=ii66&,;788777;677q9-q59y=7494r5478-q4=6858q673:598-*w>;7899&",
"t-8-tu9t5q94785rr754-8q497rq*-;7=94-67:94-7065qtr89785-8t-9858u5",
"9-4*9r89495;6448046;>67:8773@**6*8-;,;*8-;-6;688qq7;44-49-7445t4",
"0;;&0060;7:*;;;66;;@@23;w;,>O$@2.;&><2>w*&,,>,6667;,;;;:7*-2:4q=",
"6&*@67;6,62@;;22,2>@-2>>2>$+-*@@o+#$t7+2@++>-;12;2>>6;&*:&,1;:0*",
";+$#2:;3>,>;;6-22>,:58;&;>,6599&>+>;ii43&>>658-33,>2;6*,:@11,&;>",
"$$;->,2w22:86:6077q757-59;q858u5t:q-tt9r-78470477;;5;;*2w@7t>@$O",
"*9985;27;48q7-6q5q8484=7q-8748t49-7=rt89-r86586q075846;;74uu-*+>",
"5t858q-t54457789rq7:54=48;6:-49;5;-&qr7q-q7;484qq5446988t8rr-8-t",
"4r7-67-q6-6-*-0q776,6;%;7*;,;=8*6&,@:067*7:>*66776;:;0q4q7q0*4-9",
"-86;2;27;*;,>,:w:3,@>..*:>1<@&;@;@+X>2;;,3>+#;;::;>,>;6;7-66&:;0",
"*7;6>>>3,@;6>$121>;6,+o+,+eu$#@O$$*-#$>,@>*-@,1>1,*6>,2,3*67$>*6",
"@-;32>@3*;84-@,;;6r96>@&;4pp=&+&>9984,>;&=8962>2;4456,1;w;7w>@@,",
"O>>;r7>q74q48-6qr5987884t9uu-8=t5u8589;t8-887rq9t845q7-6q6;65;@@",
">>;7rq4q54946-88959565t-rquy*5-r4t8475-94=58-qr8r5458577y668898>",
"t-86074r85r-:;7q84q4;6q;88rq&:*7;94;;6;8-=4727qqy7467:67t65q77r5",
"946;,;:q677*,&:66-7&@,7*660:@,*6*8:;,2&6*%;->37677;*,;-6q-:62684",
"0;2>@+>w;33$>o,23,3oo$2>;;2$X+$*>;>><1@;& @>O1223;.@<1,2e2*@1,-:",
"6>#$9,#,1,1<7@<>@>1+7*<+,1$#-,$$O$##rw#1#O#<42<$1>#$43$$2@#$8,>*",
"6+16t96w2$279573,<2:98=@3@1:88q@>#>*ui73@$@:9t423<$-8u42w$+69r8;",
"9*76r98iq677549treq-85=5r*7748t49*7*ru9r-7565r5r96;64t8rt;6788r4",
"0*-3q55y77-64-8q0q7;44%-7;6;-4q=5*-&qr58;q-;484807*;-q4qy;:;679-",
"6*,>:660::,,*;67663>:=*;6&2>;-0*6*,+6066*72+&7:66;>,,7-67*&>;-5*",
";+$#@*;6,,>$$@;:22<#@@ &;@,<>&;@;++O$,;;@3$#O2*2;,#@@2;26@$$<>;>",
"$O,;$$<1$$2-@#><$$,7>#o+1oeu+#$O$$,-#$>1#>,4@1>@$<&4>$@<1o,7$#$X",
">;5-7>@3>5r77>>;;4r94,@.34ip=>#*>r987*$3.=9962<22758q,#,3;98->$o",
"7:4;qq6t9994547tr89879q5t9uu-8;t5u8589:t84595r8tu955q5-8t447654-",
"6*;&:76q758;;-5q9584-7y-r8tr*7-94t5477-97-45:099r86-7-44q-633:5*",
";@$+>;;6;6:>>;:76-6:*6q;059q&;;7=94-;:;5-%--,67706;22;*;7;22>>;.",
"$@2-+$13,;::>>2;:;6;$26*6676+*&6*0-;,2&6**;:>2w;:22;1>>>3>wy@+@O",
"&9954>@3*;762>>2;;:>>@2>;23>o$+2@2&>>1$3&.*2>>,33--62>>&36tu;,+>",
"5u5588*q6;-6563:3;;*7;,>21@@-;$@o$#$u7+2>@,27;*;w;66476;q8rr-8=r",
"4r5478-q4%6858q673:788-*6>;7899&&+*=pu46*,;488767;674qq-q79y=749",
"=95-67;97-7065qrrq9485-8t-9858u5t-8-tu9t5q9758899777-0q4959q*-=5",
"*8:;,;*0-;-6;60q887;44-49-7445r49-7*9r89-95;4448844**67-7776@,*6",
".;&>11>6,&&,>,:7673,;;*-7*-;:4q:7;:&0q77;7:*2;:66;;@@,:*62;>O$@*",
"O$#+t7$2@+$>4;,222>>6;.*6>,1;;5*6&*+w7;6*w,@;;;2,,>>:;,>2>++-*@$",
"&#,=ii63&@,:78-33,>*;-,,3@1,,*;@2+$#,:;3,,<2;6:22<1-88;*3@,659y>",
"t-8=tt9r-08775607;:7::*2w@7t>@@O@@*4>,2w22-0-667778755=59;q858u5",
"9-5%rt89-r8658-0555867;;76tu-*+&>9987;20;-897-6q0q8484=4q-8745t4",
"8;:&qr8q-q7;487q974649q5t8rr-8-t5u8588-t8445758r9q7:54=48;6:-59=",
"6&*@:067;7;>*66776;;;784q78q;6494r5-67-q4--:;-00876*6;=;7*2,;:8*",
"2+$X@2;;&3>++;;::;,2>;6:7:66>:;5=84;2;;7;*22>,:6:31$>>.>;@1>>&;@",
"$@*-+$>,$>*-@,,>>,,4>12,3,60@>*6*7;6>1>:>@:->$,2>>;4>#o$,$eu$#+O",
">9987,$:>=8962>2;4456,1*3:7w&@+2>:;:2<@3*:84-@1;24r96*@.;4ip;&+&",
"8u8589-r5-595rqqt8459567q6;67;@@O>&;r7*q74q48-69r5r879q4t9uu-8=t",
"4t8465-94-586qr8r5478776y6-889q&>>;4rq6q54q66-0qq595-5r-r9ut%749",
"=94:;6;8-=47;7qqy5467667t65q75r5t-86074r889-:*6q84q4;6q=q5rq&:;7",
"*8:;12&6;%;;>37606;*,2--q-6:2-84946;,;;q677;,&:76-7&+;7*670:+*&6",
">;.><1@;& >>O1223;@@<1,;72,@1,6;8;2@@$>6;3;$>O,22*3OO$2>2;;$O#+;",
"O$##rw#1#XO<63$$1>O>63$<1@#$q,<*6>$$9>#1,11<8@<<@>1+7,<$1>+#-,$$"
};
