/* XPM */
static char *Gravel[] = {
/* columns rows colors chars-per-pixel */
"64 64 35 1 ",
"  c gray20",
". c gray22",
"X c #393939",
"o c #3F3F3F",
"O c #434343",
"+ c gray28",
"@ c #4B4B4B",
"# c gray30",
"$ c gray32",
"% c gray33",
"& c #5A5A5A",
"* c gray37",
"= c #606060",
"- c #646464",
"; c #686868",
": c #6D6D6D",
"> c gray44",
", c #747474",
"< c #797979",
"1 c gray50",
"2 c #818181",
"3 c #848484",
"4 c #888888",
"5 c #8E8E8E",
"6 c #909090",
"7 c gray59",
"8 c gray60",
"9 c #9F9F9F",
"0 c #A2A2A2",
"q c #A7A7A7",
"w c gray66",
"e c #ACACAC",
"r c gray70",
"t c gray71",
"y c gray72",
/* pixels */
"2829w084:.4ww416-7q94;@&3#%-:44&2y>46>4<785<>:39eww9=-461=O%8785",
"83128842=.,36q61=-352;&988q62-15563qq845=*---26wrqq8,%-:&#$40ew0",
"q6<:441,*:34157,.>3,>*:70q741<5q8<57764,;>;-26ww0063;$404>>6wrww",
"97,$=:;*%5081<,;#:q5;*369741378q92<7742>-4975790861:*:5erq178qqq",
"63-@<9;:=6805<;#=0rq5<63573<38082::695<:2we02<773,:;170req72,278",
"3:$707761+152,;*68te9622686<,462-*1983<17wwq6:12>=-<60eweq05-->3",
",&40we872@&632>:70t097634452:><-#o>852>4890071;;*$=60wq00974:%<:",
";19eq985>%20w86148q87653311,==;;#.2973,267784<-*&$35wwq9975<;126",
";70w984,=<9q9763<584242,,21>%;q5=&5094:>24552;-*<4390097641;>8q8",
"<43794,=;4796643244>=>,;22>>,6734=3841;-:1354,<6699845454,;28w99",
">$,65>&=2777533221,&O&<,2>;280894%;2;-,,133424570093,;,,>-279997",
"=.;2,&$-37641<12,<,-O-6901148997,O&83265665548642682-6;-=-609773",
"%#384->2<132>>,<<3<3-,60q71:<33<&@2wrq98857q33<=;76<5753<122453>",
"#;6eeq6:,1<,:==>33332489972=-=-=@,9rq99005795,&#<w73ee741>;=*:;=",
"$20ew984<4>1=$&354446097774:-78r-7ee099984354,-:7eqerq5,*<&>2#o$",
"30809741<2553>3297883887763>=6wr660088786<:1>;:17rr088<@46551+$>",
"e84:54>=;3896467ew08>246542:,9ee9;4765441;;43:377qq21<#17875,*2q",
"t8-:<>-$=4884700qq07<*;<22,=,0re8,;<1>::=>8996991371%%<3452>=5qy",
"08<2503-569768087884:$:,>,-:6ww06:&<>&**,9qqqq95:1<*@=3252:&,0re",
"52-29w07888523753641;*377>=4qew82-:40533<5w8974,>36<%&2,,=&&6qw0",
":=18qq979543<,<2<33>-,7q96135575:%50ww85$2063:==<584;#;1<<-;6994",
"#,70q98q81=35>;=-36<:79w094;;>51&$6erqq5;487<&%:<465,<14774:,54:",
"#5qq87884=:491:>=<3,>79q0971-=;=@49erq961<12;-,680984555565142;$",
"57875452-*8q8<:6542->8w8741<-@##-3ete095<%*;>1178eq7444396651;>-",
"qq752>;-%<804-50893>-6073>=&#@>,79erw073:$157q03600313225776<:9q",
"e56421,&*685,;8q9084:553>&#-*<5q6:8wq96<=*40re024884>>,26772,6wy",
"84,8w92>581;<8807873=22>$+*748794&39972>&:7ere02:24<%&;35751<588",
"1-<9e064482*1909641,*&--&o<859972#,42,:=&,8req7,%-:&$;69q6555961",
"7390063,603>:4662,:&%,95-%<55763;@5q6555*<qrw83:%785:50weq744808",
"128062><7w8:%$:,:*%%:272541,,32,**7ere003&,7851=>7re8769ew81;145",
"*465<;;5qwq5*&%=#.*:1-,7983;%===%>9erwq93O<1>>=*60et07,3w05-&:<;",
"*1<>-%,9ww06<;16>268216073:$>5:*%58rww07<o195;%-7wew81&-21=@=42#",
"2t,46,3<6851>:39eqw9*-351=+&78852829q074;.4ww415=5q95;@*4**;:44*",
"464qq945=*--=35weqq7,%;:&@#40ew083228742=o,36q61=;442;&988q62-15",
"9<57754,;>;;27qwq973;%404>>7wrwwq5<:542,*:34147< ,2<>=>60q74<<5q",
"82<7742:-4875799851:=:4rrw168qqq97,$=:-*$5081<,;#:q5-*379741378q",
"2>:6941:3weq2<773<;;170rew72>27863-@<9-:=6905<;#=0tq5,63573,3808",
"=*1083<17wq05:21>=-<60wweq95;->33:$70777<@143,;*58te9622696<<462",
"@O:851,4790081;-&$-60wq00074:&,:>*40we872@&632>:6qr097534352:>,;",
"@.2073,2678741-*&%35wqq08741-125-19ew985:&29q96258q86752321<==;;",
"*%5w83::24551;-*<4399097741-,809;80w974,=<0q9753<584232,,21>%;q5",
"5=2842:-:1454,<6609845543<;28w99<42794>=;4887544245>=>,:22,>,773",
"5$-2--,<132424570003,;,,,=279997>$>65,*=2877532221,&+%<,2>:27078",
",+*83264666448642671-6;===5q0763-.;3>*#-37632,12,,,=O;690<137097",
"%@2wtw98856q431-;76<5753<222463:%$384->2<232>><<<3<3-,70q81><33<",
"@,0rw09006895>&#,w73ee752>-=*::*#;6etw5:,1,,:==>33332479972-=---",
"-6ee099984264,-:7ewerq6,*<&>2#.$$30ww974<4,1-$%364446097674:-68r",
"7600888751:1>;:<7te088<@4665<#$>30809731<2552>3397884787762>=7ee",
"9;476544<;;43:477qq2<<$<8875<*2qw84:54>=;3897457eq08>246542:,9ee",
"8,;<1:::=,8906992471%%<2452,=4qyt8;;<>-$=4884600wq07<*;<23<=,0re",
"7:&<:&*=,9qqqw85><1*@=3251:&<0rr08<2593-669668088874>$:,:,-:7ww0",
"1-:4063315w8974>>36<%&2<,*&&60w061;19w9779852386355<-*367>=40eq8",
";&50eq86$1072:-=<583;#;1<,-;6994:-28ww0895431>,2<33,-,7q06134686",
"%$6erq05;486,&%:<466,<14774:,54;#,6qw97q8<-34>;=-26<:79w094;;,41",
"+49req961<22;=>770983555665141;##6wq87984=:592>>=<3,>79q0971-=:=",
"-3eteq95<%*;,1179wq8354396661;>;56874452-*808<:6542->8w97311=@##",
"70eew083:$157w02700312225876<;9wqq752:;-$<8q3-4q804>-5974>=&##><",
"6:8wq95<-*40ee033874>>,25772,6qye47421,&*584,;8q8084:554:&#-*,5q",
"4&49962,&:6rtw02:23<&&;25751<58983,8w92>591:18908773-21:$+&74879",
"2#<32<;=&,8trq7,%;>&$;69q65559611;<9r063472*2998642>*%;;&O<86987",
";@506655=<qeq84:%775:50qeq6548087390063,504>:3562,:&%,95-%<55763",
"**7ere004&,785<=:7re8869ew8<;245<38062><7w8:%$:,:*%%:171541,,42,",
"%:9eeeq93O<1:>-*60er07,3w05-&;1;*466<;;6qqw4*&$=$.*:1;>7984;%--=",
"&59rww071O195;%-6qrw91*-66,%=41#*12<;*>9ew07<;27:268325974>%:5;*"
};
