/* XPM */
static char *Iron[] = {
/* columns rows colors chars-per-pixel */
"64 64 226 2 ",
"   c #030202",
".  c #0A0604",
"X  c #0B0806",
"o  c #080708",
"O  c #0D0C0B",
"+  c #160B06",
"@  c #120E0B",
"#  c #14110E",
"$  c #1C130D",
"%  c #0F0E1A",
"&  c #151412",
"*  c #1A1512",
"=  c #1C1914",
"-  c #18161A",
";  c #1D1B1A",
":  c #22170D",
">  c #231C15",
",  c #2A1C13",
"<  c #221D1B",
"1  c #2A1E1A",
"2  c #242215",
"3  c #25211D",
"4  c #2D2619",
"5  c #2B241C",
"6  c #34251C",
"7  c #34291E",
"8  c #1D1D24",
"9  c #211F24",
"0  c #1F2020",
"q  c #262423",
"w  c #2B2624",
"e  c #2E2A22",
"r  c #28262F",
"t  c #2D2B2A",
"y  c #322721",
"u  c #332C23",
"i  c #392C24",
"p  c #322D2A",
"a  c #3C3226",
"s  c #35322C",
"d  c #3A322A",
"f  c #38352A",
"g  c #3A2D30",
"h  c #3C3533",
"j  c #383737",
"k  c #3D3B33",
"l  c #42352B",
"z  c #453B2C",
"x  c #4A3B2E",
"c  c #433B33",
"v  c #433835",
"b  c #4A3E34",
"n  c #423E3B",
"m  c #523F35",
"M  c #49422F",
"N  c #454035",
"B  c #45413B",
"V  c #4C433B",
"C  c #4C493B",
"Z  c #544637",
"A  c #51463E",
"S  c #534B3C",
"D  c #383841",
"F  c #413E4A",
"G  c #3E4342",
"H  c #4B4441",
"J  c #484647",
"K  c #4D4A44",
"L  c #534B43",
"P  c #5B4E45",
"I  c #564B48",
"U  c #514C4B",
"Y  c #585145",
"T  c #55524C",
"R  c #5B534C",
"E  c #5E594C",
"W  c #4E4D50",
"Q  c #534D52",
"!  c #5B5553",
"~  c #5E5A51",
"^  c #5A575A",
"/  c #62554A",
"(  c #655A4D",
")  c #6A5B4D",
"_  c #635C53",
"`  c #675B57",
"'  c #6C5D54",
"]  c #645B5B",
"[  c #725F54",
"{  c #6C6455",
"}  c #65625A",
"|  c #68655B",
" . c #6C635C",
".. c #71635B",
"X. c #746A5C",
"o. c #796B5E",
"O. c #5A5A60",
"+. c #656561",
"@. c #6C6664",
"#. c #6E6A63",
"$. c #6A676D",
"%. c #736665",
"&. c #736B64",
"*. c #7B6C64",
"=. c #736D6C",
"-. c #796E6B",
";. c #6F7166",
":. c #767164",
">. c #7C7365",
",. c #77726C",
"<. c #7C736C",
"1. c #7F796E",
"2. c #6E6B74",
"3. c #736E72",
"4. c #747272",
"5. c #7A7473",
"6. c #7D7A75",
"7. c #747278",
"8. c #7A7579",
"9. c #7D7A7C",
"0. c #81736C",
"q. c #877869",
"w. c #827A6D",
"e. c #807672",
"r. c #837C74",
"t. c #8B7973",
"y. c #847C7B",
"u. c #8D7F7B",
"i. c #917F76",
"p. c #8C836D",
"a. c #8A8274",
"s. c #86817B",
"d. c #8B8579",
"f. c #8B837C",
"g. c #92857C",
"h. c #95887A",
"j. c #7E7A81",
"k. c #827D82",
"l. c #8C7F80",
"z. c #7D8280",
"x. c #848283",
"c. c #8B8482",
"v. c #8E8984",
"b. c #858188",
"n. c #8A8589",
"m. c #8D8A8B",
"M. c #938682",
"N. c #938A83",
"B. c #9A8D84",
"V. c #9A8D87",
"C. c #938D8C",
"Z. c #9A9387",
"A. c #94918C",
"S. c #9B938D",
"D. c #8E8A91",
"F. c #918E90",
"G. c #949393",
"H. c #9B9592",
"J. c #9D9A95",
"K. c #989599",
"L. c #9D9C9B",
"P. c #A3958C",
"I. c #A9968B",
"U. c #A29792",
"Y. c #A99792",
"T. c #A39B94",
"R. c #AA9C93",
"E. c #A39D9A",
"W. c #AA9E9B",
"Q. c #A4A096",
"!. c #A4A19C",
"~. c #ACA69B",
"^. c #ABA39C",
"/. c #B7A89C",
"(. c #A39EA3",
"). c #A6A3A2",
"_. c #AAA5A3",
"`. c #ADA9A5",
"'. c #A6A7A8",
"]. c #ABA6A9",
"[. c #ADABAB",
"{. c #B7AAA3",
"}. c #B1ABA4",
"|. c #B2ADAB",
" X c #BDB0A2",
".X c #B4B1AD",
"XX c #BAB2AD",
"oX c #B4AEB1",
"OX c #B5B3B3",
"+X c #BBB5B3",
"@X c #BCB9B5",
"#X c #BBB6B8",
"$X c #BDBBBB",
"%X c #C2B8AB",
"&X c #C2B7B0",
"*X c #C2BBB4",
"=X c #C3BDBA",
"-X c #CCC1B5",
";X c #C4C1BC",
":X c #CAC3BD",
">X c #D1C2B7",
",X c #BDBCC0",
"<X c #C3BEC2",
"1X c #C5C2C3",
"2X c #CBC6C4",
"3X c #CCC9C3",
"4X c #CBC7C9",
"5X c #CECBCD",
"6X c #D3CCC5",
"7X c #D2CECC",
"8X c #D5D1CD",
"9X c #DBD5CD",
"0X c #CFCED0",
"qX c #D4D2D2",
"wX c #DAD6D3",
"eX c #DDD9D6",
"rX c #D7D5DA",
"tX c #DDDCDB",
"yX c #E1DDDC",
"uX c #E0DFE2",
"iX c #E4E3E3",
"pX c #EAE6E4",
"aX c #ECEAEB",
"sX c #F0EFEF",
"dX c #F5F4F5",
"fX c #FAFAFA",
/* pixels */
"=X(.j.$.2.(.uXfXdXiX=XE.:X=XI.I.%X6X}.7XiX|.^ 8 o     O G 8 o o s k J [.3XM.f O q f.|.].rXdXuX'.c.H.f./ & & / _ w.XXeX8X;X3X8X3X",
"=XE.$.2.G.$XuXiXqX,X].C.|.*X/./.>X9X2XwXiX1X_.k.q     o - r - # & t ^ [.;XT.R > : ' S.(.0XiX0X(.8.:.0.e.v ; / ` L H.wXwX;X}.L.).",
"OX].j.j.G.[.$X;XOXF.3.-.Y.&X/././.>X-X=X|.~.:X`.R * # $ j +.^ H j j $.L.T.s.N # # P V.E.1X0X$X'.H.=.-.g.R ; V  .=.OXrX$X(.k.$.b.",
"[.[.H.v.4.6.s.h.G.4.4.G.+X*X&Xi.i./.XXW.S.Q.}.r.f 2 N f } L.].[.D.J D | } Y u # = n f.S.$X<X+X=X.Xr.y.U.#.1 > C #.n.|.[.G.z.j.H.",
"3XXXP.w.L u d q.J.6.).;X2X*X|.g.S.T.Z.P.Z.d.` q # 2 f C | E.=X3X~.K 2 2 f E n O & K <.C.OX<X2XwX;Xf.r.H.f.v 4 7 d N p.J.v.H.[.:X",
"6X%Xg.m = @ p @.A.'.1X3X+XU.E.H.Q.A.w.h.R.S.v X = z E ~ T a.T.h.~ = X O 4 } C O X c #.K.,XqXiXpX6XU.f.f.g...` T C C K :.v.[.4X9X",
"tX4XE.l $ > U k.[.$X$X.XJ.n.'._.C.| R >.V.T.,.t 2 N C K u N E f = O = f Y | C = ; R k.].$XwXpXpXwX#XH.N.N.P.{.OXQ.6.^ 6.H.$XiXaX",
"fXaX<XI 1 q U k.oX;X[.m.4.x.OX[.J.} c ) r.H.+X3.p = 2 u > # ; O = k E X.:.E u u Q c.].|.J.E.`.8XeX;X!.A.v.(.7XtX@XG.k.C.!.1XiXfX",
"fXdX2X` e H ,.H.[.OXK.8.@.4.G.G.E.g./ ) <.J.7XoXQ # # ; ; # $ 3 K :.1.>.{ u p 4.|.;X+XT.d.&.{ ].5XOXL.(.L.|.1X4X$XoX`.!.T.OXqXdX",
"aXyX*X>.d T 6.v.G.H.n.n.8.@.7.b.S.^.h.r.<.C.2X;X9.t t k s n T z.Q.J.a.E v v -.XX8X:XR.r.X.&.v.oX$X_.(.[.#XOX[.=X1X1X@XQ.r.C.<XiX",
"2X2XXXV.P { M.c.e.u.C.A.7.@.L.).C.S.T.P.y.1.E.XX'.7.^ Q W +.8.).1X=XS.~ { C.T.H.E.A.<.` r._.+X*X{.E.C.U.#XOXE._..X$X1X[.3.3.].=X",
"M.W._.}.V.g.M.c.C.A.f.( h ] $XOX5.6.R.XXS.~ 1.U.|.].K.b.j.j.D.(.+X.XA.d.h.T.V.w.<.,.y.S.+X2X=X+XR.*.P I r._.H.v.S..X3X;XH.=.y.u.",
"0.g.P.}.^.c.c.C.H.S.X.u * b H.F.%.%.U.=XXX6.E u.E.$X,XOX#X,X5XrX1X_.W.R.Y.h.0.' ) w.J.XX*X*X_.P.s.S 7 2 u } =.@.4.J.XX2X|.l.-.*.",
"f.0.0.V.^.c.M.s.<.| N $ g P t.e.%./ M.+X2X!.` &.E.qXqX<X1X0XiXdXaX5X=X+X).v.} C ( g.T.R.P.g...Z { ( P d * ; f T ,.8.v.}.{.V.i.l.",
"S.&. .y.`.f.&.( V e = = c ) / y > y ..^.=X@Xc.] ].pXuX4X+X$X8XuXaXyX>X+X).J.A.s.Z.Q.S.6._ m y , i / >.R s X # j +.+.%.i.I.I.Y.W.",
"u.' <.H.|.g. .n 3 @ $ a { ..a X . : l Z.+X#XoX].8XpXpXeX=X'.L.'.*X=X{.H.s.C.Q.[.!.H.A.%.g @ X . X y <. .c & > K @.6.u.M.I.I. XY.",
"I.%.-.C.M.6.#.h = = , x ( S 6 X . + 4 :.R.{.$X5XeXwX3X;X.XS.8.8.y.c.m.r.<.m.`.[.K.k.(.oX=.- X   X 1 %.R e e I u.J.!.!.T.0.p.%X/.",
"W.' @.<.:.<.1.N 7 d d d Z Z g + . + > z *.T._.OX;X+XS.r.z.5.e.f.-.r.E.XX`.J.!.[.G.7.K.,Xy.3 : , 4 x n p , d ~ Z.XX|.J.B.a.p./.*X",
"c.U ] #. .w.N.( C L l u c 4 , + # 5 y d _ C.).L.Q.S.x.m.J.!.XX2X*XXXXX~.s.} T ~ +.+.@.[ H u v v b b i 1 i L ( y.s.#.X.&.Z.~. X!.",
"oX2.5.&.( h.U.r.*.S 4 u n , + $ V b f T 5.(.[.F.x.F..X1X8XqXeX9X;XE.,.C 2 & O & p F ^ L U h u d A A v v L E T L s B Y | d.@X8X5X",
"5XH.N.u.&.h.h.>.X.x : p H i $ * F v > n c.#X#XH.9.C.1XiXaXtX;X!.;.k 2 X     O # O % ; h U - + , 7 y y y p 5 = , a E ,.p.N..XyXaX",
"OXH.Z.B.a.0.>.' o.A > 7 / L g h ! n ; R ^.OXOXoX!.[.rXpXqXG.W q # o     O q k t X     O - o   + : 4 , $ # & $ 7 z R :.d.Q.~.3XqX",
"y.' / @.5.! S l M Z > a ' ` @.5.` h 1 _ A.E.].1X8X;XqX;Xz.t O o     o 0 T r.6.j O     o         # v i i l V V l i d e _ `.:XOXH.",
"9 # & j J p & X # l l M R s.J.J.=.V < P u._.=X=XeX1X!.z.G 0 & = = - q #.M.{ w # o ; 8 %       o 9 w y x ) o.v $ X X o 3 w.`.D.T ",
"      o # O o   o a z a t y.+X|.=.s * z q./.{.E..X!.| Q 4.z.4.6.r.` L p.p.S # o t $.$.D - o     3 N P ' [ ) y .     # @ d R w @ ",
"        o 0 ; # O a S 4 = } XXE.=.h > ; [ h.P.f.n.A.C.L.'.1X.X`.N.v 7 >.Q.G.G ; @.].).j.4.D = < c X.B.Z.h.X.u O   o ; $ 2 =     ",
"    X @ O s T Y 7 5 ( a w 5.!.H.y.} f * Z q.^.E.m.].[.`.OXrXeX6XH.3 @ S M.].j.j m.5XrX1X[.6.#.-.' ( N.B.g.<.U p ; o X = k O     ",
"          & K :.{ z N u J H.).N.h.{ 5 X , ) h.R.L.~.J.!.[.$X6X@XS.0   ; &.K.G.W z.1XpXiX3X`.]._.r.! s.=.] &.5.W e X X 5 &       ",
"          o a X.>.Y N H 2.`..X!.V...>   . 6 [ P.E.U.V.v.C.G.$X;X!.q   * X.S.E.x.y.).eXpXqX^.u.y.y.] @.] n B T j ; . X 2 X       ",
"X   o & O   = E 1.d.m.9.9.).*XXXI.%.i . . + m P.{.~.T.N.7.=.`.3X@XW q h >.Q.OX7X7X;X4XyXqXE.` v H ` ! I e & & o     # e &     . ",
"k > 3 B K = @ k :.J.$X[.K.1XwX=XU.t.I @   . i M. XXX%X}.k.4.`.9X3X!.H.H.R.{.4XaXsXyX7XwXyX{.-.P ` ` U ^ k O           & r O o 2 ",
"k u t n.).~ = * T Q.;X@X1XaXaX$XU.R.0.y . + m <./.-X6X6X+X$X3X9X8X;XOXG.y.W.qXfXfXsX8X;XwX2XB.t.Y._.l.[.[.k O         - O.; O u ",
"s n J [.6XN.u O q f.].'.rXdXiX'.l.H.u./ - * T _ 1.XXwX8X;X3X7X4X;X(.j.$.2.(.uXdXdXiX=XE.=X=XI.I.&X9X{.5XiXOX^ 9 o     O G 8 o O ",
"& e O.'.*XT.E 2 = ' S.).0XpX0XL.8.=.0.e.v ; / ' C J.eXqX;X|.!.).=XL.$.3.K.,XuXiXqX<X'.C.XX*XI. X>X9X=XwXuX1X'.j.q     . - r & % ",
"j j $.Q.E.r.N # $ P B.E.1X0X@X'.H.=.<.f.R = B ..=.+XwX$XE.j.2.k.OX_.j.z.G.'.,X,XOXF.3.=.U.*X%XR.%X&X=X=XXX~.:X`.T ; # = j $.^ G ",
"m.J B } } P e # & B f.H.$X1X+X=X.X6.y.U.%.1 , C @.m..X[.G.x.j.G.[.|.H.n.4.6.s.Z.S.4.=.H.XX=X%Xi.i./.%X/.P.Q.~.6.d 5 z f } L.'.[.",
").K 2 2 f E B # # K <.m.#X,X4XeX:Xf.r.J.f.x 4 e u V r.S.N.K.[.:X:XXXS.t.L 7 f >.J.r.).1X3X@XXXf.I.I.Z.P.Z.g.` q # 2 d C | J.=X3X",
"~ - o # e _ N O O n %.K.$XqXiXpX6XU.f.f.f. ._ T L C K :.M.[.4X8X6X%Xh.m = # s #.A.`.;X3X+XH.!.H.T.C.w.h.R.Z.v O = k E ~ R a.T.h.",
"= @ = f Y | C = - R y.].$XwXiXpXwX+XH.N.N.S.`.OXQ.6.} 1.H.=XuXaXyX4XE.l $ > U 9.'.,XOX.XJ.n.'.).C.+.R >.B.U.-.u 2 N C C u N R d ",
"# k E X.:.E u p Q c.].|.J.!.`.8XeX;XE.G.C.!.9XeX@XA.z.F._.<XiXfXdXaX<XI 1 q W x.OX,X[.F.,.x.#X].J.` c ) 6.H.OX3.p = 3 u 2 # > O ",
"S :.w.>.{ u d 3.OX;XXXR.d.&.` [.7XOX(.L.L.[.<X4X$X.X_.!.T.OXqXdXfXdX4X` e H =.H.[.oXH.7.$.5.K.G.Q.h./ ) -.J.8XoXW # # ; = & - 3 ",
"Q.J.s./ M h ,.+X8X1XE.w. .:.M.OX$X_.).[.#XOX[.=X1X1X@XR.y.F.<XiXaXyX$X>.d R 6.m.G.H.m.n.7.@.7.x.H.~.h.w.<.S.1X:X9.t p D s k T s.",
";X$XS._  .M.U.H.J.S.<.( s.~.+X#X{.E.C.U.#XOXE.(..X$X2X`.4.=.].=X2X:XXXB.P ' N.c.y.y.C.V.7.@.K.(.A.S.T.S.y.<.E.XX'.7.^ Q W +.6.).",
"OXOXA.d.B.T.B.1.<.,.y.S.XX3X;X+XR.&.P P y._.U.M.A..X3X1XH.%.y.l.M.W.~.}.V.g.N.c.N.S.f._ v ` =XOX5.6.!.XXS.~ 1.J.|.].K.l.j.j.D.(.",
"1X_.Q.R.P.h.0.' ) w.P.XX=X+X~.P.a.S u , u } =.#.4.H.+X3XoXl.0.%.0.M.P._.^.c.N.C.H.C.X.e = B A.F.%...U.=XXXr.E r.L.$X,XOX#X<X0XrX",
"sX6X=X+X_.c.} A ( h.Q.Q.P.h...S { ( R u * = s T 4.8.v.}.{.V.i.h.i.0.5.V.^.f.g.y.<. .b = u R t.r.@._ M.&X2X!.` &.E.wXqX=X<X0XiXsX",
"aXyX6XOX!.L.C.f.V.^.H.e._ m 6 , a / <.R d O # k +.] %.t.I.I.I.~.U.%...a.`.f.*.( V u = = b ( / 7 > i ` (.=X+Xc.] `.iXiX4XOX$XqXuX",
"*X&X{.J.s.v.E.[.E.H.F.%.g # X   X 6 <.} c & ; K #.r.f.B.V.Y./.R.i.` <.H.|.c. .n 3 + $ a _ { a O . $ x P.+X=XoX[.8XpXiXeX;X'.L.'.",
"y.l.m.9.<.m.`.[.G.b._.oX=.* X . X 1 %.! 5 e I s.U.!.!.U.q.a./. XP.%.<.A.c.6.%.f ; > , x ) I y X   + , :.R.{.$X5XeXwX6X=X.XA.8.8.",
"0.e.W.oX`.H.L..XG.7.K.$Xk.< * : 6 l H u , d _ Z..XXXJ.Z.a.p./.-X^.[ @.<.:.<.1.V 4 a a g A b l + . + , z *.Y.].OX=X+XH.r.s.5.6.a.",
"*X.XXX/.d.+.T ~ +.+.+.@.H u v x b b y 1 d L _ y.s.X.X.;.Z.}.}.!.k.U ^ &. .w.h._ C L d i l 6 , + & 5 7 a _ C.(.L.E.S.x.v.E.W.XX2X",
";XQ.:.V 2 # O & t J O.H R h i g A V c n L R R H s B Y { d.@XqX5XoX=.5.:._ h.T.r.>.S 4 p b : + $ C N d T 5.).].F.n.C.[.1X0XqXeX9X",
";.k 2 O .   O & O O ; f U ; + 1 6 y y u p 5 = > f E <.w.N.|.tXaX0XK.V.y.X.h.h.>.X.c : d A i $ * H c ; b c.$X#XK.9.m.1XiXaXtX,X!.",
"# .     O q k t o     % -     + : 1 , $ $ # $ 7 z R :.a.Q.~.4XqXOXH.B.B.u.0.*.' o.Z > y R L h h Q n = R !.OXoX|.!.[.tXiXqXH.T q ",
"      ; T r.6.k O   o           & v l 7 l V V l i d e } ~.:XOXJ.y.` / &.8.R S z b Z > a _ ` #.5.] h < _ S.E.|.<XqX1X8X,Xz.s O   ",
"; & q =.B._ w O O ; 8 %       o 9 w 6 x ) X.b * . X X 3 r.`.m.T < # # j J t & X # l l M R s.J.J.=.H < R u._.*X<XwX2XL.z.J 0 - & ",
"s.` L p.p.S % o t $.$.D % o   o < b P ' [ ) y X     # @ g R w O       o # O     X a z a e s.+X|.=.s * l 0.~.OXE..X~.| Q 7.z.4.6.",
"M.z e >.Q.G.D 8 @._.'.z.2.n = ; c X.B.S.g.X.u X     = $ 2 * o           o 8 ; # O f S 7 = } |.E.=.k > > / B.P.c.x.A.F.H.'.1X.X}.",
"H.3 O S g.[.j.g m.0XrX1X[.6.#.-.' _ v.Z.g.0.I p ; . X ; l @         o @ O s T R 4 4 _ d e 5.E.S.y.} d $ Z q./.U.m.].oX`.@XrXeX7X",
"S.0   2 &.J.H.Q j.1XpXiX2X}._.].e.E s.&.] &.5.Q u X X 5 -                 & C :.{ z N u J H.).C.g.' 4 + , ) h.R.J.!.J.!.[.OX8X@X",
"!.q   & X.Z.L.c.y._.tXpXqX_.r.y.l.] @.] n n T j ; o O 2 O                 o f X.>.Y b C $.`.XXW.V.[ >   . 6 [ I.^.U.B.v.F.G.$X*X",
"OXW q c 0.R.OX7X5X=X2XyXwXE.] l H ` Q T e # & o     # 7 &     o o o o O O o = E w.s.m.9.9._.*XoXT.*.i .   + m I.{.~.U.N.4.4.`.:X",
"5XE.J.J.!.{.4XaXsXyX7XeXyX{.-./ ` ] K ^ k O           # t O X 2 k > 3 H K ; O k <.H.$X[.K.1XwX=XU.t.I @   . a h. X X%X}.z.4.`.9X",
"8X;X.XA.y.T.rXfXfXaX8X=XwX2XB.t.P./.k.oX'.B O         - ^ 8 O 7 k u e m.).E = $ T E.1X#X1XsXpX#XU.W.0.6 . @ C 1.~.-X6X6X@X@X7X8X"
};
