/* XPM */
static char *LavaF2[] = {
/* columns rows colors chars-per-pixel */
"64 64 256 2 ",
"   c #560901",
".  c #541205",
"X  c #670701",
"o  c #780601",
"O  c #7B0B01",
"+  c #6A1705",
"@  c #751B05",
"#  c #732B0D",
"$  c #870901",
"%  c #8C0D01",
"&  c #990500",
"*  c #940C01",
"=  c #9B0B01",
"-  c #831503",
";  c #891904",
":  c #921202",
">  c #9A1403",
",  c #991B05",
"<  c #A40400",
"1  c #AA0700",
"2  c #A30D02",
"3  c #AB0B01",
"4  c #B80300",
"5  c #B20B01",
"6  c #BC0C01",
"7  c #A61604",
"8  c #AC1303",
"9  c #A41A03",
"0  c #AD1C03",
"q  c #B31402",
"w  c #BB1302",
"e  c #B41A03",
"r  c #BD1B04",
"t  c #892708",
"y  c #992707",
"u  c #8E360B",
"i  c #9A380D",
"p  c #943A15",
"a  c #AC2505",
"s  c #A72708",
"d  c #B32304",
"f  c #BC2205",
"g  c #B72A06",
"h  c #B42609",
"j  c #BD2609",
"k  c #B42C0A",
"l  c #BA2C0B",
"z  c #A9360D",
"x  c #B7350A",
"c  c #BA340C",
"v  c #B13C0D",
"b  c #A22F11",
"n  c #A33A12",
"m  c #B63912",
"M  c #C50500",
"N  c #CB0400",
"B  c #C40D01",
"V  c #CB0D01",
"C  c #D80500",
"Z  c #D40C01",
"A  c #DB0C01",
"S  c #C21202",
"D  c #CB1403",
"F  c #C41B04",
"G  c #CA1B04",
"H  c #C71E09",
"J  c #D31403",
"K  c #DB1402",
"L  c #D41C03",
"P  c #DD1B03",
"I  c #D31A09",
"U  c #E20500",
"Y  c #EC0500",
"T  c #E40C01",
"R  c #EC0A00",
"E  c #F20500",
"W  c #FE0600",
"Q  c #F40E01",
"!  c #FD0C01",
"~  c #E31302",
"^  c #EC1402",
"/  c #E41D04",
"(  c #EC1B04",
")  c #EE1D08",
"_  c #F41402",
"`  c #FD1301",
"'  c #F41C04",
"]  c #FD1C03",
"[  c #F21F08",
"{  c #C32305",
"}  c #CB2305",
"|  c #CA2A06",
" . c #C42309",
".. c #C52A0A",
"X. c #CC2A0A",
"o. c #D32204",
"O. c #DB2305",
"+. c #D32D05",
"@. c #D92907",
"#. c #D42C0B",
"$. c #DA2D09",
"%. c #C2350C",
"&. c #CA340C",
"*. c #C43808",
"=. c #CB3D0B",
"-. c #D63506",
";. c #D3350C",
":. c #DB350B",
">. c #D43B0B",
",. c #DB3C0D",
"<. c #C53B12",
"1. c #D63810",
"2. c #E32406",
"3. c #EC2304",
"4. c #E82707",
"5. c #E12B09",
"6. c #EB2B09",
"7. c #FC2303",
"8. c #F42B06",
"9. c #FC2C05",
"0. c #F32309",
"q. c #F82508",
"w. c #F32C09",
"e. c #FD2B0A",
"r. c #E4330B",
"t. c #E93709",
"y. c #EC350C",
"u. c #E43D0C",
"i. c #F33204",
"p. c #FE3C06",
"a. c #FD330A",
"s. c #F83409",
"d. c #F43B0C",
"f. c #FD3B0B",
"g. c #E93912",
"h. c #FB3A12",
"j. c #9A4315",
"k. c #9A5611",
"l. c #AC450E",
"z. c #BB460B",
"x. c #BA500C",
"c. c #AA4917",
"v. c #B84715",
"b. c #B9581B",
"n. c #AA5621",
"m. c #A95B24",
"M. c #B15422",
"N. c #BA6522",
"B. c #BC6631",
"V. c #CC430C",
"C. c #C6480A",
"Z. c #D5440B",
"A. c #D8490A",
"S. c #CA530D",
"D. c #D7540D",
"F. c #C54715",
"G. c #D74815",
"H. c #D34C14",
"J. c #C95619",
"K. c #D35914",
"L. c #DB5B14",
"P. c #D85618",
"I. c #D25D1C",
"U. c #E7460B",
"Y. c #F74609",
"T. c #FD430C",
"R. c #E7580A",
"E. c #F95809",
"W. c #E74813",
"Q. c #F94615",
"!. c #F24C15",
"~. c #FD4B12",
"^. c #E45214",
"/. c #EB5B14",
"(. c #E1531B",
"). c #E65919",
"_. c #EC5B1B",
"`. c #F75516",
"'. c #FE5B14",
"]. c #FF5B1A",
"[. c #C9631B",
"{. c #DC6315",
"}. c #D76816",
"|. c #DC641B",
" X c #DB6C1D",
".X c #D6741D",
"XX c #E8680C",
"oX c #F9650C",
"OX c #EE7409",
"+X c #FA740A",
"@X c #EC6412",
"#X c #E66818",
"$X c #EC6B1C",
"%X c #F26414",
"&X c #FE6315",
"*X c #F86A14",
"=X c #F4651A",
"-X c #FD641A",
";X c #F46C1A",
":X c #FE6C1B",
">X c #EB7619",
",X c #F87817",
"<X c #F2741C",
"1X c #FC741A",
"2X c #C45723",
"3X c #D95B24",
"4X c #E25A22",
"5X c #FC5920",
"6X c #CB6823",
"7X c #DD6521",
"8X c #D76923",
"9X c #C77728",
"0X c #D87828",
"qX c #C87D33",
"wX c #D87B32",
"eX c #E36C22",
"rX c #E86924",
"tX c #F96924",
"yX c #EB7C23",
"uX c #E87729",
"iX c #FA7325",
"pX c #F67C24",
"aX c #FB7A23",
"sX c #FC742B",
"dX c #F6792A",
"fX c #F37A34",
"gX c #F88F14",
"hX c #F8891A",
"jX c #D8832C",
"kX c #D98936",
"lX c #DE9839",
"zX c #EA862A",
"xX c #F48223",
"cX c #FC8423",
"vX c #F38B24",
"bX c #FD8D25",
"nX c #F1832B",
"mX c #FE862D",
"MX c #F4892D",
"NX c #FC8B2B",
"BX c #F9952A",
"VX c #E58934",
"CX c #F78835",
"ZX c #ED9736",
"AX c #FC9334",
"SX c #F49B34",
"DX c #FC9C33",
"FX c #F7973A",
"GX c #FBAE32",
"HX c #F9A63A",
"JX c #E79A41",
"KX c #F99D44",
"LX c #EEAF4D",
"PX c #F8A944",
"IX c #FDB949",
"UX c #EFC762",
/* pixels */
"w.!.5X!.-.2.7.] /  .W.<XBX<XxXnXuXJ.} ~ ( 9.T.&XvXZXkXVX#XU./ D 5  .$.8.7.e.h.4XJ.|.n ; M U 1 D 9.T.T.9.} 9 D M > u v.x.j.t S ' ",
"U.tXeXv.k o.i.i.+.D 2.d._.^.eX7XW.2.D V F h.&XmXFXkXN.|.).U.H 6 J h.W.<.| ..<.6Xb.eXc.h A ` / ~.'.1X&XS.V.:.8.~ 5 q  .h , S ! ] ",
"(.sXJ.h 0 +.p.R.F.} ' ' { s h o.L > $ % 0 g.].fXnX9Xb.L.U. .> = K h.rXD.%.j <.F.2XJ.m I ` 7.Q.yX1XhXyX#XtX=X!./ 6 Z ^ Q T E ` e.",
"!.tX(.&.t.i.E.R.R.&.G B X   - 0 g t t y I 4.Y.eXeXI.=.:.} 7 , f s.Q.(.6XG.#.4.r.,.$.2.] ] T.^.uXhXvXuX).=X:X_.| 3 Z ! ! ^ ] ] a.",
"!.tXrX3X3XsXaXcXhX@X+.w X o o.T.&XyX8XZ.3.] 7.6.;.;.} 8 * e +.:.g.6.#.1.g.4.0.q.0.' K ` 3.Z.C.|.=X=XL.K.|.}.[.c a S ` R G 2.9.9.",
"h.(.G.2X4XsX1XvXgX,XA./ 4 K p.+XmXPXCX).w.` ! M = 8 * o : } !.,.:.) _ [ ) ) 0.] ~ S 1 B 9 j.v.rXdXiX/.L.).L.A.*.{ K ^ K r 5.i.s.",
"Q.tXP.2X3XfXmXJXBXZXP.7.` 7.E.1XpXFXwXL.w.` N X o w w 2 6 2.r.#.) ` ! ` ) P 0.0.{ : : q y v R.1XmXaX*XNXxX#XZ.-.@.] _ A Z ) i.f.",
"/.`.^.=.V.(.rXVXBXVX^./ w 5./.@X;X,XrXH.0.A 2 O 0 g.1.f ~ ` ] q.7.L h l h j #.l d f 7.9.a x '.MXHX,X1XDXZX8X;.5.O.} D M Q ] i.E.",
"[.OX,X/.#X=XpXCXVXrXk O $  .V.D.@X>XJ.X.~ K 0 a U.'.G.l D K ] 2.d i b.eXP.;.c j $.e.Q.G.i m G.D.|.=XmXCX6XF.g.e.e.o.D M ! ] 9.C.",
"k.}.>X,X>X$X$XL.G.X.- o 4 ~ 3.;.=.m h J ! 0.<.C.$X=X/.#.F d *.Z.A.{.aXmXfX3XF.X.e.Q.(.v.p s 3.| V.<.H.v.n 1.h.h.h.} 6 T ` ` q # ",
"u C.R.*X}.L.A.V.j 8 2 V ! ` ^ J B B A ` q.u.S.XX,XR.U.:.v F.{.@XE.&XsXMXZX Xv.5.h.^.3X|.J.#.] 6 ; ,  .H j g.Q.5XQ.H 3 Z ~ _ S t ",
"{ @.t.G.c.x | } F I 3.i.9. .O $ 1 4 Q 9.,.).yXbX<XD.d.d.).;XoXR.R.oX;X,XMX>XI.t.`.7XuX>X#Xr.` M * 8 I ) #.1.J.v.b : $ 5 / 9.9.X.",
"l 2.7.P 8 6 A J 4.Y.!.E.%Xc.@ % 4 U 7.u.I.nXPXZX|.-.s.!.uXSXvX*XE.R.D.}.hXOXK.=.W.#X,XvX$Xd./ J o.6.9.t.V.G.b s - : > d r.E.E./.",
"v.,.q.( 5 4 M K T.*X1X+XgXjXn w U ! i.G.).nXJXwXF.t.f.R. XzX0X[.S.C.V.A.D.#XS.v ;.D.,XnXI.>.y.Q.tXh.p.!.Z.;.0 q F w.d.^.oX+XOX}.",
"b.P.W.+.> < C 9.sXPXIXhXGX#Xz.J ! 7.T.E.tX8Xb.c @.w.Y.*X,X X[.b.z.Z.U.Y.oXR.z.f O.r./.K.l.*.~.:XnX$.4.;.+.3.K q 5.~.:X>XZXDX.XS.",
"A.U.@XC.# & A p.aXAXFXSXJXN.z P ` p.E.1X{.l.j ^ ] s.&XhX,X+XD.R.R.Y.E.E.OXA.g P ` ] @.k y k -.aXVXJ % * ^ ` K y _.AXHXvXHXAX.XA.",
":XiXKX0Xx A ` i.8X9XjXjXqXj.g ^ ] f.).b.u @ B ! ] u.$XBXAXBX,XpXpX$X,X@X{.*.} ! ! 1 = 5 B K ` E ~ s X % Q ` 9 u >XDXjX9XkXKXVXK.",
"tXfXSX X*._ Z s A.D.{.[.M.i G ! ` f # + + = U W 0 i }.SXHXPXHXSXPXSXZXJ.v G 7.] L + * Z E Q / V L ,.x r / e - i $XuXN.J.eXCXDX#X",
"CXAXfXJ.-.P % t ).=X*XD.y 0 Q W ! =   X 3 Z W Y q v >XIXIXGXLXIXUXJX[.&.} ( f.T.U.l.u.9.]  .9 S 7.].rX,.O.e , z.{.6Xx.;X1XGXBX0X",
"eXyX#XXX*.F = e 1.U.C.t - A W Y Y < o 7 7.7.] ^ w j /.SXlXB.9X9X6Xv...' 2.a.-XtX-XrX%X~.r.c y S q.].:XZ.| F } U.&X&X&X*XbXBXzX8X",
"xXvXvX7Xz.e 1 A ) 4.O.> 1 N E C C < : d.`.Y.T.4.K P 6.^.b.j.v <.&.3._ ' f.-XAXsXdXfXVX).>.*.s F +.iXNX:XU.+.@.W.tXKXPXHXHXvXyXuX",
"XX,XhX|.%.J Y E ! ` ` S 4 < M C E D F.fXnX:XcX).2.` ^ 2.j { O./ _ A J 2.].mXKXrX4X(.B.m <.| , , &.1XhXbX<XK.:.W.tXKXKXNXDX9X.X.X",
"@X<XpX7X;._ W W _ ] 9.| a : B Q 7.T.uXFXkXyXHXuX$.` U R J ( ^ K M 4 F Y.tXfXwX3XG.<.p t l F * $ &.cXGXGXvXI.;.g.5XsXdXFXFXN.S.{.",
"R.;X1XuX:.J Y ` a.Y.].G.Z. .[ h.].sXFXSXwX.XnX X.._ M U ^ 4.;.{ S Z o.W.fX8XM.m 1.j - % J ~ M = 5.:XBXHXZX6Xu.e.w.W.1XbXzXN.@X1X",
"eXdXfXwXm S _ 9.&X:X$XP.Z.y.f.tXfXwXCXFX9X6X|.K.| w $ 8 a m v.l P _ ] 9.x # u m @.w * 2 T ! Q 4 ( Y.)..X0XI.1.0.e.W.dXLXkX[.$XzX",
"$X#XI.c.b X.h.].DXAX).-.P 2.~.rXm.j.8XKXlX8XL.A.s . . t C. X XF.3.` ! > + + , S ( ~ ^ _ 7.7.3.q ~ 3.+.D.uX7Xm } 5.<.3X3Xc.l. X>X",
"H.m c ..d.Q.tXmXAXuX=.0 3 F Q.J.p F.%XbX0Xb.C.+.9 @ i 4XaXHXnXI.} R 4     $ D Q _ 7.s.T.Y.t...d G ] O.>.H.v.z c ,.m m l s z z.P.",
"h , } e.Q._.uX6XM.# + X $ r `.dX8XoXhXHXwXc.a w 2 j tXKXIXIXjX[.#.4 X   ; H _ ! ] a.E.&X/.S.V.A.R.d.L L G | g %.<.h r T J q f O.",
"V 2 ) e.!.3Xv.t - O & & 1 O.].FX0X<XgX#Xx.y 8 Z P f.tXHXIXJXm.x.a * X - ..q.` ` F U.xXBX>XD.Y.OXhXXXk 8 S D j l | e T ! A V ~ ! ",
"N 5 / #.m z b e D B 4 M A P G.kXN.C.x.v.h 9 B Q 7.E.bXGXHXkXN.C.d > 2 I 0.[ Q S a U.,XcX#XD.oXgXBX{.x w M M 8 e L ( ` ( w V ! ! ",
"= $ 0 j X.O./ ) ] ] D U W M : y t y f I Z 7 B ] 9.&XNXGXSXkX[.v d q ~ _ ' T M 6 0 A.>XvXxX#X+X+X,X<XA.O.^ T I 8.9.9.a.g.l o.' R ",
"2 7 H I ) ] e.h.Q.W.%.I E 4 $ 8 I / ] ` R 3 Z _ 4.L.nXzX0Xn.n { P / h.h.5.G V T P :.'.+XhXXX,XbXHXzXH.3._ ] 9.f.~.=X'.-XZ.@.0.K ",
"3  .$.8.] e.h.4XJ.|.l.; M U 1 D 9.T.T.9. .0 D B : y x.x.p t S ] s.!.]._.:.2.7.] /  .W.tXBX<XxXnXwXJ.o.~ ^ 9.T.&XMXZXVXVX).U.3.D ",
"J a.W.<.| X.<.B.b.eXc.h Z ` / Q.'.1X&XS.V.,.3.^ 3 q ..h , B _ ] W.tX7XF.k o.8.i.#.D 2.d._.L.eX).W.2.D V H d.&XmXPXqXN. X).U.H 6 ",
"P h.$XK.*.j <.F.2XJ.m I ` 7.Q.<X1XhXzX|.tX=XQ.P 6 Z ^ Q T E ` 9.3XsXF.a 0 @.Y.A.C.} ' ' } y h o.L > % $ 0 y.].mXMX9Xb.L.U.} > : ",
"a.Q.3X2XG.@.6.r.,.#.2.] ] T.^.zXxXbX$X/.=X:X_.| 8 Z ! ! _ ] ] a.Q.tX(.;.r.p.E.R.R.*.G B X   - 0 g t t y G 4.Q.rXeXI.&.$.} 7 , f ",
"y.6.#.1.g.0.) e.0.' A ` 3.Z.S.|.@X=XL.P.|.}.|.v s B ! Q S 2.s.9.W.tX4X3X).sXiXcX>X@X;.w X o L p.&XyX7XG.3.] 7.6.;.;.H 8 * e #.$.",
":./ _ [ 0.) ) ] ~ V 3 B 9 i l.rXdXiX/.L.L.L.Z.*.j K _ J F 5.w.a.h.4XG.2X#XsX1XxXgX>XA./ B K p.+XbXPXCX(.i.` ! M > 2 = o * #.!.Z.",
"3.` ` ` ) P 6.8.f : * e y z.R.1XmXaX1XvXpX#XZ.>.5.] _ A Z 3.i.p.Q.tX4X2X3XfXmXJXSXHXL.7.` 7.E.1XaXFXwXL.w.! M X O w e 2 6 2.6.+.",
"] I l l h j #.j h r q.q.a x `.BXHXaX1XDXJX|.>.2.@.H G M R ] i.E./.`.D.C.C.^.rXZXBXzX!.2.w @._.#X=X,XeXH.0.A 2 O 0 y.:.f K ` ] q.",
"d j.b.eX(.=.%.h 5.e.h.G.n m W.H.#X%XcXMX9XF.6.e.9.L S M ! ] 9.C.[.>X,X/.#X=XpXZXVXrXk O $ { V.D.@X>XI.X.~ Z 0 s U.'.G.c D K ] 2.",
"A.{.sXmXfX3X<.#.h.Q.(.v.p s 4.X.Z.c H.v.n 1.h.h.h.} B A ! ` q # k.}.>XOX>X$X$X^.G.#.- o 6 ~ 3.-.*.m h J ` 0.<.S.$X=X^.#.{ f *.Z.",
"E.oXaXnXVX|.v.$.h.W.[.{.J.#.' 6 ; , j  .j 5.Q.5XQ. .3 Z ^ _ S t i V.R.*X}.L.A.=...8 1 V _ ` T J S w A ` q.u.S.XX,XR.U.-.v v.{.@X",
"R.E.1X,XMXyXI.g.`.|.uX>X#Xr.` M % 8 / ( 5.1.2X2Xb : $ w / 8.9.#. .@.y.D.l.m | G r I 4.0.9.{ $ $ < M ! q.,./.>XbX>XD.h.h.(.*XoXR.",
"E.R.D.{.yXhXS.*.U.#XhXvX#Xd./ J o.3.9.t.<.G.b s ; : : e t.R.E./.l 2.7.P 8 6 K J 2.d.Y.E.%Xc.@ * 4 U 7.,.I.fXPXSX|.-.s.!.uXDXNX=X",
"S.C.C.U.R.#XS.v Z.D.,XfXI.1.r.T.tXQ.p.W.G.;.0 8 S w.d.^.oX+XOXXXv.:.9./ 5 4 M K T.&XhX,XBX.Xn w U ! i.G./.nXJXqXF.t.f.R.#XjX0X[.",
"z.A.U.Y.E.XXz.d O.r.R.I.l.*.T.:XnXr.4.;.+.8.K 8 6.'.-X>XSXDX.XS.b.P.U.+.> < N 9.sXPXPXhXGX}.z.J ! 7.T.E.tX8Xb.c @.i.Y.*X*X XJ.b.",
"R.Y.E.E.OXA.g P ` ] $.k y k :.iXVXJ % * ^ ` K , _.AXHXBXJXAX.XA.A.U.;XC.# = A a.cXAXDXFXHXN.z P ` a.'.+X{.v g ^ ] f.&XhX,XOXXXR.",
"<X<X,XXX{.x G ` ! 1 = 3 S K ` E ~ y X * Q ` 0 u $XSXwX9XVXKXVX[.:XsXKX0Xx A ` 6.|.9XjX0XqXp f ^ ] T.^.F.u @ B ! ` U.#XBXSXBX1XpX",
"HXSXZXJ.m G 7.] P + : A ! Q ~ V J u.x f / q @ i @XzXN.J.eXcXDX#XtXfXAX X*._ Z s A.D.#X[.M.u G ! ` f # # + > Y W 8 p }.SXHXHXHXSX",
"UXJXN.&.X.) f.T.U.l.r.9.]  .s B q.'.tX:.O.q y z.{.6Xx.$XhXDXSX0XCXAXuX[.>.P % t ).=X*XS.y 0 Q W ! =   X 1 Z W Y q z yXIXIXHXPXLX",
"6Xv...' 4.a.-X].=XrX%X~.r.k y S 9.].tXZ.| F } U.'.:X&X&XbXBXzX}.eXuXXXXX*.F = r :.^.=.u ; A W E Y < X 2 7.7.] ^ S { /.SXlXjX9X9X",
";./ _ _ f.-XKXsXfXfXwX4X>.*.s r $.iXcX<XU.+.$.W.dXKXPXHXPXxXzXuXpXhXxX Xz.q 1 A 3.4.O.> 1 N Y C C < : h.`.!.T.2.K K 6.(.n.j.v *.",
"_ A J O.].mXKXrX4X(.6Xv.<.| 9 , *.1XhXbX>XH.:.W.tXAXKXmXAX0X8X.X#X,XvX|.%.L Y E ! ` ` B 4 = N C ! G m dXnX:XcX_.2.` ^ 2.g ..O.( ",
"M 6 G Y.1XnXwX3XG.<.p t g F * $ &.cXGXGXBXI.;.g.5XsXfXFXZXb.S.{.@X,XpX|.;.^ W ! _ 7.9...a : B ! ] T.uXFXVXzXDXuX#.` U Y J ( / A ",
"D V I !.iX8XM.<.1.r - - J ~ M = 5.:XAXHXZX8Xu.e.g.!.:XBXzXN.%X1XR.=X1XuX:.J Y ` 9.~.'.G.>...( a.].sXSXFXwX6XvX0X&._ M T ^ 4.#. .",
"P Q ] a.m # t z #.S * < T ` R 4 ( Y.L..X0XI.1.6.q.U.iXPXkX[.@XyXrXdXdXwXm S _ a.].:X$XP.Z.6.h.tXfXwXnXSX0X6X{.K.| w O 7 k m v.l ",
"2.` ! = + + , H ^ ~ ^ _ 7.7.( q ~ ' +.P.uX|.c } 5.F.3X8Xc.l.#XyXeX#X6Xc.b o.f.-XFXAX).>.O.2.T.uXn.n.8XHXkX XL.A.a . . t z.}.7XF.",
"} R 4     : D Q _ 7.a.T.U.U...d L ' O.-.H.z.b %.1.m m l i s z.3XG.m x ..d.~.tXmXAXuX<.0 3 F T.J.p m &XbXjXb.C.| 9 @ z 4XcXHXMXI.",
"o.6 X   - H _ ! [ a.'.&X/.A.C.U.R.d.o.L G ..l c <.k S ~ J e r @.r ,  .e.Q.4XuX6XM.# + X % r '.dX8X%XhXHXqXc.a w 7 g 5XKXIXIXwX[.",
"a % X - X.w.` ` } U.cXMX>XD.E.+XgXXXk 8 D S j l { e T ! A V T ` B 2 ) a.!.3Xc.y - O * & 5 O.].FXwXiXhX#Xv.y q Z ~ f.:XHXIXJXN.x.",
"d 2 2 I 0.' Q B a A.,XxX#XD.XXgXBX{.x w M M 8 w I ( ] ^ w V ! W C 5 / #.<.z b e D M 4 M U I G.jXb.x.x.l.h 9 S Q 7.E.NXGXDXjXN.z.",
"e w P ' ' T V 4 e A.>XbXxX#XoX+X,X,XA.O.^ T L 8.9.a.a.t.l o.[ T & $ 8  ...O./ ' 7.] D T W B : y t s j L J 2 B ] 9.&XNXGXDXjXN.m ",
"P 2.a.d.4.G V T P :.'.+X,XXXhXhXDXVXH.3._ ] 9.T.Q.-X&X-X,.$.0.K = 7 H I ) ' e.d.d.!.c J E 4 $ 7 L / 7.` Q 3 Z _ 5.L.nXzXjXn.n j "
};
