/* XPM */
static char *Mud[] = {
/* columns rows colors chars-per-pixel */
"64 64 119 2 ",
"   c #160F06",
".  c #171007",
"X  c #1C1307",
"o  c #1C1309",
"O  c #22170A",
"+  c #25190C",
"@  c #2A1D0C",
"#  c #261B10",
"$  c #2A1E10",
"%  c #2F210F",
"&  c #33220E",
"*  c #3A260E",
"=  c #3E280E",
"-  c #2D2011",
";  c #342412",
":  c #3A2711",
">  c #372817",
",  c #3C2A14",
"<  c #3B2B19",
"1  c #452C0F",
"2  c #4A2E0F",
"3  c #4D310F",
"4  c #52330E",
"5  c #432D13",
"6  c #492F10",
"7  c #422E18",
"8  c #453017",
"9  c #4C3214",
"0  c #45311A",
"q  c #4B351A",
"w  c #4F381E",
"e  c #533513",
"r  c #583610",
"t  c #563916",
"y  c #5B3B14",
"u  c #503719",
"i  c #543A1C",
"p  c #5B3D1B",
"a  c #623E14",
"s  c #603F19",
"d  c #4B3720",
"f  c #4E3921",
"g  c #543C21",
"h  c #593F21",
"j  c #5E411E",
"k  c #664014",
"l  c #6C4416",
"z  c #64431C",
"x  c #6A461C",
"c  c #6D481D",
"v  c #704717",
"b  c #794C17",
"n  c #734B1D",
"m  c #7A4E1C",
"M  c #7C511E",
"N  c #5C4223",
"B  c #644522",
"V  c #694720",
"C  c #664825",
"Z  c #6C4A23",
"A  c #624728",
"S  c #654929",
"D  c #6B4D2A",
"F  c #734E23",
"G  c #784F21",
"H  c #714F28",
"J  c #6F512D",
"K  c #765125",
"L  c #7B5324",
"P  c #74522B",
"I  c #7B562A",
"U  c #7E592D",
"Y  c #745430",
"T  c #7C5931",
"R  c #82541D",
"E  c #88571D",
"W  c #8F5B1C",
"Q  c #905C1E",
"!  c #825623",
"~  c #855925",
"^  c #8B5B23",
"/  c #805729",
"(  c #835B2B",
")  c #8A5E2B",
"_  c #915E24",
"`  c #835E32",
"'  c #895F30",
"]  c #87602F",
"[  c #8D612D",
"{  c #936126",
"}  c #93642D",
"|  c #9A672C",
" . c #9B692E",
".. c #866136",
"X. c #8C6334",
"o. c #856138",
"O. c #8C6539",
"+. c #926633",
"@. c #956935",
"#. c #9A6A33",
"$. c #906738",
"%. c #936B3B",
"&. c #9A6E3B",
"*. c #9D713D",
"=. c #A36D2E",
"-. c #A16E33",
";. c #A47135",
":. c #AB7433",
">. c #A3743C",
",. c #A87438",
"<. c #AC7839",
"1. c #B17733",
"2. c #976E40",
"3. c #9D7241",
"4. c #A37540",
"5. c #A77943",
"6. c #A97A43",
"7. c #B48146",
"8. c #BE894C",
/* pixels */
"g Y o.o.` D D D I T I P D C B i ; @ @ 5 p ! ^ ^ ! R m R y 4 4 r r a a l l a l b ^ ^ z 1 8 j V j q 8 t C I P S X.*.*...T Y < ; > ",
"Y O.2.%...` T ....` H H C B 7 ; & , 9 x K ^ ^ ^ R R R y 2 2 4 r a v b E R b b R ^ M 8 & & t z F K D / X.+.D J ] $...D d > o - 0 ",
"2.3.2.O.O...X.&.&.' ( ' ) P u 5 5 p c F n x n n l l 2 & & 2 4 y a b W W R l v n x 1 O X & p L }  .[ [ [ I H H X.$.T N f > > 0 J ",
"2.2.O.O.....$.&.@.` ` @.+.F u q z G L 8 5 9 y t 5 & @ & 1 4 y y a b R v y e y r 5 * o O , c } ;.#.) I I U U X.&.%.P N N N N J o.",
"O.O.` ..` ....$.X.U D ) D 8 q x L ~ x & & 5 t z e 1 1 2 e a a k a a r 9 1 1 2 9 9 9 = 5 y K  . .( K K U +.@.@.%.T N S Y J Y T 2.",
"O.T ` O.T T ..X.X.D i q u i V /  .} x , & 6 x m s e e y e r r e 6 1 e 6 6 6 e a c x y y c ~ [ [ L Z I [ #.@.] Y N q D T Y Y T 2.",
"%...O.O.T ..O.*.$.C - 7 j K [ #.:.| s ; = t K R x e y e 2 1 5 1 6 r a a x a v ! E M y j n F ~ ) K F I +.@.P i w w N J T T Y T O.",
"5.3.$.O.` I &.>...q 8 p D [ ;.<.-.F 8 @ & y m m a a z y e 6 9 a c m m R R ^ _ _ ~ c k M ~ / / / Z B K U K 0 0 i w N U ..Y Y T 2.",
">.*.X.X.P X.&.` B p N D Z K ] ~ x i : O & p L ! n c v z z a x M ^ _ _ ^ _ _ _ ! n n L { | K F x j j B B w - 8 w N D U J C U $.5.",
"T ..P J ....( N q N z w 8 9 B z 0 5 & + : x ^ _ R n z z x m L ^ _ _ _ ^ _ ^ m y x n { =.^ 9 y V K V j j i q j B H P T P P U %.*.",
"N w q j w 8 8 8 8 g q 8 8 z K F F p & & p ! =.{ m 5 = e n L m ! ! G ! ! ! n y p x L | } q & 8 B L F B j B B P I U U ] I P T ] U ",
"N ; > q i , , ; 8 p N B K ) [ ( F p 5 p L =.:.R 9 @ * t n M F F n G n G n z p z K ~ { n , , e V F j j K ( ] [ ( U U K I U U U P ",
"z < 8 p N 8 8 8 j K ) [ ;.,.[ D p 9 i F  .1._ p @ O , s K L n c F n G G c z x F ~ ^ / c 9 8 e B V D K [ ] L K D j j C F U ] ] U ",
"C j B P / K j j I X.#.,.<.#.i 5 5 q c ) -.-.z : X O 8 n ~ ~ F c F F V n x x z s x K F Z z u j Z I L / ( Z j j i q j Z K ] ] ] U ",
"P K / @.#.V z Z ) #.@.#.+.P , & : i K }  .x : O X & x ( ^ K V F F L G F F p : ; & t j c j t j K L L ] L w 8 u j B K I ] ( ] K I ",
"K / [ } I 8 q V ) #.} } [ z ; + 5 V )  ./ u O O @ p ~ } ( Z B F L ) / F p , X O 5 j Z c t , 8 j N K / V 9 u j K ( [  .[ K K F K ",
"L / ~ p , & u Z [ } [ } / 5 + + q / =. .B , O % u / #. .I Z V K ) [ I B 7 O   @ q F I V 9 , 0 i j Z L j i j K ) } #.| L U F Z K ",
"L L F 8 ; : p L ) ~ L L p @ o @ B } ;.U , O @ 8 K  .-.} D L I ) ) I u , @   O 5 F ) K V B B V x Z L K w p V L ^ } } } / Z c Z Z ",
"V K K s @ 9 z F L K V z , o O , K @./ , O o @ p U [ [ ( ) X.( / V ; + o O O 7 z / ) F B F / K F K L L z z B n K ~ [ ! Z B V n F ",
"K ~ ! z 5 p z p t 9 8 , @ + : i L [ z ; , , p D ( P I ( } [ B ; X . o + , p C U ) ) I K ( ) I V U ) ) c x x c K L F z x c z n Z ",
"F ! ~ x * 5 9 5 q * , & & 5 i V K K B p B K ( ' P K I I P i < - . o @ 8 C ) ' ( ( ' ) P I K P K ~ [ ~ F c x c F n x z z z n c F ",
"n M c 8 % & * 9 9 e e t p z p p j Z K I +.;.@.U i B J ) D q , , , < q D ' @.' H P X.+.I C Z K K ) ~ ! K z j z z c z z c c n n F ",
"x n x e O & 5 y z n n F F c q 9 z K ) [ >.,.' N 8 N P U I D B N N N N P ' ..I B D ' +.C u V F Z Z K K F z t t z z z x v n v n n ",
"z x k 9 & = 9 x ~ { { ^ F z 5 p V I ) [ @.@.I , ; i P ] ..+.$.Y C 0 i C ' ..' h h K U i 8 q p N p z c c p 5 9 y z l x n c z z s ",
"p x x a 1 1 t L { | ^ n s p p Z L ) I [ +.X.p - 7 A ` X.%.>.*.I g 8 N T *.&.C 8 8 A C < : q V V i i c z y 3 8 y z n c v k t e t ",
"y x l e * = k ! { { x t 9 t B K U / / [ +.( 7 $ q P X.%.*.5.$.N < q T 4.7.T 0 $ < p p q p C / L p z x n z q t y c v c y y t 9 9 ",
"e a e & = 9 x ^ { ^ z j t p V L L K ) @.' N ; > g T X.*.3.3.J < < S 3.8.%.q - ; 7 N P F I [  .) z V F K p t y z x c y e 4 3 = = ",
"9 e = 1 e k m E E ~ c y 9 e Z L L I [ X.I 0 ; < h Y &.4.2.O.J 0 0 Y 5.5.N < ; < B U X.$.#.*.#.I Z Z ! K x s p y k e = 2 e 4 * @ ",
"4 4 4 r l v c k z z t 5 5 t F ( / I U C B 8 - ; i T 3.5.O...N < g T 2.Y f < 0 S ..*.,.>.#.+.) I F K F c z z x t 6 6 = 4 y y 1 1 ",
"4 a a v v k 3 * * 9 5 = 5 p ! ) L i , < , ; ; ; N ..*.3.%...S f g S D S N g N T $.>.#.@.X./ P L L B e 8 e p a 9 1 1 6 y k y 2 4 ",
"a k a a 4 = * * 9 p p 9 t V / I q o o + , q < w J $.3.3.o.o.N 7 < d N D A h S P I ` +...U U ( ) / z & & 5 y y y t y a v v a 4 r ",
"y r r r t 3 3 t l M L z p F K u , + + , N C C P $.5.6.$.O.N > - < f D T D S S S D U ..) U U U I V , @ & q z n n n n m b b a r a ",
"r r k k k a l n ~ { M i t j x i u , u D U I D X.3.5.o.Y S - # > f Y T 2.Y J J S I I P D C C B u @ o @ , z M ^ ^ ^ ~ E E a r 4 r ",
"k l b E R m M ! E M 8 & ; i z K K K U X.+.D P T $.o.D d > # # d J 2.2.2.T T T o...( P P C B 7 ; & , 9 z L ^ ^ ^ R M E r 3 2 4 r ",
"k b W Q R l v v x 1 O X % y L } } +.[ [ I J H X.$.T N d > > d J 2.2.2.T O.O.O.%.*.X.U ] ) P i 7 5 p c G c c n n c k 2 & & 2 r a ",
"k b R v y 4 y t 5 * X + 5 c [ =. .] U K U U ] &.%.Y N N N N S O.2.2.2.2...o.O.*.$.` ( @.X.F q e z G K 9 5 9 y e 1 & @ & 1 4 r a ",
"k k r 3 1 1 8 9 9 9 = 8 j L }  .~ n K U +.+.@.%.U N N Y Y Y ..%.2.O.....` ..` O.X.U D ) K 8 q x ~ ( x & & 5 y z e 1 1 6 r a a k ",
"4 2 3 3 3 3 4 k v x y i c ! [ } U Z U X.&.@.U T N w D T T Y T %.O.` ` O.` T ..O.X.J i w w i B (  .} c & & 5 x n z e e y 4 y y e ",
"3 e j k k z n M E M y j Z n ~ ] F H L +.@.K w q w j J ..T P T $.%.o...O.` ..X.*.$.B % 7 p K [ #.-.| p & = i M L z e y e 1 1 1 2 ",
"c m R M M E { { E v j M ^ / ~ L H x L I P 0 0 N w N U T Y P ..*.5.*.$.X.U I *.>...8 8 p D [ ;.<.-.G 9 & & y M M k a k y e 9 9 y ",
"^ { _ ^ _ _ _ R n c M }  .M K x j j C x w ; < w B D U J D I $.5.6.&.$.X.P X.*.] B p N D D K ) / x i : O & t L ! n c c z k k x M ",
"_ W ^ ^ _ ^ m y z M { =.[ 9 i B F z j j i q j C D P I P P T @.*.X...I P ..` ( N q N B w 8 8 x j 5 8 & @ : x ^ _ ! n k z c n L ^ ",
"L L R ! R n p p l L } { 9 & 8 x I F j j B B K I U ( ( I P I ..` N w 0 N w q 8 8 0 i 8 8 8 x F F F p & & p ! | { n 5 = e n M m ! ",
"n G n G n z p z n ] { K , * u c F j j P ( ( ] ] U U I I ( U U P N ; , 8 w , , ; 8 j z B K ) } ( F p 5 p L =.:.^ 9 @ * t n L K n ",
"F n G F n z x F L { ~ x 9 8 w x F Z K [ [ L K C N N B D U ) ..U B 7 8 p N , 8 8 N K ( X.-.,.[ Z p q i G  .1.^ p @ O = p L L n c ",
"F F F n x x j z x K Z F z 9 j D K K ( ( D j j i w p Z I ) ] ) ( C p B L ) H j j K X.#.>.<.#.i 7 5 0 c ) :.-.z : X @ 8 F ~ L F Z ",
"F L K Z c p , & & t j x j t z K I L [ I w 8 i j x F U ( ( ( K L F F / +.+.Z j Z ) #.} -.+.F , ; : i K }  .z : O X & x ( ^ K x F ",
"G ) ~ K p , o O , j K c u , 8 j j F I x 9 u j K ( [ } [ L P D K P ( [ +.I 8 u V [ #.} } } B ; + 5 x )  ./ e O X @ p ~ } ( Z B F ",
") } K B 7 O   @ q F L V q , q i j Z L i i z K ) } #.} ) L K D K L / / p , & q Z ) } [ [ / 8 + O q / -. .B , O % u / #. .L Z Z K ",
"( I q 5 $ . O , F ) K V B x B x Z L K u p c L ~ } } [ ~ V B n Z L L n 9 & , y K ) ) L L p @ o @ B } -.I , + @ 8 F  .-.+.D L I ( ",
"B ; @ X O + , B / ) D B K I K D K / L z z c F K ~ ) ~ c B c Z K B K K z @ 8 x K ! F Z z , o O , F @./ 7 o o - p U } [ ( ) X.( ( ",
"o . . @ , p Z I ) ) L K / ) I x ~ ) ( F B z c F L F z x x x n c K ^ L z 5 p x y u 6 8 5 @ O : i U ) z & , , p D ( K I ( +.) B 7 ",
"o o @ 8 C ) ) ) ( ) ) P U K K K ) ) ~ F c x c n F x z z z n c F K ! ~ x & 8 9 5 9 : : : & , i x F K z p C H ' ( P F I U K u > ; ",
"< , q D ' $.X.D I X.+.I B Z K L ~ ( ( F z z z z x z z x n n n n n M c 8 & & * 9 9 t u e p z j p j F K I +.>.#.U i A P ' Z w , > ",
"h N N P ' X.I B D ) +.C w B K V C F K n j t p z z z l n n n n x x c x e O & 1 y z n n F G c q 9 z K ( +.-.,.' N 5 h P U I D C A ",
"C q i C ` O.) g h P ( u 7 q j j p x c Z p 5 9 y x l c c x z k j z l z 9 & = 9 x ~ { } ^ F z 5 p V U ) [ +.#.I , ; h P ` ' +...U ",
"h 7 N T &.&.S 0 8 C C 5 ; q V V u i c z p 9 8 y x v x c j y e e y x v p 1 5 e M { | _ n p p p Z K ) / [ @...h - 7 A ` X.&.5.*.X.",
"q q T 4.7.T 0 $ , g i q h C / I i z x Z z e e y c n l a y e 3 2 t x l e = = a ! { _ c t 9 i x K L / / X.+.( < - q P O.$.*.>.$.P ",
"f A 3.8.&.d - ; 7 B H H I ) #.) B c m M y t y z x x y 9 4 3 1 = e a e & = 9 v ^ _ ~ x s t p c L I L ( @.[ N ; , g T O.*.4.*.J i ",
"g Y 6.6.N > ; 7 B T X.@.#.-.-.I V K L K x j p y k e 1 1 e e * & 6 e = 1 e l m ! ^ ! c p e q V K L U [ [ I q - , h P &.4.$.O.J f ",
"N Y 2.Y d 7 d A ' &.>.>.#.+.) K K K F c z x z t 9 1 * 9 r y 2 1 4 4 4 y l v x l z z t 6 5 t F ( L L U C N 8 % ; i T 3.4.O.o.N f ",
"N S J A h g h Y +.>.&.@.X.( I / L B q 9 e y a 9 1 1 3 y k a 3 r y a a l l a 9 * * 6 6 : 5 p L [ I i 7 , , ; ; ; N ..3.4.%.o.S N ",
"d d A D A h S I T ` $.X.U I / ) / z & & 7 y p t y y k l v r 4 a a k k a e = * * 9 p s 6 i c / L 8 o o + 7 q , f J $.3.3.o.T N d ",
"< d S Y P D S S D U ' ' U U ( / K 8 + & 9 j c n n v b M b a 4 a k r r r e 3 3 e x m K p p F I p , @ + , N S N D $.6.5.O.2.J d < "
};
