/* XPM */
static char *OreVein[] = {
/* columns rows colors chars-per-pixel */
"64 64 111 2 ",
"   c #727272",
".  c gray45",
"X  c gray46",
"o  c #767676",
"O  c #777777",
"+  c #797979",
"@  c gray48",
"#  c #7B7B7B",
"$  c #7C7C7C",
"%  c gray49",
"&  c #7E7E7E",
"*  c gray50",
"=  c #808080",
"-  c #818181",
";  c gray51",
":  c #838383",
">  c #848484",
",  c gray52",
"<  c #868686",
"1  c gray53",
"2  c #888888",
"3  c #898989",
"4  c gray54",
"5  c #8B8B8B",
"6  c gray55",
"7  c #8D8D8D",
"8  c #8E8E8E",
"9  c gray56",
"0  c #909090",
"q  c gray57",
"w  c #929292",
"e  c #939393",
"r  c gray58",
"t  c #959595",
"y  c gray59",
"u  c #979797",
"i  c #989898",
"p  c gray60",
"a  c #9A9A9A",
"s  c #9B9B9B",
"d  c gray61",
"f  c #9D9D9D",
"g  c gray62",
"h  c #9F9F9F",
"j  c #A0A0A0",
"k  c gray63",
"l  c #A2A2A2",
"z  c gray64",
"x  c #A4A4A4",
"c  c #A5A5A5",
"v  c gray65",
"b  c #A7A7A7",
"n  c gray66",
"m  c #A9A9A9",
"M  c #AAAAAA",
"N  c gray67",
"B  c #ACACAC",
"V  c gray68",
"C  c #AEAEAE",
"Z  c #AFAFAF",
"A  c gray69",
"S  c #B1B1B1",
"D  c #B2B2B2",
"F  c gray70",
"G  c #B4B4B4",
"H  c gray71",
"J  c #B6B6B6",
"K  c #B7B7B7",
"L  c gray72",
"P  c #B9B9B9",
"I  c gray73",
"U  c #BBBBBB",
"Y  c #BCBCBC",
"T  c gray74",
"R  c gray",
"E  c gray75",
"W  c #C0C0C0",
"Q  c #C1C1C1",
"!  c gray76",
"~  c #C3C3C3",
"^  c gray77",
"/  c #C5C5C5",
"(  c #C6C6C6",
")  c gray78",
"_  c #C8C8C8",
"`  c gray79",
"'  c #CACACA",
"]  c #CBCBCB",
"[  c gray80",
"{  c #CDCDCD",
"}  c #CECECE",
"|  c gray81",
" . c #D0D0D0",
".. c gray82",
"X. c #D2D2D2",
"o. c LightGray",
"O. c gray83",
"+. c #D5D5D5",
"@. c gray84",
"#. c #D7D7D7",
"$. c #D8D8D8",
"%. c gray85",
"&. c #DADADA",
"*. c gray86",
"=. c gainsboro",
"-. c #DDDDDD",
";. c #DFDFDF",
":. c gray88",
">. c gray91",
",. c #E9E9E9",
"<. c None",
/* pixels */
"<.<.<.<.<.<.<.<.<.<.<.<.<.<.<.<.<.<.<.<.<.<.<.<.<.<.<.<.<.<.<.<.<.<.<.<.<.<.<.<.<.<.<.<.<.<.<.<.<.<.<.<.<.<.<.<.<.<.<.<.<.<.<.<.",
"<.<.<.<.<.<.<.<.<.<.<.<.<.<.<.<.<.<.<.<.<.<.<.<.<.<.<.<.<.<.<.<.<.<.<.<.<.<.<.<.<.<.<.<.<.<.<.<.<.<.<.<.<.<.<.<.<.<.<.<.<.<.<.<.",
"<.<.<.<.<.<.<.<.<.<.<.<.<.<.<.<.<.<.<.<.<.<.<.<.<.<.<.<.<.<.<.<.<.<.<.<.<.<.<.<.<.<.<.<.<.<.<.<.<.<.<.<.<.<.<.<.<.<.<.<.<.<.<.<.",
"<.<.<.<.<.<.<.<.<.<.<.<.<.<.<.<.<.<.<.<.<.<.<.<.<.<.<.<.<.<.<.<.<.<.<.<.<.<.<.<.<.<.<.<.<.<.<.<.<.<.<.<.<.<.<.<.<.<.<.<.<.<.<.<.",
"<.<.<.<.<.<.<.<.<.<.<.<.<.<.<.<.<.<.<.<.<.<.<.<.<.<.<.<.<.<.<.<.<.<.<.<.<.<.<.<.<.<.<.<.<.<.<.<.<.<.<.<.<.<.<.<.<.<.<.<.<.<.<.<.",
"<.<.<.<.<.<.<.<.<.<.<.<.<.<.<.<.<.<.<.<.<.<.<.<.<.<.<.<.<.<.<.<.<.<.<.<.<.<.<.<.<.<.<.<.<.<.<.<.<.<.<.<.<.<.<.<.<.<.<.<.<.<.<.<.",
"<.<.<.<.<.<.<.<.<.<.<.<.<.<.<.<.<.<.<.<.<.<.<.<.<.<.<.<.<.<.<.<.<.<.<.<.<.<.<.# o <.<.<.<.<.<.<.2 2 6 6 y i y i 6 <.<.<.<.<.<.<.",
"<.<.<.<.<.<.<.<.<.<.<.<.<.<.2 z < <.<.<.<.<.<.<.<.<.<.<.<.<.<.6 6 <.<.<.<.<.o < < o <.<.<.<.<.2 U S U S J S M Y S q <.<.<.<.<.<.",
"<.<.<.<.<.<.<.<.<.<.<.<.<.6 S ..i <.<.<.<.<.<.<.<.<.<.<.<.<.2 S Y q <.<.<.<.o 6 6 & <.<.<.<.<.< S Q Y Y V V V [ J 6 <.<.<.<.<.<.",
"<.<.<.<.<.<.<.<.<.<.<.<.6 Q ) S = <.<.<.<.<.<.<.<.<.<.<.<.<.6 S Q 6 <.<.<.<.<.< = <.<.<.<.<.<.<.6 y i i q i h S i <.<.<.<.<.<.<.",
"<.<.<.<.<.<.<.<.<.<.<.6 Y *.Y 2 <.<.<.<.<.<.<.<.<.<.<.<.<.<.y ] ] y <.<.<.<.<.<.<.<.<.<.<.<.<.<.<.<.<.6 z V M < <.<.<.<.<.<.<.<.",
"<.<.<.<.<.<.<.<.<.<.6 S O.V 2 <.<.<.<.<.<.<.<.<.<.<.<.<.<.<.y J J 2 <.<.<.<.<.<.<.<.<.<.<.<.<.<.<.<.< S V x 2 <.<.<.<.<.<.<.<.<.",
"<.<.<.<.<.<.<.<.<.< J J V = <.<.<.<.<.<.<.<.<.<.<.<.<.<.<.<.2 J V q <.<.<.<.<.<.<.<.<.<.<.<.<.<.<.< M V z = <.<.<.<.<.<.<.<.<.<.",
"<.<.<.<.<.<.<.<.< S Q h = <.<.<.<.<.<.<.<.<.<.<.<.<.<.<.<.<.< J V 6 <.<.<.<.<.<.<.<.<.<.<.<.<.<.2 S J h = <.<.<.<.<.<.<.<.<.<.<.",
"<.<.<.<.<.<.<.< J O.Q < <.<.<.<.<.<.<.<.<.<.<.<.<.<.<.<.<.<.< ..Y q <.<.<.<.<.<.<.<.<.<.<.<.<.= Y ) z & <.<.<.<.<.<.<.<.<.<.<.<.",
"<.<.<.<.<.<.<.x U J 6 <.<.<.<.<.<.<.<.<.<.<.<.<.<.<.<.<.<.<.q ..) y <.<.<.<.<.<.<.<.<.<.<.<.<.h [ J < <.<.<.<.<.<.<.<.<.<.<.<.<.",
"<.<.<.<.<.<.<.M ] S q <.<.<.<.<.<.<.<.<.<.<.<.<.<.<.<.<.<.= x ) U y <.<.<.<.<.<.<.<.<.<.<.<.6 S Q h <.<.<.<.<.<.<.<.<.<.<.<.<.<.",
"<.<.<.<.<.<.<.= x J U 6 <.<.<.<.<.<.<.<.<.<.<.<.<.<.<.<.< x J U h <.<.<.<.<.<.<.<.<.<.<.<.<.y Q S 6 <.<.<.<.<.<.<.<.<.<.<.<.<.<.",
"<.<.<.<.<.<.<.<.< V *.U 6 <.<.<.<.<.<.<.<.<.<.<.<.<.<.< z V M 6 <.<.<.<.<.<.<.<.<.<.<.<.<.<.q J h < <.<.<.<.<.<.<.<.<.<.<.<.<.<.",
"<.<.<.<.<.<.<.<.<.< S U S 2 <.<.<.<.<.<.<.<.<.<.<.<.2 Y Q S < <.<.<.<.<.<.<.<.<.<.<.<.<.<.<.6 V y < <.<.<.<.<.<.<.<.<.<.<.<.<.<.",
"<.<.<.<.<.<.<.<.<.<.= y J S 2 <.<.<.<.<.<.<.<.<.<.# h Y Y 2 <.<.<.<.<.<.<.<.<.<.<.<.<.<.<.<.6 U M 2 <.<.<.<.<.<.<.<.<.<.<.<.<.<.",
"<.<.<.<.<.<.<.<.<.<.<.& y Y S 6 <.<.<.<.<.<.<.<.< h U x 2 <.<.<.<.<.<.<.<.<.<.<.<.<.<.<.<.<.6 U M 6 <.<.<.<.<.<.<.<.<.<.<.<.<.<.",
"<.<.<.<.<.<.<.<.<.<.<.<.= M Y U h 6 q 6 i q h h x h x = <.<.<.<.<.<.<.<.<.<.<.q x h i q < < 2 V x 6 <.<.<.<.<.<.<.<.<.<.<.<.<.<.",
"<.<.<.<.<.<.<.<.<.<.<.<.<.< V Y U U ] U Q U Q q i h 2 <.<.<.<.<.<.<.<.<.<.<.i Y O.O.S i 6 q i i h y <.<.<.<.<.<.<.<.<.<.<.<.<.<.",
"<.<.<.<.<.<.<.<.<.<.<.<.<.<.6 S S U ....Q Q S h h V 2 <.<.<.<.<.<.<.<.<.<.2 S U O.] x h i S V M U S 2 <.<.<.<.<.<.<.<.<.<.<.<.<.",
"<.<.<.<.<.<.<.<.<.<.<.<.<.<.<.6 h i i i q q i y z i i # <.<.<.<.<.<.<.<.= x J U [ V 6 < 2 h z V U Q V < <.<.<.<.<.<.<.<.<.<.<.<.",
"<.<.<.<.<.<.<.<.<.<.<.<.<.<.<.<.<.<.<.<.<.<.<.<.< h h 2 = <.<.<.<.<.<.<.y U Q ) ..z <.<.<.<.<.<.6 M V z 2 <.<.<.<.<.<.<.<.<.<.<.",
"<.<.<.<.<.<.<.<.<.<.<.<.<.<.<.<.<.<.<.<.<.<.<.<.<.& < < h 2 <.<.<.<.<.y V U J Q [ h <.<.<.<.<.<.<.< x U Y 6 <.<.<.<.<.<.<.<.<.<.",
"<.<.<.<.<.<.<.<.<.<.<.<.<.<.<.<.<.<.<.<.<.<.<.<.<.<.& 6 M J q <.<.<.= z S U U M ) z <.<.<.<.<.<.<.<.= x S S < <.<.<.<.<.<.<.<.<.",
"<.<.<.<.<.<.<.<.<.<.<.<.<.<.<.<.<.<.<.<.<.<.<.<.<.<.<.= M Y J 6 <.i J Y ) S S q z q <.<.<.<.<.<.<.<.<.6 x S z = <.<.<.<.<.<.<.<.",
"<.<.<.<.<.<.<.<.<.<.<.<.<.<.<.<.<.<.<.<.<.<.<.<.<.<.<.<.< V [ ] ] ] Y U V y < & < y <.<.<.<.<.<.<.<.<.<.& h S M # <.<.<.<.<.<.<.",
"<.<.<.<.<.<.<.= 6 < <.<.<.<.<.M = & <.<.<.<.<.<.<.<.<.<.<.< ) O.O.] S Q S h 2 q q i <.<.<.<.<.<.<.<.<.<.<.< S ) i   <.<.<.<.<.<.",
"<.<.<.<.<.<.<.6 h S 2 <.<.<.x ) 2 & & <.<.<.<.<.<.<.<.<.<.<.Y ..] J U x & o = z M z <.<.<.<.<.<.<.<.<.<.<.<.2 M q & <.<.<.<.<.<.",
"<.<.<.<.<.<.<.& h =.Y 6 <.<.M ] S x h x h <.<.<.<.<.<.<.<.<.z Q *.[ Q x 2 i Y Y Q z <.<.<.<.<.<.<.<.<.<.<.<.<.< 6 & <.<.<.<.<.<.",
"<.<.<.<.<.<.<.<.# V M M 2 <.z M V z y q M x <.<.<.<.<.<.<.<.2 M U Q U x 2 h ) Q S h <.<.<.<.<.<.<.<.<.<.<.<.<.<.<.<.<.<.<.<.<.<.",
"<.<.<.<.<.<.<.<.<.= h V V 6 x U Q V S z J J <.<.<.<.<.<.<.<.y [ [ =.Y ] ] *.O.Y U x <.<.<.<.<.<.<.<.<.<.<.<.<.<.<.<.<.<.<.<.<.<.",
"<.<.<.<.<.<.<.<.<.<.= x S x z U J V V h J J <.<.<.<.<.<.<.<.y Q Y ..O.:.=.O.O.[ ) M <.<.<.<.<.<.<.<.<.<.<.<.<.<.<.<.<.<.<.<.<.<.",
"<.<.<.<.<.<.<.<.<.<.<.= x J Y [ O.Y ) Y Q M <.<.<.<.<.<.<.<.y U Y ] Q *.*.O.O.*.*.V <.<.<.<.<.<.<.<.<.<.<.<.<.<.<.<.<.<.<.<.<.<.",
"<.<.<.<.<.<.<.<.<.<.<.<.2 V V S U V S h <.<.<.<.<.<.<.<.<.<.i x x M J O.) ..*.=.[ y <.<.<.<.<.<.<.<.<.<.<.<.<.<.<.<.<.<.<.<.<.<.",
"<.<.<.<.<.<.<.<.<.<.<.<.<.6 U Y ] U z <.<.<.<.<.<.<.<.<.<.<.V U V V M [ ] O.*.O.Q i <.<.<.<.<.<.<.<.<.<.<.<.<.<.<.<.<.<.<.<.<.<.",
"<.<.<.<.<.<.<.<.<.<.<.<.<.<.x V Y Q <.<.<.<.<.<.<.<.<.<.<.2 Y [ [ Y ) Y J [ ,.O.x 2 = <.<.<.<.<.<.<.<.<.<.<.<.<.<.<.<.<.<.<.<.<.",
"<.<.<.<.<.<.<.<.<.<.<.<.<.<.y M U i <.<.<.<.<.<.<.<.<.<.< h z J U x h q y z Q Y U J J 6 <.<.<.<.<.<.<.<.<.<.<.<.<.<.<.<.<.<.<.<.",
"<.<.<.<.<.<.<.<.<.<.<.<.<.<.<.<.<.<.<.<.<.<.<.<.<.<.<.6 M z y 2 <.<.<.<.<.<.<.<.= h ] Y 6 <.<.<.<.<.<.<.<.<.<.<.<.<.<.<.<.<.<.<.",
"<.<.<.<.<.<.<.<.<.<.<.<.<.<.<.<.<.<.<.<.<.<.<.<.<.<.6 S Q x = <.<.<.<.<.<.<.<.<.<.= U ) Y < <.<.<.<.<.<.<.<.<.<.<.<.<.<.<.<.<.<.",
"<.<.<.<.<.<.<.<.<.<.<.<.<.<.<.<.<.<.<.<.<.<.<.<.<.& M U V < <.<.<.<.<.<.<.<.<.<.<.<.6 M U h < <.<.<.<.<.<.<.<.<.<.<.<.<.<.<.<.<.",
"<.<.<.<.<.<.<.<.<.<.<.<.<.<.<.<.<.<.<.<.<.<.<.<.2 i z q = <.<.<.<.<.<.<.<.<.<.<.<.<.<.= h h z = <.<.<.<.<.<.<.<.<.<.<.<.<.<.<.<.",
"<.<.<.<.<.<.<.<.<.<.<.<.<.<.<.<.y y 6 2 2 = & < z h y = <.<.<.<.<.<.<.<.<.<.<.<.<.<.<.<.= z Y x = <.<.<.<.<.<.<.<.<.<.<.<.<.<.<.",
"<.<.<.<.<.<.<.<.<.<.<.<.<.<.# h Q Y S M S x y x x V = <.<.<.<.<.<.<.<.<.<.<.<.<.<.<.<.<.<.< x S M 6 <.<.<.<.<.<.<.<.<.<.<.<.<.<.",
"<.<.<.<.<.<.<.<.<.<.<.<.<.2 V J Q Y Y J Y x z z U i <.<.<.<.<.<.<.<.<.<.<.<.<.<.<.<.<.<.<.<.i U U M <.<.<.<.<.<.<.<.<.<.<.<.<.<.",
"<.<.<.<.<.<.<.<.<.<.<.<.6 J ] U y 2 q y i y i y q <.<.<.<.<.<.<.<.<.<.<.<.<.<.<.<.<.<.<.<.<.6 U V y <.<.<.<.<.<.<.<.<.<.<.<.<.<.",
"<.<.<.<.<.<.<.<.<.<.<.q U [ M < <.<.<.<.<.<.<.<.<.<.<.<.<.<.<.<.<.<.<.<.<.<.<.<.<.<.<.<.<.<.q S J q <.<.<.<.<.<.<.<.<.<.<.<.<.<.",
"<.<.<.<.<.<.<.<.<.<.6 Q ] S < <.<.<.<.<.<.<.<.<.<.<.<.<.<.<.<.<.<.<.<.<.<.<.<.<.<.<.<.<.<.<.2 z V q <.<.<.<.<.<.<.<.<.<.<.<.<.<.",
"<.<.<.<.<.<.<.<.<.2 ] O.M 2 <.<.<.<.<.<.<.<.<.<.<.<.<.<.<.<.<.<.<.<.<.<.<.<.<.<.<.<.<.<.<.<.q U U i <.<.<.<.<.<.<.<.<.<.<.<.<.<.",
"<.<.<.<.<.<.<.<.q ) >.J = <.<.<.<.<.<.<.<.<.<.<.<.<.<.<.<.<.<.<.<.<.<.<.<.<.<.<.<.<.<.<.<.<.y [ ] y <.<.<.<.<.<.<.<.<.<.<.<.<.<.",
"<.<.<.<.<.<.<.< Y ..U < <.<.<.<.<.<.<.<.<.<.<.<.<.<.<.<.<.<.<.<.= q i y q 6 6 2 = <.<.<.<.<.q Q U 6 <.<.<.<.<.<.<.<.<.<.<.<.<.<.",
"<.<.<.<.<.<.<.i ..Y < <.<.<.<.<.<.<.<.<.<.<.<.<.<.<.<.<.<.<.<.< q i J U S z i < y < <.<.<.<.q J J 6 <.<.<.<.<.<.<.<.<.<.<.<.<.<.",
"<.<.<.<.<.<.<.& h 2 <.<.<.<.<.<.<.<.<.<.<.<.<.<.<.<.<.<.<.<.<.< y x x h h q 6 < z 2 <.<.<.<.6 S M 2 <.<.<.<.<.<.<.<.<.<.<.<.<.<.",
"<.<.<.<.<.<.<.<.<.<.<.<.<.<.<.<.<.<.<.<.<.<.<.<.<.<.<.<.<.<.<.<.2 q q 2 2 2 2 6 6 <.<.<.<.<.<.q 2 <.<.<.<.<.<.<.<.<.<.<.<.<.<.<.",
"<.<.<.<.<.<.<.<.<.<.<.<.<.<.<.<.<.<.<.<.<.<.<.<.<.<.<.<.<.<.<.<.<.<.<.<.<.<.<.<.<.<.<.<.<.<.<.<.<.<.<.<.<.<.<.<.<.<.<.<.<.<.<.<.",
"<.<.<.<.<.<.<.<.<.<.<.<.<.<.<.<.<.<.<.<.<.<.<.<.<.<.<.<.<.<.<.<.<.<.<.<.<.<.<.<.<.<.<.<.<.<.<.<.<.<.<.<.<.<.<.<.<.<.<.<.<.<.<.<.",
"<.<.<.<.<.<.<.<.<.<.<.<.<.<.<.<.<.<.<.<.<.<.<.<.<.<.<.<.<.<.<.<.<.<.<.<.<.<.<.<.<.<.<.<.<.<.<.<.<.<.<.<.<.<.<.<.<.<.<.<.<.<.<.<.",
"<.<.<.<.<.<.<.<.<.<.<.<.<.<.<.<.<.<.<.<.<.<.<.<.<.<.<.<.<.<.<.<.<.<.<.<.<.<.<.<.<.<.<.<.<.<.<.<.<.<.<.<.<.<.<.<.<.<.<.<.<.<.<.<.",
"<.<.<.<.<.<.<.<.<.<.<.<.<.<.<.<.<.<.<.<.<.<.<.<.<.<.<.<.<.<.<.<.<.<.<.<.<.<.<.<.<.<.<.<.<.<.<.<.<.<.<.<.<.<.<.<.<.<.<.<.<.<.<.<.",
"<.<.<.<.<.<.<.<.<.<.<.<.<.<.<.<.<.<.<.<.<.<.<.<.<.<.<.<.<.<.<.<.<.<.<.<.<.<.<.<.<.<.<.<.<.<.<.<.<.<.<.<.<.<.<.<.<.<.<.<.<.<.<.<."
};
