/* XPM */
static char *Planks[] = {
/* columns rows colors chars-per-pixel */
"64 64 109 2 ",
"   c #3D2E1B",
".  c #3E311D",
"X  c #412F1C",
"o  c #492F1D",
"O  c #45321E",
"+  c #4C321E",
"@  c #52331F",
"#  c #5C351F",
"$  c #463220",
"%  c #4C3520",
"&  c #543521",
"*  c #5A3621",
"=  c #553922",
"-  c #5C3923",
";  c #623722",
":  c #633A24",
">  c #6B3C25",
",  c #723D26",
"<  c #733F28",
"1  c #644327",
"2  c #644B2C",
"3  c #6C4E2E",
"4  c #7D4429",
"5  c #704F2F",
"6  c #784C2A",
"7  c #71522E",
"8  c #6B4F31",
"9  c #6E5131",
"0  c #6F5834",
"q  c #725433",
"w  c #7B5734",
"e  c #765834",
"r  c #7C5A36",
"t  c #775939",
"y  c #7D5C39",
"u  c #7C6036",
"i  c #7E613A",
"p  c #815D37",
"a  c #825D3A",
"s  c #8A5E3C",
"d  c #84623C",
"f  c #8A643D",
"g  c #87683E",
"h  c #8A693F",
"j  c #92653E",
"k  c #916B3F",
"l  c #876541",
"z  c #8A6540",
"x  c #856A41",
"c  c #8C6A42",
"v  c #936C43",
"b  c #996E46",
"n  c #8D7247",
"m  c #957245",
"M  c #9A7345",
"N  c #9C7947",
"B  c #947548",
"V  c #9A7549",
"C  c #96794A",
"Z  c #9D7A4B",
"A  c #9E7D51",
"S  c #A1764A",
"D  c #A27C4D",
"F  c #A37D51",
"G  c #A87E50",
"H  c #9B804E",
"J  c #9F8051",
"K  c #A2814E",
"L  c #AC824C",
"P  c #B3864F",
"I  c #BB874F",
"U  c #B7884C",
"Y  c #B88A4F",
"T  c #A58352",
"R  c #A98655",
"E  c #A58955",
"W  c #A68358",
"Q  c #A98459",
"!  c #A78A58",
"~  c #AA8B5A",
"^  c #B48A52",
"/  c #BC8D54",
"(  c #BE8F58",
")  c #AD915B",
"_  c #BE9254",
"`  c #BF925A",
"'  c #BF985A",
"]  c #C08E54",
"[  c #C19156",
"{  c #C1955B",
"}  c #C39A5D",
"|  c #C5A15F",
" . c #C39661",
".. c #C59D62",
"X. c #C89E66",
"o. c #C6A264",
"O. c #C8A465",
"+. c #C7A865",
"@. c #C9A967",
"#. c #C7A569",
"$. c #C9A46A",
"%. c #C7A96A",
"&. c #CAAB6B",
"*. c #CBB26E",
"=. c #CBAD70",
"-. c #CCB472",
";. c #CEBA75",
":. c #CFBE79",
">. c #D0BD78",
/* pixels */
"%       % + . . : 1 = % = 1 6 6 > %   . * : - = . .     $ - - - $ $ @ : > : : : = * - ; ; : > > # * # # # + + . . O O # * * - - ",
"c g y d x d i x x d g i x B B c a t t t t y y i i i t t y l l c d i y w y f z v b m b k k k f d r 7 7 q w w w w d g v b v x c x ",
"T K Z Z T N N K A J K Z H Z Z Z V B B Z A J A A Z S Z F F A V V A M v g h b M B m v m v N K D D S D b v v v k v B K T K N m N Z ",
"&.o.} ..o.{ Y / } +.+.o.} ' ' ` ^ ^ ` ..%.#...' ` ' ....$...} } { ..} ..o.o.o.....o.@.#.&.-.-.*.&.-.-.@.{ / ( [ } | o.} ' } +.*.",
"-.*.o.X.#.{ U U _ +.-.-.*.-.*.+. .( ..#.&.=.%.#.} ....O.#.&.&.&.X. .]  .} o.o.} ` ` ....{ ( ( ] #.&.@.o.` / ( _ } } | } ' } +.*.",
"D K N v h f d j j B V Z N Z D Z m c c m F T T S N N D D V V N S V S S S D T F V v b V B j v B Z D N m h m m V C V C N Z C M B m ",
"z v s w p y a s d d p r w s f f a y t t x m b z h j z h p w w p v v s p p a a a s f d w 9 q y l g t e e g v m c h g g c c x d p ",
"@ + X X @ * & & & @ @ o % * * * & - - & & * * & * * * @ @ @ ; ; > ; # # @ @ + # * : - & & * - - * * = = - - * % + O + # : - & + ",
"  . . $ & & - : & & + + O + # @ O O = * & + $ % + + @ o X o @ @ o o @ @ X X X + # * %     o & = % $ O $ $ $ $   . . = = = $ . . ",
"g x c c c x x l i i i d i i d g i d g g d p d p r y p f f j s s p p s s d d d h a p y a y e 9 y s d d y y t r a g g d i i i x i ",
"E ! ) ) ! Z C m h h k v b B B m B K E T Z D N V n v M M S R G S b M b D D D D L v v v V Z V v V Z F F F m v V F T Z B n h n H H ",
":.;.;.-.*.&.&.&.@.+.o.o.#.&.@.@.+.*.;.;.-.@.o.o.+.@.@.o...} ..} { } O.&.*.&.O.| } } ....&.&.#.&.-.=.$.$.%.%.=.$.@.%.&.%.@.;.:.;.",
"@.-.;.:.>.;.&.@.&.@.#.o.#.o.&.=.&.@.&.&.#.o.o.+.&.*.-.*.=.#.O.} } { } } } } O.@.@.=.#.$.$.&.$.......' { { {  .} } @.-.&.@.*.&.@.",
"N Z T T T T V m m V Z N m b V Z Z C C A Z Z V T ) ) ~ E F Z b v k M b b M b k S S V V V V B b S Z N V V V V M V v S T D H Z Z N ",
"g d y w w y d d d d f g d d d g c c c v b c c b N C n m m m b b k j j b j f p p f l s y w q w l l t 9 w d z y 9 q w y y p f c x ",
"+ + @ * ; - * * @ O   O @ * * & - , > : : : : > - : : : > > , 1 p , ; , , > > ; ; : ; * % o & : ; * & & & & @ + + & & @ % & * @ ",
"* * : : - # * - ; @ @ @ @ # # # & * - * & & % % * * & % O O + * - = * * @ o o o @ @ ; ; # # : : ; # : : : > : # # # # # # @ # : ",
"g c j d e e i h k h d p p p s f d d d i i y y a t a a a p y d d g d d p a a p s f d f d d d f d r i d g m V m g i h k k h d d h ",
"T D S N k m M M M k k j j j v M B m v h g p i d v v z l h h k m N H F G S S S b k S D S k k M k m C H Z V m m v N S K N k k N L ",
"&.&.+.O.O.| [ [ [ } ..X.$.X...{ { } ........' ` ] ] {  .} { U L _ { X.=.$.X.{ { } } X.| | | ] ] } @.&.@.#.#.+.O.| | { _ U L _ | ",
"[ } O.O.O.} } } { } O.O.$.$.X.} ` ' ....#.&.+...X. ./  .#.$.$.%.' { } O.$.O.O.O.$. ./ I I / ( { { .. . . .` ..#.&.@.....} _ } } ",
"k k N S K K L K M S G S b v b N D A V m V A A m z l z S F F F C m v B N V M b M V v p p l v b V A A A b c l l m F S N N N N M M ",
"k M b v v v h f f f f d w e q e i y 9 9 q a l y t 8 t t l t y y 5 8 q a a w 9 t y t q t l c v b v z d d d y a s v z h h d d g h ",
"; , < , ; * * ; # @ + + @ # * * & * & O $ & & O & $ $ * = & % % +   X * - * * : $ X X X % * - * - : : * $ X $ % & & - : # @ + @ ",
", ; # @ @ @ # & & + X   O % * > : - * & $ . $ $ * & & - = = = - - % * > 1 = = : = = % O O = # + . = - : = + O O % % + & * ; > , ",
"w e r p a d d p d w q 3 8 q a v z y q 2 2 2 9 0 d d x n B B C n d q 0 d h d d g c n n x d g g g d x c v g i e w r d d g g f z s ",
"M M M N V V N A S V m v x v N W F v d y g v V A m M B B J E E H B m m H J Z M N C Z N m m v k v N T R S m h d d h m m M m v j h ",
"@.O...o.O.#.&.=.=.=.@.$... ...=.-.#.' } ..X.#.$.+.+.O.| &.:.;.} / { | ../ P ( ' o.{ ( ] } { [ ] { ..X.} { ] I / _ ' } O.&.&.&.#.",
"@.} } ..O.O.#.$.%.X...#.$.%.$.=.%.o.#.$.=.$.%.$.O.%.@.+.&.>.&.{ { o.O.} / ( } @.#...{ } o...} } [ ( [ } o.O.O.} '  .o.&.-.-.@.o.",
"D G V V S V b v x d d v V A A V V B V A W W Q Q ~ Q F Z D T F S N Z D F F D D N B V F S V M B B v m N D Z T T T B m B B Z C B c ",
"p d f v M V v l s r t y l l s l l l l d l l x v c c d t e w p w 5 9 w s p w q q p v m x d i x x i i g x g d d x d i d x d i w 3 ",
"+ @ ; , 4 < : %       . % * ; : : - * - * * - : - - : : ; @ o         X       @ > , : % % = 1 1 * .     = - % .     . . % O + + ",
"O O @ ; : > : : * # - - : : > > # * * # @ + X O   . + & * * * * o X     + + . . : : = % = 1 6 6 : % . . = : - & .       $ - - - ",
"d d r p y d z v v v M k k j f d w w 7 7 w p w r d g v M v c x c c d y d c i i x x g g i c n B c i y t e t y y d d y e e y z l c ",
"N V v f h m B V m m m m N D D D S N b v v v k v N H T K Z B N H T T Z A K Z N J J J T Z C H J Z C B B N A A Z A Z Z S F A A C V ",
"} } } ....O.......o.&.@.&.*.-.-.-.-.-.#.{ ] ( [ } | | } ' } +.@.@.O.} } +.' Y / ' o.+.o.} ' } _ ^ ^ ` ..%.#.o. .` ' ..O.$... ...",
"..{ { { } X.O...{ { ..} { [ ^ ` O.&.&.o.` / / _ } } o.' ' } +.*.-.&.o.X.+.} I U _ +.-.;.*.*.&.#. .` ..#.&.=.#.o.....o.O.&.&.=.=.",
"V S S S F G S S v m V B h v V S S Z v c m m B B V N Z C N M m B D F N v h d s h j m V N D D D V m c c m Z Q W F D N N S V V V V ",
"v j z a p a a a s d s w q q a l d r e w z m m c h g g h n h d d v v s w a w p d d d p w w d f f a y t t z m m l f h j f p p r p ",
"> ; * * @ @ + & * ; - & & * * - - & = = - - & = + + % * # # @ O @ o X X @ * * @ & @ & + + * * ; * = * & & * * & @ ; # @ o @ # > ",
"o o @ @ X X   + & * $     $ & = % $ $ $ % $ .   . . = = = $ .         O & = : : & & + O O + * & O $ & * & $ % % + + + O O o @ @ ",
"p s f d p d f d s p p p y e q y d d i a y r r y d d i i i x g g g x c c x g x l p i d d d i d g y d g g d d p p w p p f h j s p ",
"b b N S K D S D m v v V Z b v V Z F T S m m V W E H B v n n B H E ~ ) ) E H B m h h c m v B m B B K E T D S N M m v m M G G G S ",
"{ } O.&.*.&.O.O.} } ....&.&.#.@.-.=.$.$.$.%.=.%.@.&.&.@.&.;.>.>.;.;.;.;.*.*.&.&.@.+.o...#.&.&.@.+.*.;.;.-.&.O.o.+.+.+.o...X. .} ",
"} } } } } } O.@.&.&.$.$.&.$.$.....} { { ( ` `  .{ #.-.&.&.*.&.@.@.=.;.:.>.;.&.@.+.@.#.o.#.o.$.=.&.@.&.@.#.O.o.O.&.-.-.-.&.@.O.} ",
"M k S M b b N S V V V V V B V S S V V V A V V V M Z K D N D Z Z N Z T ! T F V b m V A N m b N D Z C Z H Z Z Z F ) ) ! Q F S m v ",
"j k j b k f s p s l s a w 9 w l z y q q s z y 8 q w y y i f h h z a w w w y d d d d g g d d d g h c c b v c c b B C n m m m b b ",
"4 , > ; > > > ; ; : : * % $ & : : * & & & & & + + @ & + + & # @ $ % & * : - * * & O     @ - # @ : 1 > : : : : : : : : > > > > , ",
"; # # # @ o o o o @ ; ; - ; ; ; # # - : : 1 : # # # # # # @ # ; * - ; ; - * * - : @ + @ @ # # # & * - - = + + % & = * @ O O + # ",
"g d i u p p s s s s f d p d g d u u g h m N m d d f k k h d d h h h k d e e p h j j d p p p s f d a d i y y d y w p d a p r d g ",
"N N H K G G S b b V Z N N k k k n B A A M B m m k S H N k k N K T K N N k M M m B k k j j k v M M M c x d d i y m v x x h h h M ",
"_ { O.*.&.X.{ [ {  .X.o.} } [ [ ..#.=.$.#.o.O.+.| | } ] U L ] o.&.@.+.O.O.} { { [ } ..X.O.$. .{ { ....o.....} ( _ ] ]  .} ' P L ",
"' } ..O.$.O.o.O.X. .I I ] ] ] [  ... . .{ { ..o.*.@.o.o.} [ } } [ } | @.+.} } } } ..X.O.O.X.X.} ` { ..o.@.%.o... . .(  .o.$.$.$.",
"m v b V S M v M A v p a f k b D F F A b v z x b D L N V N M M M k k N L T T L S N S S S M m M V F Z V v V A A B z s z F Q F F A ",
"q 8 q y p w q q y t t t l c v v z z l d y y y d h c h h g d f j v b v v v v j d s f h f r e q w i y q 8 q d x y t q 9 t a y t t ",
"o   o & - - * : $       % * - * - : ; * % X + + @ = - : * @ @ + : , , , : # # ; # @ + o + * * - = * % o $ & & o & $ $ * * & + + ",
"- % * > : = = : = = % . $ & * + O % = : = % O O % + + & * ; , , , ; # @ @ & & @ & o O . O & - > : - * = $   + $ * & = - = = = 1 ",
"d 0 0 g x d d g c B n z g g z d d h c c g i e e u i d f l s j z e w r p d p d d a w 9 3 9 9 a x z r 9 2 2 2 8 0 d l c c C C B n ",
"B k B Z K Z V N C A C V M v v v S G Q D m h d a h m B M v v g g M M M S V N D N F V m v c v V W T v d y g v V A B B m B H J J J ",
"/ } | } ( ^ / } #.{ ^ ] } { [ / } } ..} { ] ] I ( ' } +.&.&.@.+.@.o.} o.O.O.&.=.=.=.$.$...{ ..=.-.#.'  ...#.#.$.X.#.O.| *.:.;.o.",
"_ o.O.} / / } &.#...{ } ....} { [ [ [ } o.#.o.} } } o.%.-.-.&.o.&.| }  .O.#.#.&.$.X...#.$.$.%.=.&.o.o.$.=.%.$.$.+.%.&.@.*.;.&.' ",
"V Z D T F G S Z M V A N N M V V c m Z K D D T T m m m B Z Z m n G S V S S V b v x s d c V A Z V V B V A W F Q ~ ! ! D V Z T F N ",
"5 3 w d p w q 9 p v B z d i x x i i g g g d x x i i d d d i w 3 p s s z b V c l l t t y l l l l l l l i l l l v n z a r e w a w ",
"    X X       @ > , - % % = 1 1 = .   O - - % .     . $ O O + o + @ # , p < : % X     X + * : : : : * - - - - : * : ; : ; & o   "
};
