/* XPM */
static char *Sand[] = {
/* columns rows colors chars-per-pixel */
"64 64 47 1 ",
"  c #CCAE76",
". c #C7AE7B",
"X c #CCB37D",
"o c #D4B57C",
"O c #D8B77D",
"+ c #D6B87F",
"@ c #DCBB7F",
"# c #E1BD7E",
"$ c #CEB880",
"% c #D2B780",
"& c #D5BC83",
"* c #DCBD82",
"= c #D7BF88",
"- c #E1BE82",
"; c #DDC185",
": c #D4C48A",
"> c #DDC48A",
", c #DEC98E",
"< c #DACB90",
"1 c #E3C385",
"2 c #E9C686",
"3 c #EBC887",
"4 c #E4C689",
"5 c #E9C788",
"6 c #E6C98C",
"7 c #EBCC8C",
"8 c #F1C984",
"9 c #F1CE8C",
"0 c #EED08F",
"q c #F2D18F",
"w c #E5CD91",
"e c #EBCE91",
"r c #F1CF90",
"t c #E5D294",
"y c #EDD293",
"u c #EDD997",
"i c #EDD698",
"p c #EEDA9A",
"a c #F3D392",
"s c #F8D693",
"d c #F5D996",
"f c #F9D996",
"g c #F1D698",
"h c #F4DB9A",
"j c #F9DC9B",
"k c #FDE09D",
"l c #F7EAA8",
/* pixels */
"y6eey66515577r9aq5>*-615isaw>43qhhsa765y7766455egee67370yya5119a",
"76e76y0y61-2qskfq75*;&&1esr677066yh7216665w45517eae97a05ay72@#07",
"qqa76y37y4;5qqfssqq76;&579eey77,6>w667e7y65*46yaaga73pa9a061@46y",
"aaf76114t411uhaaassfae57756eq7744;>67y67ee54677eaa9ay64157675y0d",
"a9a44=*;>*5yph5ahasssaea556aa77776>60y07ey7576779qay07;>;#;#7aqq",
"a7y64O+**&46hhga7677q7ar5556aaaasre6yy7a6e57e45>45dsa7;>;-123000",
"067w41565465yhyy51141***;6575e70ahyyy7y51;156;*;;6yass7i67512#y7",
"7w7t63777e667hiy1:=&+oO@;546271677y9y9y6*;=>1;*+O*i739yi0sq741u4",
"4;@w73577ee76ayy1<=;&+&O>47q87+::5e9y7y6-5161>*oO>y27qpi3qq074a6",
">>*w4556y57e7aay6,&;17921>6724*&:7e317y977yy64*XoO6;yepi0qy06644",
"6>167300e667aesa6>>78qq9666751;;67734te757aha75;Oo*5y6w42907>07y",
"ya9y57707w65aafa64>67q77677062516999yy66162yy7011;167t4*;540,64y",
"aa3e50yffy656erhy6177y6556eahq55637quy64@11660q277797g77137e677s",
"16e5;46ayae64e7a61;16y1;*656af66597w676511#457217y77aa765-7975e6",
"-*66441679776ye51;4664>14***2a693h666071112761*11577a6651399aa74",
"-466e4**679577e**1464;>47;@OO66ar6;<6y6711337761*&*7r5ww5397r074",
"676w761;399330725750754t921Oo*5s97666y7651750yy7#*16y77y79755663",
"2aauy7e7q99374377177q7eaq721&;*w16e66e9a775566ya7**>77aqaa055y63",
"179f7ee9032t57256411dy7415701@:1*16777e66776661y7671;:;19y750007",
"y79sae461;O,67037667ah04;12y1*O*%45aq0w51w6y74*47ar7;X+@7ea7dssq",
"a399ay65;1@4467999reqhy4**1t>4*,-65aq9554eesfa5>wajy-*+@10y609qa",
"ssa9eyy511>>>15aaaarshkjq9;*:6174w6asqrayy7yjsy66yay551;>7664q9h",
"yar37ei557ye>*;699y767ypaq616ey0yy5w6997y6e67uy66ew657536011#q0j",
"isg366y7267w44;;*16-1*,t276777yaaw1w5221*=>114>=*w4e79756061#77d",
"aag7w7y727yy772;O&>*&&&>**566@67sy6t>***O&;>;,==*67669q97661163d",
"shjayyy76457y771@o,4115>=&@1@O;6ye66*O*;@=*-<w4;;16779a77456542y",
"faaaage-&&*7ya77776e77qy1;11@+*4e2664@-65667pyhy6;1597665457777a",
"a66eag6*$. *67aaaaqaaaqq511156;**&676666677qalqay1;5y961@54y0677",
"71467ae=X.o&66yaas97yy777147qa71&o4y7715>47sjjaay7*;;4>;;5yy6;;;",
">4665ey5;=1141e70ka727777*179qae@;6aew21>*1779ya77;*4771116y61*>",
"iyy75564;7y751150dy7*65qyy77q8ff777ae>;4*@151577761-6706660641;7",
"lgaa66*65yey67;6yay6630hpay783qay6yyy4y727561e7a74557a7e656t656a",
"hisa761yw766155yia777276yya1#19ya6eey76112579aqaq64*1>15ysae>57r",
"wyf77166646157177ae77a07qy041@ey66e7wy7y61119sksq75-;&&1ysa66775",
"44e626yea74;46y0ahy08pyqa064@50yrqa76y77y4-5rafasqq76;&5e77ey75,",
"5;>67y67y76177e7ra00y74163735q0aasf741;5t411ihaasasfre57556ya776",
"76>6eae9ee7776y7a9aa0711*#;#7aqqaqy44&*;>&1ahi6afasssqya166as777",
"aye6tyy76e55751>15yss7;>;;11777qa7y6>@+**&46hjgsy67699qa2557yaaq",
"ahyeyee2=4416;;;16isqaeu072111y6y67641545466yhyy51541@**16567e70",
"6ea9a9e7-*=4>;@+O;y770ey0sq751u66y7t73709r66egyy1:&&&X+@114727#t",
">6e9yry7#4464>*+O;y57qpp7qs777y71>@<53527e677aye><=;@O+O;67q85+:",
"=77316e9200y64@Xoo4*i7pi7qq76644>>*e5777y47e9yay6>=;1772>;6636*&",
"57774eee50asy71;Oo;5076,57ee>w7y6>16677qy667aasa6>>79qq76767511;",
"6799yy66;450yqy1;1466t4;1257661yas9y560y7666yaaf61;77q05677e6215",
"637aiye4*1167072q7797a74457e57yaa77e1yyfsy656eehy61770655070hq65",
"5006676412@656257y77ay775-3975e656e5;560yhe54e7y61;>7t61*>47as65",
"3uw,6064--2764*11557q764139qaa74-*w454>479776e75;-16644;4;**2u77",
"q7;,777612377651*&*6a7ww2397q704-4w561;;69957ee1-1664;>461@OO67q",
"77676y7761357ya71*16a76ee9912763776w7641799776625677616y921+X*6s",
"13y6677a775566ya7*=176a9sa054i631yahye77989772777567a7eaa721***7",
"*46677e67e66664y77714:-29y757q0755ra7e77792777334451dy7412971*:-",
"@;5aqr661w6ye4*46a07*X&&7ea7dsaq07qfye>511&>65937557fh74>-2i4*%-",
"*65sa7555wesfy6>6fjy1+O@17e6y9qsa79qay6511@>66777a7y9he1*-1t>-=4",
"666dsqrqay7yfsa66yyy55;*>766597haaq90yy71;>4;54yqaarsjlhq7*==e46",
"ye5w7977yw777yy6666659776a11#q0jyaq370d217u7;=;79qa777yhqs6>4ay7",
"ye1<722-*=>;5,;;;t4779726e61#77fsaa746y0567656*;@;6-4*>w5756e7ya",
"fy6t1@;@o&4;;<==*566e7q77561#75daah7e5y756aa775;O&<**&&,@;275#60",
"ye6,>o*;****w<1:;4677aa77676464qafhaiyy76>17a756&%411;6,&O@1@O:7",
"7576>@;45667phga6*15977511577q7afaaaha7*:&*7ya77777777qy1;11*+@1",
"*+677456669ayhasy4*57964*56y7676a66eyg7*o. *66rasqaaa9qq61>#56**",
"&o400655443ahjaae7*;;4>;*5yy6;;;6>477a7;%.o*56aaasq000777142aqq1",
"*;5aew51:&1r79ya991&477111606;*>466656y5-*>*>467qja740w751;79qa0",
"76yaw>;41*-517e7561-6797666641;6iye76564=6y76114yaa6#467yy77q8sd",
"a6yye5y52327177ae6657y67w76i476slgaa56*w4aae771tya77620kpis783ay"
};
