/* XPM */
static char *SmoothStone[] = {
/* columns rows colors chars-per-pixel */
"64 64 20 1 ",
"  c gray48",
". c #838383",
"X c #868686",
"o c #8B8B8B",
"O c gray56",
"+ c #929292",
"@ c #979797",
"# c #989898",
"$ c gray62",
"% c #A0A0A0",
"& c #A7A7A7",
"* c gray67",
"= c #AFAFAF",
"- c #B2B2B2",
"; c #B4B4B4",
": c #B9B9B9",
"> c #BCBCBC",
", c #C1C1C1",
"< c gray77",
"1 c #CBCBCB",
/* pixels */
"=&*&-*==;:=#oOO%=;=*-;;-#Xo$--;*%$=&$+%::--;;=%$*=$O#-=$=,1:%&$#",
">;=*=*&*-;*$+@@=>>*&:,:%@X+%-;:;-%&&#$&-;-=-*%$#%%$%%*%@#*;=%&$$",
">>-=*&%=;;-&%*-::*#$-,>*#+%*=&;;-$%*-:=&&*-*&#@+$&*=*&@Oo$&*%&%$",
"-;:-=%*%**$&&-;:*&%-:,=$$+$@#+->>&%*-:;*=--&%#$$%*;-=@@O+#$#@%&*",
"&=>-*%=-;=%%&==%@@@*&%&**%&#@o*;<--:1,-*:-=$%$&%-=:&&$*%&**%$**%",
"&&--=%&-:-&#$#$#%***%+#%=*#@O@==:;>>>;==>:*@O@&=;;;*-*--=$@$$*-:",
"&%=&=&-><;*&%@$%;>:=$@&--*$#@#*%=&;>:;&=;>=#XO#*;>:==;:>-%*-;&=-",
"%$%%&&-=>--&%@**:,1<;%=-=$###$&#$#*=*==;:::%@#%;>,:::>:;&@#%*#&:",
"&*=%*=;=*$*&&$-;><11>:;;*&*#@o$&&&&*%*;;:-;=**=:>;-=;-&&%$*%&O$-",
"*-;*==;&*$*$&%=*;;,<<,:;=*%@@@$==-=**=:=-%;=::--;&&%--$*&*%&*%&=",
">::&&%-&&@$&----=&&->:;-:;=#++@*=;*&*;>&+o$&--%#$%&---@&=-&$*%%&",
">,:&%%*&%@#=;>;=%@%-:==&===$$$$&*=%%%-=&+@$===#@$%$*&%@*;:*-==$$",
"<,:&%$&%%@@=;:;*@X#%$@*=*%=$%+%%=*&$$==&@#&-****=&*--=$&;>,:=&$%",
"->>-&*&&$@+&;-&@%#$##**=$$%@%#%$*&%#@##$&*--&%&:,-*%**&=;,>,:-==",
"--*-;;-**$@$*&%$*$@@$**;-*&$&%=%=&=%&$$$&&*&%$$***;=>-:-:::-;-=&",
":;=:;;-*%@#&-*#@&:%**>**=-*$==*#%#&*;&$*--&&%&#%$=;=>&:-;&#$*==-",
"<>*->>:==%&%==%*%>&*$**=:,-&=-:&%+*;<;=--;*=@$+#+*;;;&-=-%@$%-$$",
"1<:-;:-=&&&&&&*&&;&%$--%-;;%&%=$&$=,<:--=--=###&$*;:-=*=%&@==:*%",
"<>>**=*-=-&&%&;:=&#@+#&*=:-$@$**=*;,,:==**=*###=&>:;*-;-$%@-><-#",
">:>==$$%*-*%$$--*@$$&&&&&&%@$$==;><>=&%-===*=*=;*>>,=-==%*%;;,=%",
"*=;**$$$&*=&&@*=-%$$%%$&%&#$#$*;:;;-%=*;=-**=:;;=11;*%==&$#&==%$",
"*-;==&*%%$&%-&=%*%%&*=%%#&#$$=-:-::;*&%=%---**&&&;>:-&&*&*$=*=@O",
"#&==***&%&==;-====&%%&%*$%#%$*&*&;=;=;*&$=-:==&%&=-&&&%*=*$$$%+X",
"==--==*&$#=:1>-&%$$$$%&=%%#%&-**%:;:**$&#*-;*&$$#%%&&=**==*%%&@+",
"*$#$*=-%$*,<<-=&=*%#$$=;*%@@%$%#*-=&*=-==*---*;%&#&%$-**&--%%%$+",
",=$#&***=;<<,=&$%#%#*%;;=&&%%%=&-;:**&==*%$%%&&%%&=*&*%#+*-=;;:;",
";*#@$&**;>>;=%$$&&=%*%*%&**$%*;--*=%*&=-*%@#%%%%=-;-=&$$$=&*=:>:",
"::*-&&&&=-*%%*%%$**-*%$$*=;-*%**&**&%&#$#$+#$#@$*:;:=&%$%&%&*:>>",
"&***&#**:*$#**&&=;=;=&@$=:<-*$%%#$$%=*&%%=&*$@+#%*-;--=*%%$&*-;-",
"&&*&&$=-<-%%*==-::****&%*=;&*##$#$$&==-==;-=$#$*&&*==-=-==*&==-&",
"&*=#%+=*,;=**;=*;=**=-*%$*=**%*%$@$=::;:--=*$&&&###%***-;:-%--=#",
">:>*;&*#=-;=&--*--*%&%$#o@#&$&-&=$&*:,>,::=*&&*&$&&=%$&&:=*$%&%+",
",,;*&$O O$&$#=-**=*&%%$&#**;*&=&-*==:<,>--***&**=;=*&$%+%$%%*=*$",
",>-&%#Oo$%*#%%&%&;==$#%&*&&-;-=$*=-*=;>:::--=$$%;>;=%#$+@+$#$%&%",
":=$@++OO@%%#***#@-==$&=*=%%*-=&@%-;&%$-;;=&-=&$%-*=$&&&+o+**-*;-",
"-*%##$%*;;---*%++*-=&&*%==&%$=%&$%%$&*;:;=$**==&&&&%$*&#+@&#&@$$",
"$&%$@@%&&**:;-&$#%%$@%=&%$$#@##%&&*%&*:>=&+#%-:;==**=:*#O#%$$+#$",
"$*;*%%=;*=-:*%#&%%$&%&*$$@%#&&%%&***=->;%@@@&&=;:>-;&&$#$&%#OOoO",
"&-;%$%;;==***=*-*$@$=-;$#X%#*##+#%&%$$==&&==*%%-=:;>;==*%*$&##+#",
";:>=---*==%#$%%=%$$=:;*O@@*&;;-###$$#%==&*=-=-=-*=-*;=:-;***%%$&",
"==&&**-*=&%##$%&*%$%-;=##&*=&*=%$#%*&**&&:-;&:--*&=*:;>:;;*&$%==",
"&&=;=&*==&#$@@@@%$&$&-&&#%#%&==*=&=;:;==->;;=;=*&$&$&%%*=;-=&&**",
"#$%=*%=:,-%#@+@+&%%#*>--%&$%$$&**&->:=&*=1,>&$#@$+%%=%%*%=**&$&&",
"#%=;-=;,:*#+@$&$&%%**-**&**==%%$%#&--=*-:<:-&$&%#+%***;:*##&=*=*",
";=%=-;-:;;&&%%=**&#&%=$%%;-:;=%@#%=--;-=&===&%*&&$%*-;>;%##%*-:,",
"*%&-==%=*;=-&&=*$$%-;:**$**;;;%@+**::1>-%$%%**>>>=*=*-;*@#%=*->1",
":&%%&%$&*>>>=*=**%&&-;*#+$*==;&%O=->>>,==***&*><<:==&&#@@%::;=;,",
"&##$@#%*;,1<==-=#@%=,;-@+%=*$&**$-*:-;;-*&&**=:,,:-=*&$@$%-=-&:,",
";=$#@#=-;><1<,::=$&*=%%$@&;:&$&**=&-=;:>:*%$&-;;:=&&%%@$$&=*;*:;",
"=-&&##%-::;>><>;%O%=:*-=*->;&@$&--%%&;;=%$$$;:>;=&%=*%@$%=**-=;=",
"$%#*=-====%--;>:-%--=$*=;,<:%+@&=&&%=;:-&%&%*-:,==*:=%#*=::::;;=",
"$&#&%*=:;;*=&=:,;&-=-&-->>,&+@*-==-%&*=#@%-;;:,,-;-:*$&&*=;*-=;-",
"@$&=&&&-=;:>*&-><:>;=&**;:=&#==-%***&=:-*=:>-**-===&%%%$%-;&;-<>",
"&&-=#@$=&*;>=$$-<,:&=*==;&&*-<;>=>;-&=*&&=,::-:;;*=##@$@#%*&==::",
"$*-=%&$##%;::%%&,<;$%%-$*%&&*;*-=>-:**$&:,>-*%&=--*$$#&%&==-====",
"&%$#%=-##$:::&#$;-&#$*;*%$*;--*;-;&=&=#&->:==&***-=*$&*$#$&-*-*-",
"$%%$%*=#&=>:>=-=;;=*%=;&@+%&&%**=&@#$*#&=-=-:=&@#&&&%-=&&*-**;:>",
"%$$%*--**&=;-=*--*&*&&**$$*:;==*-$#@#&@#$*-->;=%$&%&*=#+@=--=-:;",
":*%**-*&$**-&*->;*%$$@$#%*;-=&-*=*=*%$#$%=::1:=%%*$%*--&&-==%&%%",
"-*%=**&=%$@*$-;>*$$$%%=&==>;-&%&&==%##&*--;:>:=*%*$#%;>=#**:*=%$",
"&*&*$%*-&$@&%=;>*&=-==::-=-&%$&%%-=%%*:===;>>-=*%*#$O&==$$%*&*&&",
"O#$$@&==&&%*%-=;&-:>-=>;=%**=%$$&*#@&->=-&****$%%*%$O@$*#%%-=;::",
"$#$$%=**%=-;**&---;;*$*=&&%**=-*=%%&=;;*=&-*&#O$*:=-@+#==@&--&%;",
"*$##=*$@$;:;*%**=&*=*$#$#$&*;::-;&&&=;-;-=:*&O.#*,;:*%;:-+=,,&$="
};
