/* XPM */
static char *Stone[] = {
/* columns rows colors chars-per-pixel */
"64 64 41 1 ",
"  c #343434",
". c #3C3C3C",
"X c #434343",
"o c #4C4C4C",
"O c #545354",
"+ c #5B5B5B",
"@ c #646464",
"# c #686867",
"$ c #6B6B6B",
"% c #70706F",
"& c #747474",
"* c #787777",
"= c #787877",
"- c #777878",
"; c #7C7C7C",
": c #807F7F",
"> c #7F8080",
", c #838383",
"< c #888887",
"1 c #888788",
"2 c #8C8C8C",
"3 c #8F908F",
"4 c #8F9090",
"5 c #939393",
"6 c #989797",
"7 c #989897",
"8 c #979798",
"9 c #989798",
"0 c #979898",
"q c #9B9B9B",
"w c #9FA09F",
"e c #9F9FA0",
"r c #9FA0A0",
"t c #A3A3A3",
"y c #A8A8A7",
"u c #A7A7A8",
"i c #A7A8A8",
"p c #ABABAB",
"a c #B3B3B3",
"s c #BCBCBC",
"d c #C4C3C4",
/* pixels */
"&;$;,8772-#@#;et3,,;*#+@@@O;et5q,&#++;q4,&$%#@@+@14,1q5;%&2--@%;",
"$;;87t78,;$&0pp73ye2-+O*&&%8qu55,%++&5e5,;&$@OO+,55;;4&@+@;#Oo+-",
"29aayt41;=#-paq32at1*+#*;;>4442>&@oO#395,;$@@#&1w51&$,-+O+@O.X#5",
"ptap80>2-=@&yw5;*45;%$;,<;-:2,,%++O%>45q5,$@>5et02;$+$&;&-@o +ts",
"q8tp8;&3,;#;751&$--:>2,&,,,;1<*$+$#*;<6q8;&&4tq71,#XX+;1;-;,;aaa",
"51-;825yq114t,;&@*2e62>%>15579,%$#&,223q8227ptq2>%O.O#;,>,195aep",
"1,;;aapur578t5,,$,qt92*+*3wt852&#+;,59etq6tut82,&OXo&7iq5qyp5y6e",
"7,,1wuupt2q2qq1;@;954<;+*qt6,&;->&6eeetyuqeq71,&+.X$1077ytt5,55e",
"8,58q8852>24q71&$;2,,:-+-t9,:@$;52ye795q511,;&&#o.o;<58qq5921qqq",
"-%>55255,#&,e5,&*,256>-+;pq,*$%-25p7q742,&#&,;$+oo@22187,,18q8,;",
"%$&1524,;#@-,3586ttq2;##-q91%%&%-1t9852,$+O@53&+Xo;ypiua995951;;",
"+@#-,:1:&@+%&,0uuptq1,%$-222&&&%&4e2111&OXO,tq,#@;aaaywayt952:$+",
"O+#$$#-&@++@#>upuyuw4t8;;2544>-*;952>2,%OX+5t7212qdaputtut4:;@OO",
"%#@+@@%#+O@&,7uuwqq5qtt7564<752,32,;&-$OO@,t7857rtsaptq5941&@##&",
";-$+@&,;$+%,qttptwq599579q52953,1;;#++OO@;5p842upqpapw8,4,&@O%@%",
"1,11355<=%3taw88qqq555:9pat2<,2:;@+oOoO+187pq8qpt7tyt81;,,%++&&%",
">45855121,upa03<27utq<#qtyq,&;,>$OXooO&5t11up7qtq00821,;;1;,1>&@",
",224<,,,2<0tt52>,,qq8,#twt3-:52:+O+##;tp85qpauu75253,&&&=177e1,;",
"qte81&97q85qq<;&;;q88&+4q3;&<tu51,q,$;tq77ppatppt1;,$@@$&<ut8$$7",
"t8251,tr8<,12>,-;,62,$O-4*%;5tae7,5pq7tt7uptu8tuuq,;$@@,,3tq5;8s",
"wt28tupu8,;,,>;;>>2,;@O&533qw5utq,>qptyaapu774qq282;$@@57qpq83tp",
"t8-,7qq1,2,511;$#&&$+@$&,qutq55p742tyqqaytt78,,2;;,;&@$7q77tappp",
"74,,pp8,2ppu7,#@@&&&@$$&;5at8<,tt0055<5t5<5811&>&#,>%@-wqq0qp77w",
"u7,,5qt7yapq,@oO%,1,$#@=2qtq52,857851&;5,&;5:&#%;;1;&;2ptq88r27t",
"pq218tpppuq5,%#3py85$@&,2352,,,;;132,$&,;;%2,&@@$,71;,7uu752q7pp",
"tq2,27ptq512587asy1;O+w7q53,,;,&$>85;$;q2;$,,;##@1qq55tt72;:rruq",
"55,17uu78,,qapqpda2#o$spq31=$&&#$%;<>;5p72&,15=&#0tu85p72,#$tueq",
",,;>,1525,&0pt15aapq&,stptt5;#O+@$$-,15t8;@108;;,ptr75tp4,#@8tq5",
">&&;-&251;-6u8=5saq1;qapw7832<@++$&&>,232;$qq8&,uaapt51q74;#;771",
"&&&&##&,,,>552;8ppt8&2aau72,,;&&,%&%>;,<,;;75&#2pt7u81;,22;@$4q1",
"&$@+XX+;1>,1,;;2572,;qsat51;;$;,e,;+@#;>:&&5,+&upq082,&-;;@O@25>",
";&@+o+;<,;;,,;*=&5q7>552155>;#;,8<$@$;,,&&#&@+<q8=;,,&@@%@oO,w81",
",&#++;q2,-%%#@++@24,2e2;%&2&&@%;&:#;,9q72;@##;qt2,,;&#+@@@+;qt5q",
",%++$5t5:;%$@O++,55;;4-@+#;#Oo+&$-;57t96,&$&8ppq5pw<;++&&%$5qu55",
"&@OO$475>:%@@#&1e5<&$,&+O+@O.X#829aayt3<;;#&paq32pt<*+@;;;:5452,",
"++O%;45q4,%@;5et92;#+$&;-&@O +tspeaa88>2-;@&ir5;;55;&#;,,;;;2,,$",
"+$#-;18e8:%%5tq72,#XX+-1;&;>;aaaq8tp5;;2,;#;781&$-=;,1,&,,,;1,;$",
"##-,21478140pt72:$OXO#;,:,193atp51&;525p7115e,;&@&2w72;$,158q0,&",
"#+;,58rtq8ttt82,&OXX-7uq8qyp5u8r2>;;aaput578t5<:$,qu72&@&2wt532&",
":&5ttrtuuerqq1,%OXX%1899ytt5,38e9,<2quupt272qq1;@;755,;+=qt8,&;-",
"52yr78875<1>;&&#oXo:1887q8821tqq8,58e8852>44w71%$;2,,;-+;u7,;@$;",
"24p7qq52,&#&,:$+Xo+42180,,,778,;&%,45454,$&,w5,&*,358>&@;u7,;#%;",
"-1t8881,$+O@55&+Xo>yypua705751;;%$&1514,;#@&,3556ttq2;#$&q72%&&$",
"&4q4<,1&OXO,rq,@@;aaautaut852:$++@$*,>1:&@+$&,quupuq1,$$*222&-&%",
":751,1,&oX@5t7512qdaputwut2:-#OOO+##&#-%@++@#>upupuq5t5;;1854>-&",
"42,;&&$OO@,t7837wuaaptq305,&@##&&#@+@@%@+O@&,9utq7q6quw7585,752,",
"1;;#@OOO#;5y822upqpapt0,4,&#O%@%;-$+@&:;#+%,qtuuewq877877q51654,",
";@+oooO@187pw87ptqtut71;1,$++&&$1,114851;$5tat88qw7553;7pat21,2:",
"#OXooO&5t12tp7qte99641>-:1;,2,%@>35855221,tap62<29utq1#7uy7,&;,;",
"+++@#;tp857pauuq4253:&&**19qq,,;,215,,,,210tu55:>,qq8,$ttw5&;82,",
",,q,$;tt07apptppe2:>$@@%%1tt5$&8quw81-87w857q<;&;;q68&+3q2;&<tu5",
"q,5uq7tw7uptu7tttq,:%+#>14tq5;8st625,,tr5,,<2,>*:,62,$O&4*&;8taw",
"q,>qytyaapu7q3qq452;%+@49qyq75tpwq37ttpu5,;<,>;;:,2,;@+&5537q5ut",
"032tyqwautw65,,2;;,:*@$qqq7tapppt8&,7q72,1,521;$#&&#O@$*,7utq85p",
"u8835,5w5<5821*,%$>>%#*eqq9qy98q75,,pu0,4pat8>@@@&&-@$$&;5at61,t",
"57851->5,&;8;&@&>;1;--3yeq68t2qti71,8wq7papq,@oO$,1,$#@=2qtq52,5",
"-242,%%,;;%2,&@@#,72:,9yiq5277pppq2<5upppuq5,&$3pu58#@&,3552<,,,",
"$>65;$;e2;#,>;##@<qw44ew72;;rtyqtw2,2qptt212587asu1;O+w7q33,;;:&",
"#%;1:;5pq2%,14;%#6tu95pq21#$tuwq52,1qtu88,,qppqpsa2#O#syw3<*&&%#",
"+%%*>25e5;#<98:;>ptwq5uy2>#@8tq5,,;,,1515,&8pt18aspq&,stutt5-#O+",
"+$&&>,142;%qe5&,uaapt52qq5;#>772>&&;=-232;&9u7*5saw<;qaueq542,#+",
",&&$::,1,--75&#4ptqu51;,22-@$3q,&&&&##&<,,:582;6put5&1sau73,,;&&",
"e,-+@$*>>-;5,+%upq882,&-;;@O@35>&$@+XX+;1:>2,;;25q2,;qsae81;;$;,",
"61%$#;,,-%#&@+,e5-;,,&#@$@X+,q81;&#+oO;1,;;,,;*-&5q7:552134,>@;,"
};
