/* XPM */
static char *TilledSoil[] = {
/* columns rows colors chars-per-pixel */
"64 64 191 2 ",
"   c #0E0904",
".  c #150D05",
"X  c #160F06",
"o  c #1C1206",
"O  c #1D1409",
"+  c #211507",
"@  c #271807",
"#  c #2A1A07",
"$  c #211609",
"%  c #25190B",
"&  c #2B1D0C",
"*  c #311F0A",
"=  c #261B10",
"-  c #2B1F11",
";  c #2F200E",
":  c #34220D",
">  c #3A260E",
",  c #3F280F",
"<  c #2D2111",
"1  c #342412",
"2  c #392712",
"3  c #372816",
"4  c #3C2A14",
"5  c #3E2D18",
"6  c #412A0E",
"7  c #4A2F0F",
"8  c #4F310E",
"9  c #51320E",
"0  c #432D13",
"q  c #492F10",
"w  c #422F19",
"e  c #463016",
"r  c #4C3215",
"t  c #45311A",
"y  c #4C351B",
"u  c #4E381E",
"i  c #533614",
"p  c #553915",
"a  c #5C3B15",
"s  c #503619",
"d  c #543A1B",
"f  c #5B3D1B",
"g  c #623E14",
"h  c #603F19",
"j  c #4D3921",
"k  c #553D22",
"l  c #583F21",
"z  c #5E401D",
"x  c #654117",
"c  c #6A4315",
"v  c #63431D",
"b  c #6B451A",
"n  c #6D491D",
"m  c #724715",
"M  c #734916",
"N  c #734B1C",
"B  c #7A4F1E",
"V  c #7C511E",
"C  c #5D4223",
"Z  c #634522",
"A  c #694621",
"S  c #654825",
"D  c #6B4A23",
"F  c #634729",
"G  c #634829",
"H  c #6C4E2A",
"J  c #724D23",
"K  c #6C512F",
"L  c #755125",
"P  c #7C5324",
"I  c #74522B",
"U  c #7C562A",
"Y  c #7D592E",
"T  c #745430",
"R  c #795731",
"E  c #7D5A31",
"W  c #84541D",
"Q  c #88561E",
"!  c #8C5A1E",
"~  c #955D1D",
"^  c #995F1D",
"/  c #95601F",
"(  c #9D621E",
")  c #A0631F",
"_  c #825624",
"`  c #855926",
"'  c #8B5C24",
"]  c #805729",
"[  c #835B2B",
"{  c #8B5E2A",
"}  c #935E22",
"|  c #835E34",
" . c #8C602D",
".. c #946126",
"X. c #9B6424",
"o. c #93642C",
"O. c #9A662B",
"+. c #9C692D",
"@. c #876133",
"#. c #8C6333",
"$. c #89653A",
"%. c #8F6638",
"&. c #936532",
"*. c #986730",
"=. c #956935",
"-. c #9C6B33",
";. c #956B3B",
":. c #9B6E39",
">. c #9D713D",
",. c #A16624",
"<. c #A56A23",
"1. c #AB6C23",
"2. c #A26C2C",
"3. c #A96F2B",
"4. c #A6702E",
"5. c #AC722D",
"6. c #B37226",
"7. c #BB7727",
"8. c #B3752D",
"9. c #B9772A",
"0. c #BA7829",
"q. c #BB7A2D",
"w. c #A36E32",
"e. c #A86F31",
"r. c #A26F38",
"t. c #A47135",
"y. c #AB7434",
"u. c #AF7837",
"i. c #A4733A",
"p. c #AB7639",
"a. c #AC793C",
"s. c #B27632",
"d. c #B47934",
"f. c #BA7C35",
"g. c #B47C3C",
"h. c #BA7F3B",
"j. c #C27A27",
"k. c #C17F32",
"l. c #976F40",
"z. c #9D7241",
"x. c #A37642",
"c. c #A67943",
"v. c #AC7C43",
"b. c #B17D41",
"n. c #BF8137",
"m. c #B7803E",
"M. c #BC813C",
"N. c #C58334",
"B. c #CA8534",
"V. c #C3843B",
"C. c #C88539",
"Z. c #CB8A3D",
"A. c #D18936",
"S. c #D38F3E",
"D. c #D3903F",
"F. c #DB913B",
"G. c #B68245",
"H. c #BC8442",
"J. c #B5834A",
"K. c #BB8649",
"L. c #BD894C",
"P. c #BF8C52",
"I. c #C28642",
"U. c #C58A44",
"Y. c #CD8D42",
"T. c #C58C4C",
"R. c #C88D4B",
"E. c #D18F42",
"W. c #CC914E",
"Q. c #D39143",
"!. c #D2944C",
"~. c #D6984F",
"^. c #DA9A4E",
"/. c #C28F52",
"(. c #CB9452",
"). c #CB9457",
"_. c #D39752",
"`. c #D49953",
"'. c #DE9D51",
"]. c #D49D5A",
"[. c #DB9E59",
"{. c #E29C48",
"}. c #E09F53",
"|. c #DBA05C",
" X c #EFA857",
".X c #E0A259",
"XX c #E6A65A",
"oX c #ECAB5D",
"OX c #F0AA58",
"+X c #F3B264",
"@X c #F8B467",
/* pixels */
"@.|.+XP.J.k = O K E #.Y Z f 0 w  .h.L [ ' z > : 6 N <.W B g 7 # c ^ ( Q c 6 @ 6 +.8.5.v P P e f y.[ v -.:.C 4 I L.W.).z.z.l.C 5 ",
"K P.].c.z.t % $ ;.K.v.&.D l w 0 D w.` ` ..n > : 6 V 9.<.) c * # m ~ ) ( W 9 : 8 N V B n _ J 1 : z H D i.g.I y H G.T.`.E T E j 3 ",
"j z.P.J.J.C - 5 (.OXXXI.-.I f w d o.O.+.O.V e : : B 1.1.1.a # + m ( ) ( W i o @ r i a B O.J 4 1 Z { &.u.G.D 5 C G.T.J.I T K 3 O ",
"j z.l.z.z.R 5 t c.~.!.H.| Z e 0 f { 2.t.+.' q : > P 1.1.( g # o m ) ) ( W 7 .   r W ..2.8.P p r { H.V.>.i.D 4 y $.| #.| $.F 3 O ",
"G z.%.;.;.R 5 5 &.~.~.H.I y : & f e.d.e...n > & > b X.( / a @ o M 7.7.) Q 8 o o V f.F.B.q.J y s [ u.t.Y [ S 4 S ;.E x.v.l.C < = ",
"R ).|.(.J.@.t 4 E R.}.r.D 0 & & n Z.V.s.O.b * % p x <.X.^ p + . x 6.<.m 9 6 @ : X.q.A.3.{ p 4 e { g.g.[ [ I u I c.z.}./.c.K < - ",
"l.|.+X(.c.K t 3 D v.:.Z Z d 2 1 U A.5.P P h > > V b ....Q > . . b ..( Q z 9 # , ` 8.k._ v i : q { -.t.=.-.{ S @.i.#.(.b.x.R 3 - ",
"c.)._.>.%.C 4 1 H G.p.Z L D d y { n.y.P P b 6 0 ! x V ~ Q , o + c X.+.<.! m : > W 5.} P } J f s L o.M.M.i.D y C ;.r.(.T.T.c.j w ",
":.K.G.=.| F 2 3 [ W.!.&.H.&.d e { g.{ P ' a * > P g V X.' a & : ` 8.8.1.X.x ; & n +.W ' O.N s r L P L D Z y 3 e E c.v.;.{ I w w ",
"| G.v.;.[ H 0 0 [ !.I.] &.P e 0 P s.+.` ' f * 0 N a P ..W N : > ..k.N.8.5.a @ @ B 2...2.O.v q 4 Z t.t.[ D D t j { =.E U H F 4 < ",
"D @.#.@.I Z 5 5 =.i.&.&.i.{ 2 $ i +.y.+.{ N r b n v P 2...' : 0 ..N.q.2. .7 o + N 3.5.2.O.D r e v w.-.&.[ I t d ;.=.-.r.a.;.y - ",
"d I [ =. .H e 1 H J #.i.i.] 0 $ y  .f.2.{ b 0 h a b ..3.' N 1 0 ` 5.8.+.B > @ : ` s.d.+.2.P s 0 v -.y.-.-.U e u &.:.p.T.K.:.1 $ ",
"F g.H.H.g.[ y 2 J Y a.M.g.[ e 1 [ M.Z.y.{ x : 0 0 B s.s.{ h : q ..s.8.O.v 6 : e +.C.f.{ ` f % $ 0 o.M.p.&.J 4 d g.m.H.m.b.&.- O ",
"Z g.Q.U.U.&.e 1 D o.g.g.-.U s 1 n u.f.O.` y + @ > U N.y.{ p : : Z { O._ a f : 0 ' f.e.{ ` y % . 0 &.h.p. .Z 4 d p.g.g.g.g.] % . ",
"f i.I.h.V.U : - J g.I.M.w.U e & d u.Z.` J e + : d ` 5.o.U p 1 : v  .+.U f v ; : U y.2.{ { e $ o e w.g.t.L 0 $ 1 v P U P L v 1 o ",
"d  .u.I.u.d % % ] V.w.-.w.J : % y t.Q.w.{ v : y  .y.Z.u.L n 4 & f y.d. .n A : $ N w.O...o.s % % s y.E.g.[ 0 O % z  .[ U f Z 3 $ ",
"d -.+.V.M.s % % U d.+.+.-.u $ o D V.Z.-.o.v 2 f *.t.M.h.{ ` 4 % 0 -.t.` A v 1 : { V.-.o.*.Z 1 : Z u.{.g._ 0 + 2 O.Y.Z.g.*.U ; $ ",
"L M.V.h.f.s % + n o.o.y.V.z % % [ M.g.-.[ Z 0 z g.Z.Q.g.[ { 0 O u u.` z A v 4 4 r.Z.w.&.&.f % 1 J i.Z.y.J 4 . 1 y.E.Q.+.` A : ; ",
"y ` w.y...0 O o n 2.+.d.n.p o % [ a.u.t.L A 0 u -.y.t.=.Z v 1 % S m.t.@.[ L e y O.u.-.*.-.f % 1 J -.s.-._ 4 . 1 2.s.D.' v y % % ",
"0 _ e.y._ : o o P M.f.d.t.0     n o.a.o.D L e 4 L U U L D Z 1 < C t.H.-.&.U y z { >.w.=.&.d & 1 P w.O.A s > $ q f.V.C.J i : $ . ",
"n s.d.y.v : . & O.F.D.N.+.e .   { -.[ D [ Y 2 % z [ #.-.m.[ 4 y D a.p.t.=.[ w y z [ -.a.i.J 0 1 P y.` h s q 6 v 2._ _ N f 4 & & ",
"5.F.B.8.p & o 0 5.q.+.P J 0 $ & y.Y.r.&.a.D - O v G.H.W.'.Y 3 j I G.g.:.=.L 1 1 Z #.g.U.b.J 2 % Z g._ v P L f s n h v N n p r p ",
"{ F.A.5.r : o r 2.2.P v v q & r o.d.#.y.t.l & 1 >. XI.W.W.I 1 C I >.W.R.H.Y 2 2 I b.^.U.{ d $ o h V._ h .._ s > r a n B ` V v s ",
"y X.8.! 7 > # p 2.3.B n N v r d ` m.L [ { y 1 w Y =.[ =.;.H < j H I i.#.Y C t t @.U.`.a.S 2 O % ] w.J J *.J * @ 0 N ' X.X.W i : ",
": V 5.W r p 6 a ..+.! B ..{ v f J t.U U @.d 1 < t S S I I u % $ w C ;.c.=.C 3 w | K.R.-.L d % % z n n o.5.f # o v <.0.B.6.N : $ ",
"7 ..6.W a c 7 i ..8.5.o.s.+.d : 2 v o.-. .C e 1 y $.;.x.=.E 3 O 3 E K.(.v.I 5 e [ U.!.g.i.L 2 0 A L ` 2.O.i @ & ` q.' B v > o . ",
"a X.<.~ M x 8 > V 5.N.+.4.J ; O % z -.y.&.d u 4 z `.].oX[.x.k < G T.oXXXL.| j C b..X~.b.p.G & 1 A  .f.s.O.r & : B ,._ m m > . . ",
"! <.<.<.~ a 7 : b 3.q.+.2.p o   4 -.I.a.#.C d 5 C ].oX@X|.;.5 = C (.oX`.L.| 5 5 D #.#.&.#.d O & D n f.8.+.y @ % a } V m W g : > ",
"Q ) ) 7.7.a : # x ..8.+.+.q .   z M.E.H.g.I d 5 y J._.`./.K = = j ).[.J.v.H = < E b.:.[ [ p % ; D v w.+.O.y @ o a } ' ! ) c * 6 ",
"x ) j.j.6.9 # + c X.q.P J 4 O   z t.I.u.[ y % % u G.L.J.L.R 3 = j v.x.T K t . = I G.c.i.:.D 1 : n A +.y.2.b * # v 1.1.6.6.g + + ",
"8 ( ~ g 9 : o + V 5.n.n B p ; ; { t.H.=.H 4 O 1 E K.K.L.v.K 3 = k J./.x.l.k $ $ I ;.a.c.@.U 2 & D o.+.n.y.B , : a 3.6.7.^ 6 o . ",
"9 ( ^ m a # . o V 8.N.v _ D 0 e t.&.#.i.@.y < C G./.T.J.c.C 3 = K ).+X).P.K < = %.U.`.T.L U 1 & D M. .u.y.N : & 7 N Q m 9 : @ . ",
"c ~ ( Q x 6 @ 6 2.8.8.v P P 0 f g.[ Z :.:.C 0 H L.(.).z.z.l.C 5 $.].@XP.J.j = O I E %.E Z l 0 0 { h.L ` { z : : 6 N <.W M g q # ",
"m ~ ) ( B a : 7 N J N N _ J 1 1 z A D i.b.I y H G.T.).E T R j 3 K P.].x.z.j = = ;.K.b.#.D f w w D r.[ ` ..n > > 6 V 0.2.<.c : # ",
"m ~ ) ( W 9 o + r p h J O.J 0 : Z { &.u.g.H 5 f G.T.J.T T T 3 O j z.P.J.J.C = 3 R. XXXI.=.P f e f  .O.+.X.P 7 : : M 1.1.) g # + ",
"m ,.) ~ W 9 . . q W } 2.s.P s r { H.M.i.p.D 4 y #.| $.R $.G 3 O j z.l.z.z.T 3 j a.~.!.G.| Z t 0 f ' 3.t.2.' w : > W 1.1.) g # + ",
"M j.7.) Q 7 o o P q.F.B.f.J e s ` u.t.Y [ F 5 F ;.E x.v.;.F 1 = F l.;.;.l.R 5 5 =.`.^.H.L y 1 & f r.f.2...D : # > b X.( ~ g @ o ",
"c 7.) m i 6 @ * X.q.A.3.} d 6 q { g.a.{ [ I y U c.i.[.T.v.K < - E (.[.(.J.E j 5 Y R.'.e.D 0 & & n Z.N.y.O.b : % p x <.X...a o . ",
"c / X.W g i & 4 ' q.k.P h s 1 q { -.i.=.:.{ S @.i.#.(.J.x.I 1 - l.}.+XW.v.K 5 < D v.-.G G p 2 : U A.u.P P f 2 6 B c } X.Q : . . ",
"b X.2.<.~ b : : W 5.} V ' P d s L o.h.M.i.J e C ;.>.(.T.T.c.y w c.(.(.z.%.l 5 3 H K.i.Z L D d y { V.5.P V b 6 6 ' x V ~ Q 6 + + ",
"` 8.8.3.X.c : & N O.' ' O.D d s L P J D Z y 1 e Y v.b.;.#.I w w z.T.v.=.@.G 4 3 Y !.!.=.g.&.d y { f.{ J ` a & > V g V X.' a & : ",
"' k.B.8.1.f % # N 2.} 2.2.h 0 4 n t.e.[ J H e y @.=.Y L H F 4 < | b.b.;.[ H 4 t [ W.I.[ &.U e 0 P s.+.` { g : 0 B f P .._ N : > ",
"..N.k.<...0 + + N 3.3.w.O.J q q v w.t.@.[ J t k :.=.:.i.a.;.y - H #.{ | L S w 0 =.i.&.#.t.{ 2 $ s O.y.+.{ N r b n h _ 2...` > 6 ",
"` s.5.O.B > @ & ' s.s.2.2.L y 0 Z &.u.-.=.Y e y &.-.i.U.K.-.1 % f H [ ;.| D w 1 H J #.t.i.] 0 $ y o.f.w.' n r a p n } 2.} N : , ",
"o.s.8.+.v 6 : r O.C.f.{ _ f % $ 0 o.g.y.&.J 5 d u.G.M.g.b.&.< O Z b.I.K.g.[ y 2 L [ u.H.b.` w 1 ` M.Z.y.{ h : 0 , P q.d.{ f : 7 ",
"v ' O.P i f : 0 ' f.2.' ` s $ . w &.h.p. .Z 4 d a.g.m.g.g.Y $ . Z h.Y.U.U.&.t 1 Z o.u.g.-.U p 1 D u.g.O._ i $ % > U N.y.{ f : 1 ",
"v  .+.U d v : : _ y.w.{ { y $ o y w.g.u.L 0 % 1 v P U U J Z 1 o l r.I.h.V.U 1 & J g.V.M.r.J t - d u.Z.' J y $ ; p [ 4...U d 1 * ",
"z y.d. .n n : $ D w.O.o.o.s % % s y.Y.g.[ 0 O $ z o.[ P f Z 3 $ f { p.I.s.d % % [ V.t.w.e.J 1 $ y t.E.-.{ v ; y ..y.Z.y.P A 4 & ",
"e -.t.U Z v 2 : { V.-.o.-.C : 1 Z u.{.f.U 0 $ > -.Y.Z.d.-._ * $ d o.-.V.M.p % % U d.+.+.+.y $ O n V.Z.-.o.v 2 d -.w.M.h.{ ] 0 % ",
"u y.{ z n v 4 4 t.Z.w.o.o.d & 1 J y.U.e.J 4 . 1 u.Z.Q.+._ D 2 & P M.V.N.d.p % O n o.o.y.V.v % % [ M.g.-.[ A 0 z g.Z.Q.h.` #.0 $ ",
"A G.t.[ [ L e y o.u.-.=.w.d % : J -.s.+._ 2 . 1 -.d.Q.' Z e & + y ` t.t.o.4 o o A +.+.d.M.p o % [ p.u.t.L F 4 d -.t.t.o.Z v 1 $ ",
"C t.H.-.&.U s C { i.-.-.&.d & 1 U w.&.n p > $ 7 f.N.V.J 7 , $ X 4 ` 2.u._ > . o P V.f.d.t.e     n o.p.&.D L e 0 L U U U A F 1 - ",
"D a.i.t.=.[ 0 y C [ -.d.i.D w 1 U t._ v r r 4 b 2._ _ n a 4 & & n 8.s.s.x ; . ; O.F.S.n.+.e .   [ -.U D [ U 1 % z [ #.-.g.[ 4 y ",
"I G.m.>.=.L 3 1 Z &.b.U.g.L 3 % Z f.` v P L a p n v v N n p r p 5.D.Z.8.a # o , 8.f.O.V B 0 O 1 y.Z.t.=.u.D - o Z G.H.W.'.| 1 d ",
"I t.W.U.K.Y 2 3 L b.^.U.#.s $ o Z V.` z ..` r : r a n B ' V v y ' F.B.8.r ; @ 7 2.2.P v f e ; q *.d. .u.i.C & 1 i. XU.!.W.I 1 k ",
"H H i.%.[ k e e | U.`.a.A 2 o $ P 2.J N +.n : % 7 n ' X.X._ i : y X.8.' q > & p 2.3.V n B v e d ` m.U U @.s 1 0 I =.Y =.:.S < k ",
"t l ;.c.=.k 2 w | K.R.-.L u % & z n A O.t.a % o v <.7.B.6.M * + : V 5.V 9 p 6 a ' 2.' P ..' f f J t.U U #.d 1 < t S G R I u % O ",
"3 E K.R.v.T 5 w [ U.!.g.i.L w 4 n P ` 2.O.p @ & W q.' V x > o . 7 ..0.Q a x 7 i ..9.5...s.+.d : 4 v o.-. .k e 1 y #.;.>.=.Y 3 O ",
"G /.oXoXL.| j F v.|.!.H.p.S & : D { f.d.O.r # : B ,.Q c N > o . a X.1./ M x r > B 5.k.2.4.N : O % f -.t.&.d u 4 C `.].+X|.z.C < ",
"G (.oX`.P.| 5 3 H #. .&.@.d O & A A f.s.O.y @ # f } W c W g : > ! <.) <...a 7 : b 3.q.2.2.d o . 4 w.I.a.=.C u 5 C `.XX@X|.;.5 = ",
"y ).[.v.v.K = - E b.:.[ [ y % : D v 2.+...i % o a } ' ! ( g * 7 ~ ) ) 6.7.a : # a X.s.O.+.0 .   f M.U.H.g.I u 4 y K.(.`./.K % % ",
"j v.c.T K t . % I G.a.w.:.D 2 1 D A +.y.2.b : # f 1.<.6.6.g + + c ) j.j.1.9 # + b X.f.P P 2 O   v t.I.g.[ y & - k v.L.J./.Y 3 = ",
"k P.).x.;.k % O I :.a.c.@.U 2 & J o.-.g.y.J 6 : h 1.7.6.( 7 o . 9 ( ~ g p : o o B 5.n.n N p & ; { t.H.-.H 2 O 1 E K.J.P.c.K 3 < ",
"G ).@X).P.K < % %.L.~.R.I U 1 % n M. .s.s.N > & 0 N ' c 9 : + . 9 ( ~ m a # . o V 8.N.v ` D 0 e i.&.#.t.@.y < C v.W./.L.z.C 3 = "
};
